<?xml version="1.0" encoding="UTF-8"?>
<svg width="1280px" height="1280px" viewBox="0 0 1280 1280" version="1.1" xmlns="http://www.w3.org/2000/svg" xmlns:xlink="http://www.w3.org/1999/xlink">
    <!-- Generator: Sketch 51.3 (57544) - http://www.bohemiancoding.com/sketch -->
    <title>[dark] icon </title>
    <desc>Created with Sketch.</desc>
    <defs>
        <path d="M18.2814938,215.982005 C24.2908112,212.408263 142.276976,142.744041 372.239987,6.98934053 C378.247054,2.75333978 384.699792,0.635339407 391.598201,0.635339407 C398.496611,0.635339407 405.036459,2.75333978 411.217747,6.98934053 L766.160822,215.982005 C776.102981,224.040794 781.074061,235.87597 781.074061,251.487534 C781.074061,267.099097 781.074061,434.661999 781.074061,754.17624 C780.624278,767.521927 775.653199,777.162522 766.160822,783.098025 C751.922257,792.001279 417.510286,993.890594 409.073458,998.257597 C396.664662,1006.4054 383.056075,1004.48965 372.239987,998.257597 C365.029262,994.102893 247.043098,922.383035 18.2814938,783.098025 C6.42528641,777.294059 0.497182725,767.653464 0.497182725,754.17624 C0.497182725,740.699016 0.497182725,573.136114 0.497182725,251.487534 C0.497182725,237.329439 6.42528641,225.494263 18.2814938,215.982005 Z" id="path-1"></path>
        <radialGradient cx="50%" cy="29.1447596%" fx="50%" fy="29.1447596%" r="50%" gradientTransform="translate(0.500000,0.291448),scale(0.991677,1.000000),rotate(90.000000),scale(1.000000,0.980340),translate(-0.500000,-0.291448)" id="radialGradient-3">
            <stop stop-color="#FFFFFF" offset="0%"></stop>
            <stop stop-color="#E9FCF0" stop-opacity="0.591931329" offset="29.302661%"></stop>
            <stop stop-color="#74EBA3" offset="100%"></stop>
        </radialGradient>
        <path d="M0.650670898,470.417519 L0.650670898,5.46136288 C1.61615743,0.898915814 3.8625328,-0.491884884 7.38979702,1.28896078 C10.9170612,3.06980644 102.49938,58.6100793 282.136752,167.909779 C288.452971,171.800787 295.076551,171.800787 302.007492,167.909779 C308.938433,164.018772 400.438727,108.478499 576.508374,1.28896078 C578.918343,2.12629773 580.123327,3.51709843 580.123327,5.46136288 C580.123327,7.40562732 580.123327,157.989466 580.123327,457.212878 L580.123327,487.1047 L290.864047,661.092435 L0.650670898,487.1047 L0.650670898,470.417519 Z" id="path-4"></path>
    </defs>
    <g id="[dark]-icon-" stroke="none" stroke-width="1" fill="none" fill-rule="evenodd">
        <g id="icon" transform="translate(215.000000, 100.000000)">
            <path d="M19.4682207,231.591121 C26.0037985,228.111327 154.32249,153.500915 404.424296,7.75988468 C410.957426,2.98975974 417.975256,0.604697275 425.477787,0.604697275 C432.980318,0.604697275 440.092888,2.98975974 446.815496,7.75988468 L832.842377,231.591121 C843.655212,239.438055 849.061629,250.962099 849.061629,266.163255 C849.061629,281.36441 849.061629,462.595828 849.061629,809.857508 C848.572457,822.852355 843.16604,832.239511 832.842377,838.018977 C817.356883,846.688176 450.063995,1069.21368 443.401977,1073.66435 C433.033727,1081.14679 416.140196,1081.14679 404.424296,1073.66435 C396.613696,1068.67605 268.295005,990.127597 19.4682207,838.018977 C6.57371717,832.36759 0.126465393,822.980434 0.126465393,809.857508 C0.126465393,796.734583 0.126465393,615.503165 0.126465393,266.163255 C0.126465393,252.377358 6.57371717,240.853314 19.4682207,231.591121 Z" id="Path-6" fill="#144A4E" fill-rule="nonzero"></path>
            <g id="Group" transform="translate(33.808425, 32.814060)">
                <mask id="mask-2" fill="white">
                    <use xlink:href="#path-1"></use>
                </mask>
                <use id="Path-6" fill="#FFFFFF" fill-rule="nonzero" xlink:href="#path-1"></use>
                <rect id="Rectangle" fill="url(#radialGradient-3)" fill-rule="nonzero" mask="url(#mask-2)" x="-30.5976537" y="188.749036" width="845.941223" height="838.900095"></rect>
                <path d="M60.3125979,905.949586 L60.3125979,467.934944 C59.9248819,457.355407 62.3368332,450.614537 67.5484515,447.712334 C75.3658791,443.359031 88.0837155,445.041066 93.3746118,447.712334 C96.901876,449.49318 192.636649,510.020851 380.578931,629.295348 C386.895151,633.186355 393.518731,633.186355 400.449672,629.295348 C407.380612,625.404341 502.21759,565.507079 684.960604,449.603561 C693.891969,444.19808 701.593527,443.567671 708.065278,447.712334 C717.772904,453.92933 718.340125,465.018547 718.340125,467.934944 C718.340125,469.879208 718.340125,611.482542 718.340125,892.744945 L718.340125,922.636767 L389.306226,1122.478 L60.3125979,922.636767 L60.3125979,905.949586 Z" id="Path-7" fill="#144A4E" fill-rule="nonzero" mask="url(#mask-2)"></path>
                <g id="Group-2" mask="url(#mask-2)">
                    <g transform="translate(98.442180, 503.774950)">
                        <mask id="mask-5" fill="white">
                            <use xlink:href="#path-4"></use>
                        </mask>
                        <use id="Path-7" stroke="none" fill="#FFFFFF" fill-rule="nonzero" xlink:href="#path-4"></use>
                    </g>
                </g>
            </g>
            <path d="M43.561551,251.872257 C49.7120305,248.214565 170.469752,176.913894 405.834715,37.9702447 C411.982891,34.9563477 418.587207,33.4493992 425.647664,33.4493992 C432.70812,33.4493992 439.401593,35.6171526 445.728082,39.9526592 L809.008957,253.854671 C819.184662,289.11456 824.272515,310.060228 824.272515,316.691675 C824.272515,319.281345 823.581993,332.638535 809.008957,341.750932 C794.43592,350.863328 452.168436,567.672365 443.533423,572.141951 C430.833138,580.481153 416.904878,578.520402 405.834715,572.141951 C398.454606,567.88965 277.696885,491.092644 43.561551,341.750932 C32.0876399,333.378259 26.3506844,323.511201 26.3506844,312.149758 C26.3506844,295.107595 22.2266836,265.138316 43.561551,251.872257 Z" id="Path-6" fill="#144A4E" fill-rule="nonzero"></path>
            <path d="M52.9993758,252.048507 C58.9607593,248.46674 176.572188,179.023779 405.833661,43.7196245 C411.821648,39.4970777 418.253892,37.3858044 425.130391,37.3858044 C432.00689,37.3858044 438.525968,39.4970777 444.687623,43.7196245 C631.689317,152.314247 749.627897,221.757208 798.503363,252.048507 C808.547913,258.424073 813.519982,270.155571 813.369235,277.529194 C813.519982,284.554294 812.696705,293.060566 798.503363,301.935542 C784.310021,310.810519 450.960176,521.970685 442.550145,526.323817 C430.18076,534.445745 416.615396,532.53608 405.833661,526.323817 C398.645838,522.182309 281.034409,447.386217 52.9993758,301.935542 C40.9282618,294.359069 34.8927048,285.394577 34.8927048,275.042066 C34.8927048,263.019099 43.581947,257.706763 52.9993758,252.048507 Z" id="Path-6" fill="#FFFFFF" fill-rule="nonzero"></path>
            <g id="beams-right" transform="translate(556.432369, 787.094130) scale(-1, 1) translate(-556.432369, -787.094130) translate(399.932369, 540.594130)" fill-rule="nonzero">
                <polygon id="Path-10" fill="#BAF3F2" transform="translate(135.864065, 246.259372) scale(-1, 1) translate(-135.864065, -246.259372) " points="270.947655 0.387473363 270.947655 328.256069 0.780474589 492.13127 0.780474589 164.568037"></polygon>
                <path d="M34.0913175,147.582927 L290.446829,148.750383 C295.687994,148.774252 300.536601,151.532055 303.236028,156.024657 L308.234067,164.34279 C311.125265,169.154551 309.568341,175.399033 304.756579,178.290231 C303.150335,179.25536 301.30855,179.757665 299.434721,179.741647 L34.0477735,177.473091 C25.8138313,177.402707 19.1759904,170.707882 19.1759904,162.473639 L19.1759904,162.430484 C19.1759904,154.23032 25.8235368,147.582773 34.023701,147.582773 C34.0462399,147.582773 34.0687788,147.582825 34.0913175,147.582927 Z" id="Rectangle-8" fill="#144A4E" transform="translate(164.431688, 163.662396) rotate(31.000000) translate(-164.431688, -163.662396) "></path>
                <path d="M77.9353012,232.876797 L294.209562,230.566607 C299.531968,230.509754 304.485891,233.277727 307.227289,237.84018 L312.147503,246.028791 C315.084699,250.917105 313.503004,257.260935 308.61469,260.19813 C307.023509,261.154208 305.204019,261.663667 303.347718,261.672888 L78.0108162,262.792187 C69.8141406,262.832902 63.1364163,256.22119 63.0957015,248.024514 C63.0955795,247.999941 63.0955185,247.975367 63.0955185,247.950793 L63.0955185,247.875941 C63.0955185,239.654171 69.7139999,232.964615 77.9353012,232.876797 Z" id="Rectangle-8" fill="#144A4E" transform="translate(188.359730, 246.679061) rotate(31.000000) translate(-188.359730, -246.679061) "></path>
                <path d="M125.777128,315.809167 L293.575618,314.871488 C298.870984,314.841896 303.78959,317.606597 306.516948,322.145682 L311.463254,330.377718 C314.380126,335.232208 312.809376,341.532141 307.954887,344.449013 C306.356936,345.409158 304.527476,345.915536 302.663254,345.913687 L125.777354,345.73827 C117.537373,345.730099 110.861879,339.047982 110.861879,330.807997 L110.861879,330.807997 C110.861879,322.556956 117.526216,315.855274 125.777128,315.809167 Z" id="Rectangle-8" fill="#144A4E" transform="translate(211.895678, 330.392472) rotate(31.000000) translate(-211.895678, -330.392472) "></path>
                <path d="M169.595162,396.71585 L296.454568,395.280533 C301.780323,395.220276 306.738638,397.988647 309.48178,402.554002 L314.398749,410.737213 C317.327541,415.611541 315.750372,421.937221 310.876043,424.866013 C309.282041,425.823786 307.458407,426.331986 305.598797,426.336646 L169.6803,426.677231 C161.463348,426.697822 154.785501,420.053358 154.764911,411.836407 C154.76488,411.823979 154.764865,411.811552 154.764865,411.799125 L154.764865,411.71489 C154.764865,403.496816 161.377614,396.808825 169.595162,396.71585 Z" id="Rectangle-8" fill="#144A4E" transform="translate(235.317914, 410.978424) rotate(31.000000) translate(-235.317914, -410.978424) "></path>
            </g>
            <g id="beams-left" transform="translate(129.267508, 539.940439)" fill-rule="nonzero">
                <polygon id="Path-10" points="0.772356855 0 0.772356855 326.507518 278.971096 496.070618 278.971096 144.430732"></polygon>
                <path d="M197.316879,189.163732 L288.475438,187.71946 C293.825118,187.634703 298.814936,190.405861 301.57057,194.992007 L306.464268,203.136488 C309.422997,208.060639 307.829707,214.450977 302.905555,217.409706 C301.321743,218.361356 299.51302,218.873942 297.665409,218.894744 L206.453348,219.921715 C201.127884,219.981676 196.169952,217.213339 193.426961,212.648237 L188.670634,204.732379 C185.747386,199.867277 187.32157,193.553572 192.186672,190.630324 C193.737795,189.698314 195.507513,189.192398 197.316879,189.163732 Z" id="Rectangle-8" fill="#144A4E" transform="translate(247.576369, 203.820120) rotate(31.000000) translate(-247.576369, -203.820120) "></path>
                <path d="M82.5132693,188.572639 L195.715423,187.819086 C201.016472,187.783798 205.942479,190.549196 208.672781,195.093182 L213.613619,203.316119 C216.543459,208.192191 214.965726,214.520133 210.089654,217.449973 C208.496002,218.407536 206.672882,218.915894 204.813682,218.921124 L91.5644517,219.239679 C86.28387,219.254533 81.3844606,216.491669 78.6647493,211.96531 L73.8651821,203.977488 C70.9728867,199.163901 72.530402,192.917048 77.3439898,190.024753 C78.9058496,189.086292 80.6911919,188.584768 82.5132693,188.572639 Z" id="Rectangle-8" fill="#144A4E" transform="translate(143.748837, 203.529245) rotate(31.000000) translate(-143.748837, -203.529245) "></path>
                <path d="M74.1292894,299.191766 L230.726382,299.124651 C235.994233,299.122393 240.877175,301.883648 243.59032,306.399078 L248.562981,314.674975 C251.474735,319.520948 249.906741,325.809828 245.060768,328.721582 C243.461141,329.682735 241.6292,330.188317 239.763028,330.18366 L83.1275261,329.792806 C77.8753211,329.7797 73.0125402,327.020456 70.3074461,322.518424 L65.4808087,314.48555 C62.609408,309.706737 64.1556714,303.505013 68.9344848,300.633612 C70.5033529,299.690941 72.2989957,299.192551 74.1292894,299.191766 Z" id="Rectangle-8" fill="#144A4E" transform="translate(157.032037, 314.654171) rotate(31.000000) translate(-157.032037, -314.654171) "></path>
                <path d="M48.7593182,200.560115 L80.8476531,201.094454 C86.0235693,201.180644 90.7892515,203.929563 93.455415,208.366804 L98.5147711,216.786986 C101.348086,221.502414 99.822332,227.621879 95.1069041,230.455194 C93.4830349,231.430913 91.6145891,231.923312 89.7207548,231.874627 L57.5293787,231.047076 C52.402697,230.915283 47.6986586,228.173477 45.05735,223.777601 L40.1133079,215.549333 C37.2988317,210.865258 38.814441,204.786482 43.4985159,201.972005 C45.0854879,201.018457 46.9081603,200.529289 48.7593182,200.560115 Z" id="Rectangle-8" fill="#144A4E" transform="translate(69.318774, 216.218330) rotate(31.000000) translate(-69.318774, -216.218330) "></path>
                <path d="M197.27683,406.895829 L280.209752,407.064944 C285.4644,407.075659 290.330324,409.83522 293.036674,414.339342 L298.021912,422.636173 C300.918624,427.45711 299.358731,433.713501 294.537793,436.610213 C292.933305,437.574286 291.094142,438.077483 289.222338,438.064525 L206.231211,437.490019 C201.00277,437.453825 196.170448,434.697706 193.477537,430.21595 L188.628385,422.145605 C185.765243,417.380537 187.307059,411.19665 192.072127,408.333508 C193.643712,407.389205 195.44337,406.892091 197.27683,406.895829 Z" id="Rectangle-8" fill="#144A4E" transform="translate(243.333586, 422.480289) rotate(31.000000) translate(-243.333586, -422.480289) "></path>
            </g>
            <path d="M203.550479,317.877793 L432.550906,464.019385 C439.839206,468.670572 441.910623,478.247214 437.177546,485.409413 C432.444468,492.571613 422.699216,494.607191 415.410916,489.956004 L186.41049,343.814412 C179.12219,339.163225 177.050772,329.586583 181.78385,322.424384 C186.516927,315.262184 196.262179,313.226606 203.550479,317.877793 Z" id="Rectangle-2" fill="#144A4E" fill-rule="nonzero"></path>
            <path d="M615.455175,337.268831 C622.743475,332.617644 632.488727,334.653222 637.221804,341.815421 C641.954882,348.977621 639.883465,358.554263 632.595165,363.20545 L434.645643,489.531233 C427.357343,494.18242 417.612091,492.146842 412.879014,484.984642 C408.145937,477.822442 410.217354,468.2458 417.505654,463.594613 L615.455175,337.268831 Z" id="Rectangle-2" fill="#144A4E" fill-rule="nonzero"></path>
            <rect id="Rectangle-7" fill="#144A4E" fill-rule="nonzero" x="405.203921" y="678.898398" width="38.7802525" height="371.208081"></rect>
            <path d="M292.313975,147.389228 L416.560773,76.8964291 C424.086794,72.626457 433.710281,75.1604482 438.055432,82.5562567 C442.400583,89.9520652 439.821977,99.4090488 432.295955,103.679021 L308.049158,174.17182 C300.523136,178.441792 290.89965,175.907801 286.554499,168.511992 C282.209348,161.116184 284.787954,151.6592 292.313975,147.389228 Z" id="Rectangle-2" fill="#144A4E" fill-rule="nonzero"></path>
            <path d="M481.087038,103.845957 C488.456831,108.371438 490.698011,117.911096 486.092853,125.153379 C481.487695,132.395662 471.780078,134.598066 464.410285,130.072585 L421.237899,103.562236 C413.868106,99.0367548 411.626926,89.4970971 416.232084,82.2548138 C420.837242,75.0125304 430.544859,72.8101269 437.914652,77.3356078 L481.087038,103.845957 Z" id="Rectangle-2" fill="#144A4E" fill-rule="nonzero"></path>
        </g>
    </g>
</svg>