<?xml version="1.0" encoding="UTF-8"?>
<svg width="640px" height="640px" viewBox="0 0 640 640" version="1.1" xmlns="http://www.w3.org/2000/svg" xmlns:xlink="http://www.w3.org/1999/xlink">
    <!-- Generator: Sketch 51.3 (57544) - http://www.bohemiancoding.com/sketch -->
    <title>[dark] icon sm</title>
    <desc>Created with Sketch.</desc>
    <defs>
        <path d="M10.6752582,126.120091 C14.1843267,124.033247 83.0809269,83.353664 217.365059,4.08134125 C220.872813,1.60777961 224.640811,0.370998797 228.669055,0.370998797 C232.697298,0.370998797 236.516163,1.60777961 240.125652,4.08134125 L447.390387,126.120091 C453.195991,130.825924 456.098793,137.736933 456.098793,146.853117 C456.098793,155.969302 456.098793,253.815641 456.098793,440.392134 C455.836148,448.185188 452.933346,453.814697 447.390387,457.280663 C439.075948,462.479611 243.800104,580.370445 238.87352,582.920504 C231.627553,587.678317 223.680983,586.559638 217.365059,582.920504 C213.154442,580.494414 144.257842,538.614467 10.6752582,457.280663 C3.75196863,453.891507 0.290323866,448.261997 0.290323866,440.392134 C0.290323866,432.522272 0.290323866,334.675933 0.290323866,146.853117 C0.290323866,138.585669 3.75196863,131.67466 10.6752582,126.120091 Z" id="path-1"></path>
        <radialGradient cx="50%" cy="29.1447596%" fx="50%" fy="29.1447596%" r="50%" gradientTransform="translate(0.500000,0.291448),scale(0.991677,1.000000),rotate(90.000000),scale(1.000000,0.980340),translate(-0.500000,-0.291448)" id="radialGradient-3">
            <stop stop-color="#FFFFFF" offset="0%"></stop>
            <stop stop-color="#E9FCF0" stop-opacity="0.591931329" offset="29.302661%"></stop>
            <stop stop-color="#74EBA3" offset="100%"></stop>
        </radialGradient>
        <path d="M0.379951436,274.694646 L0.379951436,3.18909709 C0.94373567,0.524911066 2.25547952,-0.287230256 4.31518299,0.752673127 C6.37488646,1.79257651 59.8532785,34.2246501 164.750359,98.0488939 C168.438639,100.321001 172.306399,100.321001 176.353639,98.0488939 C180.400878,95.7767872 233.831373,63.3447136 336.645124,0.752673127 C338.052396,1.24162596 338.756032,2.05376728 338.756032,3.18909709 C338.756032,4.3244269 338.756032,92.2560462 338.756032,266.983955 L338.756032,284.438924 L169.846558,386.036967 L0.379951436,284.438924 L0.379951436,274.694646 Z" id="path-4"></path>
    </defs>
    <g id="[dark]-icon-sm" stroke="none" stroke-width="1" fill="none" fill-rule="evenodd">
        <g id="icon" transform="translate(72.000000, 4.500000)">
            <path d="M11.3682331,135.234847 C15.184605,133.202863 90.1147601,89.6350113 236.158698,4.53129122 C239.973641,1.7458342 244.071618,0.353105693 248.452631,0.353105693 C252.833644,0.353105693 256.986943,1.7458342 260.912529,4.53129122 L486.328278,135.234847 C492.642303,139.816969 495.799315,146.546296 495.799315,155.422828 C495.799315,164.299359 495.799315,270.127264 495.799315,472.906541 C495.513669,480.494725 492.356657,485.976242 486.328278,489.351091 C477.285711,494.413366 262.809451,624.354453 258.919246,626.953369 C252.864831,631.322651 243.000057,631.322651 236.158698,626.953369 C231.597792,624.040514 156.667637,578.173088 11.3682331,489.351091 C3.83864299,486.051032 0.0738479437,480.569515 0.0738479437,472.906541 C0.0738479437,465.243567 0.0738479437,359.415662 0.0738479437,155.422828 C0.0738479437,147.37272 3.83864299,140.643393 11.3682331,135.234847 Z" id="Path-6" fill="#144A4E" fill-rule="nonzero"></path>
            <g id="Group" transform="translate(19.742023, 19.161375)">
                <mask id="mask-2" fill="white">
                    <use xlink:href="#path-1"></use>
                </mask>
                <use id="Path-6" fill="#FFFFFF" fill-rule="nonzero" xlink:href="#path-1"></use>
                <rect id="Rectangle" fill="url(#radialGradient-3)" fill-rule="nonzero" mask="url(#mask-2)" x="-17.8671315" y="110.217727" width="493.977192" height="489.86561"></rect>
                <path d="M35.2188153,529.018353 L35.2188153,273.244976 C34.9924133,267.067183 36.4008431,263.130933 39.4441049,261.436227 C44.0089976,258.894168 51.4354251,259.876372 54.5249803,261.436227 C56.5846837,262.47613 112.487852,297.820535 222.234485,367.469441 C225.922765,369.741548 229.790525,369.741548 233.837764,367.469441 C237.885003,365.197335 293.263915,330.221049 399.974498,262.540586 C405.189861,259.38412 409.687093,259.016 413.466193,261.436227 C419.134845,265.066567 419.466066,271.541981 419.466066,273.244976 C419.466066,274.380306 419.466066,357.067868 419.466066,521.307661 L419.466066,538.762631 L227.330683,655.457515 L35.2188153,538.762631 L35.2188153,529.018353 Z" id="Path-7" fill="#144A4E" fill-rule="nonzero" mask="url(#mask-2)"></path>
                <g id="Group-2" mask="url(#mask-2)">
                    <g transform="translate(57.484125, 294.173316)">
                        <mask id="mask-5" fill="white">
                            <use xlink:href="#path-4"></use>
                        </mask>
                        <use id="Path-7" stroke="none" fill="#FFFFFF" fill-rule="nonzero" xlink:href="#path-4"></use>
                    </g>
                </g>
            </g>
            <path d="M25.4372432,147.077771 C29.0287416,144.941906 99.543759,103.306738 236.982295,22.1722672 C240.572448,20.4123384 244.428959,19.5323739 248.551828,19.5323739 C252.674697,19.5323739 256.58327,20.7982074 260.277547,23.3298743 L472.411039,148.235379 C478.35302,168.824966 481.32401,181.055937 481.32401,184.92829 C481.32401,186.440497 480.920788,194.240268 472.411039,199.561342 C463.90129,204.882416 264.038314,331.485442 258.996002,334.095403 C251.579823,338.96498 243.446584,337.820023 236.982295,334.095403 C232.67277,331.612323 162.157752,286.767636 25.4372432,199.561342 C18.737191,194.67222 15.3871649,188.91047 15.3871649,182.276093 C15.3871649,172.324527 12.9790043,154.824327 25.4372432,147.077771 Z" id="Path-6" fill="#144A4E" fill-rule="nonzero"></path>
            <path d="M30.9483474,147.180691 C34.4294255,145.089161 103.107203,104.53878 236.98168,25.5295483 C240.478293,23.063843 244.234324,21.8309903 248.249773,21.8309903 C252.265222,21.8309903 256.071959,23.063843 259.669983,25.5295483 C368.867371,88.9420705 437.736184,129.492451 466.276424,147.180691 C472.141818,150.903626 475.045198,157.754093 474.957171,162.059831 C475.045198,166.162053 474.564455,171.129189 466.276424,176.311624 C457.988393,181.49406 263.332765,304.798496 258.421828,307.340456 C251.198875,312.083158 243.277544,310.968032 236.98168,307.340456 C232.784437,304.922072 164.106659,261.245795 30.9483474,176.311624 C23.8995657,171.887434 20.3751748,166.652727 20.3751748,160.607503 C20.3751748,153.586836 25.4491532,150.484762 30.9483474,147.180691 Z" id="Path-6" fill="#FFFFFF" fill-rule="nonzero"></path>
            <g id="beams-right" transform="translate(324.808272, 459.673433) scale(-1, 1) translate(-324.808272, -459.673433) translate(233.308272, 315.673433)" fill-rule="nonzero">
                <polygon id="Path-10" fill="#BAF3F2" transform="translate(79.336185, 143.800195) scale(-1, 1) translate(-79.336185, -143.800195) " points="158.216621 0.226260405 158.216621 191.681179 0.455748738 287.374129 0.455748738 96.0975238"></polygon>
                <path d="M19.9072144,86.1792734 L166.090752,86.8450007 C171.331917,86.8688692 176.180524,89.6266721 178.879951,94.119274 L179.989572,95.9659934 C181.677852,98.7757634 180.768705,102.422154 177.958935,104.110434 C177.020988,104.674009 175.9455,104.967324 174.8513,104.957971 L19.9069865,103.63349 C15.0849233,103.592271 11.1975887,99.6715647 11.1975887,94.8493253 L11.1975887,94.8493253 C11.1975887,90.0609382 15.0793434,86.1791835 19.8677305,86.1791835 C19.8808918,86.1791835 19.8940532,86.1792135 19.9072144,86.1792734 Z" id="Rectangle-8" fill="#144A4E" transform="translate(96.017904, 95.568686) rotate(31.000000) translate(-96.017904, -95.568686) "></path>
                <path d="M45.5433458,135.982433 L168.215511,134.672078 C173.537917,134.615226 178.49184,137.383199 181.233238,141.945651 L182.265034,143.662848 C183.980174,146.517321 183.056563,150.221724 180.202091,151.936864 C179.27294,152.495154 178.210471,152.792646 177.126506,152.79803 L45.5437352,153.451632 C40.7573852,153.475407 36.8580085,149.614577 36.8342336,144.828227 C36.8341624,144.813878 36.8341267,144.799528 36.8341267,144.785179 L36.8341267,144.785179 C36.8341267,139.95996 40.7184023,136.033972 45.5433458,135.982433 Z" id="Rectangle-8" fill="#144A4E" transform="translate(109.980655, 144.061480) rotate(31.000000) translate(-109.980655, -144.061480) "></path>
                <path d="M73.4409505,184.411549 L167.870909,183.883862 C173.166275,183.854271 178.084882,186.618972 180.81224,191.158057 L181.870128,192.918679 C183.5734,195.7534 182.65618,199.43217 179.821459,201.135442 C178.888355,201.696108 177.820064,201.991801 176.731474,201.990721 L73.4410822,201.888289 C68.6294447,201.883517 64.7313705,197.981575 64.7313705,193.169935 L64.7313705,193.169935 C64.7313705,188.351839 68.6229295,184.438473 73.4409505,184.411549 Z" id="Rectangle-8" fill="#144A4E" transform="translate(123.728841, 192.937176) rotate(31.000000) translate(-123.728841, -192.937176) "></path>
                <path d="M99.0719176,231.654025 L169.523281,230.856922 C174.849035,230.796665 179.807351,233.565036 182.550493,238.130391 L183.579044,239.842188 C185.289277,242.688493 184.368308,246.382298 181.522002,248.092531 C180.591204,248.651811 179.526314,248.948568 178.440418,248.951289 L99.0724477,249.15017 C94.2742579,249.162193 90.3748097,245.282239 90.3627863,240.484049 C90.3627681,240.476792 90.362759,240.469535 90.362759,240.462279 L90.362759,240.462279 C90.362759,235.636178 94.2461256,231.708625 99.0719176,231.654025 Z" id="Rectangle-8" fill="#144A4E" transform="translate(137.400743, 240.003078) rotate(31.000000) translate(-137.400743, -240.003078) "></path>
            </g>
            <g id="beams-left" transform="translate(75.484205, 315.291718)" fill-rule="nonzero">
                <polygon id="Path-10" points="0.451008486 0 0.451008486 190.660134 162.901813 289.674465 162.901813 84.3385868"></polygon>
                <path d="M115.216616,110.458719 L164.851507,109.672328 C170.201187,109.58757 175.191005,112.358729 177.94664,116.944875 L178.95192,118.617941 C180.679634,121.493341 179.749251,125.224901 176.873852,126.952615 C175.949004,127.50832 174.892822,127.807638 173.813932,127.819786 L124.128996,128.379196 C118.803532,128.439156 113.8456,125.67082 111.102609,121.105718 L110.167746,119.549843 C108.46075,116.708925 109.379975,113.022113 112.220893,111.315117 C113.126653,110.770882 114.160059,110.475458 115.216616,110.458719 Z" id="Rectangle-8" fill="#144A4E" transform="translate(144.565040, 119.025294) rotate(31.000000) translate(-144.565040, -119.025294) "></path>
                <path d="M48.1791257,110.11375 L110.723818,109.697409 C116.024867,109.662121 120.950873,112.427519 123.681176,116.971505 L124.733597,118.723028 C126.444441,121.570351 125.523143,125.265477 122.675819,126.976322 C121.745225,127.535479 120.680637,127.832329 119.594979,127.835382 L57.0069857,128.011434 C51.726404,128.026288 46.8269946,125.263425 44.1072833,120.737065 L43.1291793,119.109226 C41.4402583,116.29839 42.3497506,112.650615 45.1605872,110.961694 C46.0726164,110.413692 47.1151456,110.120833 48.1791257,110.11375 Z" id="Rectangle-8" fill="#144A4E" transform="translate(83.936898, 118.854284) rotate(31.000000) translate(-83.936898, -118.854284) "></path>
                <path d="M43.2865162,174.709321 L131.196789,174.671644 C136.46464,174.669386 141.347583,177.430641 144.060727,181.946072 L145.14497,183.750555 C146.845254,186.580302 145.929642,190.252618 143.099895,191.952902 C142.165812,192.514155 141.096072,192.809384 140.006343,192.806665 L52.0615942,192.587215 C46.8093891,192.574109 41.9466082,189.814865 39.2415142,185.312833 L38.2363401,183.639942 C36.5596202,180.849412 37.4625421,177.22799 40.2530726,175.55127 C41.1691943,175.000808 42.2177382,174.709779 43.2865162,174.709321 Z" id="Rectangle-8" fill="#144A4E" transform="translate(91.696577, 183.739163) rotate(31.000000) translate(-91.696577, -183.739163) "></path>
                <path d="M28.4724168,117.114664 L43.7478141,117.369032 C48.9237303,117.455222 53.6894126,120.204141 56.3555761,124.641382 L57.5265144,126.59015 C59.1809945,129.343668 58.2900489,132.917056 55.5365315,134.571536 C54.5882926,135.141295 53.4972362,135.428826 52.3913545,135.400396 L37.0182907,135.005198 C31.891609,134.873405 27.1875706,132.131599 24.546262,127.735723 L23.4236831,125.867438 C21.7802037,123.132229 22.6652254,119.5826 25.4004346,117.939121 C26.3271278,117.382307 27.3914554,117.096664 28.4724168,117.114664 Z" id="Rectangle-8" fill="#144A4E" transform="translate(40.477864, 126.258090) rotate(31.000000) translate(-40.477864, -126.258090) "></path>
                <path d="M115.197429,237.60192 L160.102564,237.69349 C165.357213,237.704205 170.223137,240.463765 172.929486,244.967887 L174.026307,246.793304 C175.717807,249.608433 174.806926,253.261777 171.991798,254.953277 C171.054877,255.516236 169.980919,255.810071 168.887902,255.802505 L123.928638,255.491274 C118.700197,255.455081 113.867874,252.698961 111.174963,248.217205 L110.147274,246.506843 C108.475377,243.724339 109.375702,240.113333 112.158206,238.441435 C113.075914,237.890021 114.126803,237.599737 115.197429,237.60192 Z" id="Rectangle-8" fill="#144A4E" transform="translate(142.091717, 246.702278) rotate(31.000000) translate(-142.091717, -246.702278) "></path>
            </g>
            <path d="M118.860852,185.62091 L252.582893,270.958533 C256.838808,273.674537 258.048387,279.266702 255.284564,283.448982 C252.52074,287.631263 246.830118,288.819914 242.574203,286.103909 L108.852161,200.766286 C104.596246,198.050282 103.386667,192.458117 106.15049,188.275837 C108.914314,184.093556 114.604936,182.904905 118.860852,185.62091 Z" id="Rectangle-2" fill="#144A4E" fill-rule="nonzero"></path>
            <path d="M359.387639,196.944073 C363.643554,194.228068 369.334177,195.416719 372.098,199.599 C374.861824,203.78128 373.652245,209.373445 369.396329,212.089449 L253.80609,285.855869 C249.550175,288.571874 243.859552,287.383222 241.095729,283.200942 C238.331905,279.018662 239.541484,273.426497 243.7974,270.710492 L359.387639,196.944073 Z" id="Rectangle-2" fill="#144A4E" fill-rule="nonzero"></path>
            <rect id="Rectangle-7" fill="#144A4E" fill-rule="nonzero" x="236.613951" y="396.434545" width="22.6452615" height="216.762489"></rect>
            <path d="M170.693226,86.0661651 L243.245647,44.9027439 C247.640377,42.4093451 253.259897,43.8890387 255.797195,48.207732 C258.334494,52.5264254 256.828748,58.0487171 252.434018,60.5421159 L179.881597,101.705537 C175.486867,104.198936 169.867348,102.719242 167.330049,98.4005489 C164.792751,94.0818556 166.298496,88.5595639 170.693226,86.0661651 Z" id="Rectangle-2" fill="#144A4E" fill-rule="nonzero"></path>
            <path d="M280.924983,60.6395963 C285.228485,63.2821964 286.537195,68.8527646 283.848069,73.0818088 C281.158942,77.3108529 275.490296,78.5969199 271.186794,75.9543198 L245.976799,60.4739205 C241.673297,57.8313205 240.364587,52.2607522 243.053714,48.0317081 C245.74284,43.8026639 251.411486,42.5165969 255.714988,45.159197 L280.924983,60.6395963 Z" id="Rectangle-2" fill="#144A4E" fill-rule="nonzero"></path>
        </g>
    </g>
</svg>