<?xml version="1.0" encoding="UTF-8"?>
<svg width="2235px" height="1020px" viewBox="0 0 2235 1020" version="1.1" xmlns="http://www.w3.org/2000/svg" xmlns:xlink="http://www.w3.org/1999/xlink">
    <!-- Generator: Sketch 51.3 (57544) - http://www.bohemiancoding.com/sketch -->
    <title>[light] logo full (hor)</title>
    <desc>Created with Sketch.</desc>
    <defs>
        <path d="M10.8242389,127.880185 C14.3822789,125.764218 84.2403793,84.5169226 220.39854,4.13829922 C223.955247,1.6302173 227.775831,0.376176344 231.860291,0.376176344 C235.944751,0.376176344 239.816912,1.6302173 243.476773,4.13829922 L453.634033,127.880185 C459.520658,132.651691 462.463971,139.659148 462.463971,148.902555 C462.463971,158.145963 462.463971,257.357816 462.463971,446.538115 C462.19766,454.439926 459.254348,460.147999 453.634033,463.662334 C445.20356,468.933837 247.202505,588.469921 242.207167,591.055567 C234.860078,595.879779 226.802607,594.745488 220.39854,591.055567 C216.129162,588.59562 146.271061,546.131209 10.8242389,463.662334 C3.80432998,460.22588 0.294375538,454.517807 0.294375538,446.538115 C0.294375538,438.558422 0.294375538,339.346569 0.294375538,148.902555 C0.294375538,140.519728 3.80432998,133.512272 10.8242389,127.880185 Z" id="path-1"></path>
        <radialGradient cx="50%" cy="29.1447596%" fx="50%" fy="29.1447596%" r="50%" gradientTransform="translate(0.500000,0.291448),scale(0.991677,1.000000),rotate(90.000000),scale(1.000000,0.980340),translate(-0.500000,-0.291448)" id="radialGradient-3">
            <stop stop-color="#FFFFFF" offset="0%"></stop>
            <stop stop-color="#E9FCF0" stop-opacity="0.591931329" offset="29.302661%"></stop>
            <stop stop-color="#74EBA3" offset="100%"></stop>
        </radialGradient>
        <path d="M0.385253924,278.528202 L0.385253924,3.23360317 C0.956906161,0.532236567 2.28695631,-0.291238755 4.37540439,0.763177207 C6.46385246,1.81759317 60.6885728,34.702279 167.049566,99.4172348 C170.789318,101.72105 174.711055,101.72105 178.814777,99.4172348 C182.918498,97.1134192 237.094653,64.2287334 341.343242,0.763177207 C342.770153,1.25895372 343.483609,2.08242904 343.483609,3.23360317 C343.483609,4.3847773 343.483609,93.5435439 343.483609,270.709903 L343.483609,288.408468 L172.216885,391.424383 L0.385253924,288.408468 L0.385253924,278.528202 Z" id="path-4"></path>
    </defs>
    <g id="[light]-logo-full-(hor)" stroke="none" stroke-width="1" fill="none" fill-rule="evenodd">
        <path d="M956.350167,413.377955 L992.749609,413.377955 L1045.43893,517.40846 L1097.34183,413.377955 L1132.95487,413.377955 L1132.95487,565.716361 L1095.65667,565.716361 L1095.65667,466.404303 L1045.8883,565.716361 L1031.50827,565.716361 L980.054742,465.280863 L980.054742,565.716361 L956.350167,565.716361 L956.350167,413.377955 Z M1166.37432,592.903599 C1167.12328,593.278081 1168.11564,593.7649 1169.35143,594.364071 C1170.58722,594.963241 1171.93534,595.524956 1173.39582,596.04923 C1174.8563,596.573504 1176.41037,597.022876 1178.05809,597.397358 C1179.70581,597.771839 1181.35351,597.959077 1183.00122,597.959077 C1184.34936,597.959077 1185.69747,597.172677 1187.04561,595.599854 C1188.39374,594.027031 1189.66696,592.192098 1190.8653,590.095 C1192.06364,587.997903 1193.1309,585.900836 1194.0671,583.803739 C1195.00331,581.706641 1195.69609,580.171289 1196.14547,579.197636 L1206.14408,557.515252 L1150.08445,450.676149 L1186.93326,450.676149 L1223.22036,519.542995 L1255.35073,450.676149 L1279.95406,450.676149 L1216.36738,589.196249 C1214.27028,593.690029 1211.6115,597.771819 1208.39096,601.44174 C1205.17042,605.111661 1201.65034,608.238537 1197.83063,610.82246 C1194.01091,613.406384 1190.02274,615.409832 1185.866,616.832862 C1181.70925,618.255893 1177.60874,618.967397 1173.56433,618.967397 C1170.194,618.967397 1167.08585,618.574198 1164.23978,617.787786 C1161.39372,617.001374 1158.92218,615.821774 1156.82508,614.248951 L1166.37432,592.903599 Z M1305.1724,533.585989 C1307.1946,539.877283 1310.09679,544.764196 1313.87906,548.246876 C1317.66132,551.729556 1322.39845,553.47087 1328.09057,553.47087 C1330.48725,553.47087 1332.67794,553.171289 1334.66269,552.572118 C1336.64744,551.972948 1338.37003,551.130376 1339.83051,550.044379 C1341.29099,548.958382 1342.41442,547.703887 1343.20083,546.280857 C1343.98724,544.857826 1344.38044,543.322474 1344.38044,541.674754 C1344.38044,538.978486 1343.8749,536.563115 1342.8638,534.428569 C1341.8527,532.294023 1340.44841,530.365471 1338.6509,528.642855 C1336.85339,526.920239 1334.71888,525.328716 1332.2473,523.868237 C1329.77572,522.407758 1327.11694,521.040921 1324.27088,519.767683 C1319.7022,517.745481 1315.17104,515.554796 1310.67726,513.195561 C1306.18348,510.836326 1302.13913,508.140098 1298.54411,505.106796 C1294.94908,502.073494 1292.04689,498.60959 1289.83745,494.71498 C1287.62801,490.82037 1286.52331,486.326657 1286.52331,481.233705 C1286.52331,476.365443 1287.53439,471.927901 1289.55659,467.920946 C1291.57879,463.913992 1294.42481,460.487535 1298.09473,457.641474 C1301.76465,454.795413 1306.14602,452.586004 1311.23898,451.01318 C1316.33193,449.440357 1321.94907,448.653957 1328.09057,448.653957 C1333.7078,448.653957 1338.68833,449.178224 1343.03232,450.226773 C1347.3763,451.275322 1351.19596,452.773226 1354.4914,454.720531 C1357.78684,456.667836 1360.70775,459.045759 1363.25423,461.854372 C1365.8007,464.662985 1368.08501,467.827309 1370.10721,471.347437 L1349.8853,478.312762 C1348.83675,474.642841 1347.56353,471.796823 1346.0656,469.774621 C1344.56768,467.75242 1342.99488,466.235792 1341.34716,465.224691 C1339.69944,464.21359 1338.08919,463.595705 1336.51637,463.371016 C1334.94354,463.146327 1333.55798,463.033984 1332.35964,463.033984 C1330.18765,463.033984 1328.12803,463.277393 1326.18072,463.76422 C1324.23342,464.251046 1322.51083,464.943827 1321.0129,465.842583 C1319.51497,466.741339 1318.31665,467.846044 1317.41789,469.15673 C1316.51914,470.467416 1316.06977,471.984044 1316.06977,473.70666 C1316.06977,475.878654 1316.63148,477.938273 1317.75493,479.885578 C1318.87837,481.832883 1320.45117,483.649092 1322.47337,485.33426 C1324.49557,487.019427 1326.8735,488.610951 1329.60721,490.108878 C1332.34093,491.606805 1335.31802,493.029814 1338.53856,494.377948 C1343.40682,496.40015 1348.14394,498.647006 1352.75007,501.118586 C1357.35619,503.590165 1361.45671,506.380012 1365.05173,509.488211 C1368.64676,512.596409 1371.53022,516.041589 1373.70222,519.823855 C1375.87421,523.60612 1376.96019,527.818976 1376.96019,532.46255 C1376.96019,537.480605 1376.13634,542.161557 1374.48862,546.505545 C1372.8409,550.849533 1370.1634,554.631741 1366.45603,557.852284 C1362.74866,561.072827 1357.95537,563.619265 1352.076,565.491673 C1346.19664,567.364082 1339.06287,568.300272 1330.67448,568.300272 C1323.48443,568.300272 1317.39919,567.476425 1312.41859,565.828705 C1307.43798,564.180986 1303.22512,562.065196 1299.77989,559.481272 C1296.33466,556.897348 1293.48864,553.995158 1291.24175,550.774615 C1288.99486,547.554072 1287.01014,544.371025 1285.28752,541.225379 L1305.1724,533.585989 Z M1388.03321,465.056175 L1388.03321,456.855066 L1406.56997,450.676149 L1406.56997,427.308605 L1430.9486,414.501394 L1441.39659,414.501394 L1441.39659,450.676149 L1469.59493,450.676149 L1469.59493,465.056175 L1441.39659,465.056175 L1441.39659,539.090843 C1441.39659,541.41263 1441.99575,543.434801 1443.1941,545.157417 C1444.39244,546.880033 1445.96524,547.741328 1447.91254,547.741328 C1449.11088,547.741328 1450.44027,547.329404 1451.90075,546.505545 C1453.36123,545.681685 1454.74679,544.726771 1456.05748,543.640774 C1457.36817,542.554777 1458.52904,541.450072 1459.54014,540.326627 C1460.55124,539.203182 1461.28147,538.341887 1461.73085,537.742716 L1473.63931,547.179608 C1471.692,550.175462 1469.55749,552.965309 1467.2357,555.549233 C1464.91392,558.133157 1462.25514,560.36129 1459.25928,562.233699 C1456.26343,564.106107 1452.81825,565.585288 1448.92364,566.671285 C1445.02903,567.757282 1440.53531,568.300272 1435.44236,568.300272 C1430.5741,568.300272 1426.34252,567.607492 1422.7475,566.221909 C1419.15247,564.836327 1416.15666,562.907775 1413.75998,560.436195 C1411.3633,557.964616 1409.56581,555.006255 1408.36747,551.561023 C1407.16913,548.115791 1406.56997,544.296134 1406.56997,540.101939 L1406.56997,465.056175 L1388.03321,465.056175 Z M1492.23938,461.124137 L1516.73036,448.316925 L1527.17835,448.316925 L1527.17835,565.716361 L1492.23938,565.716361 L1492.23938,461.124137 Z M1490.7789,410.569356 C1490.7789,408.247569 1491.26572,406.03816 1492.23938,403.941062 C1493.21303,401.843964 1494.56114,400.046479 1496.28376,398.548552 C1498.00637,397.050625 1499.9911,395.852302 1502.23799,394.953545 C1504.48488,394.054789 1506.91897,393.605418 1509.54034,393.605418 C1512.16172,393.605418 1514.61454,394.054789 1516.89887,394.953545 C1519.18321,395.852302 1521.16794,397.050625 1522.8531,398.548552 C1524.53827,400.046479 1525.86766,401.843964 1526.84131,403.941062 C1527.81497,406.03816 1528.30179,408.247569 1528.30179,410.569356 C1528.30179,412.891142 1527.81497,415.081828 1526.84131,417.141477 C1525.86766,419.201127 1524.53827,420.979888 1522.8531,422.477815 C1521.16794,423.975742 1519.18321,425.174066 1516.89887,426.072822 C1514.61454,426.971578 1512.16172,427.420949 1509.54034,427.420949 C1506.91897,427.420949 1504.48488,426.971578 1502.23799,426.072822 C1499.9911,425.174066 1498.00637,423.975742 1496.28376,422.477815 C1494.56114,420.979888 1493.21303,419.201127 1492.23938,417.141477 C1491.26572,415.081828 1490.7789,412.891142 1490.7789,410.569356 Z M1591.05303,490.108878 L1636.2153,450.676149 L1661.38034,450.676149 L1611.05025,494.71498 L1672.16536,565.716361 L1630.93513,565.716361 L1591.05303,519.542995 L1591.05303,565.716361 L1556.00171,565.716361 L1556.00171,404.839814 L1580.60504,392.032603 L1591.05303,392.032603 L1591.05303,490.108878 Z M1739.97208,567.850897 C1730.83473,567.850897 1722.39029,566.352992 1714.63852,563.357138 C1706.88675,560.361284 1700.18363,556.242047 1694.52895,550.999303 C1688.87428,545.756559 1684.45546,539.596427 1681.27237,532.518722 C1678.08927,525.441017 1676.49775,517.782981 1676.49775,509.544382 C1676.49775,500.706614 1678.08927,492.561758 1681.27237,485.109572 C1684.45546,477.657385 1688.85556,471.23512 1694.47278,465.842583 C1700.09001,460.450046 1706.77441,456.23719 1714.52618,453.203888 C1722.27795,450.170586 1730.72239,448.653957 1739.85974,448.653957 C1748.9971,448.653957 1757.46026,450.133138 1765.24948,453.091544 C1773.0387,456.049949 1779.76054,460.113015 1785.41522,465.280863 C1791.06989,470.448711 1795.50743,476.533948 1798.72797,483.536756 C1801.94852,490.539565 1803.55876,498.085258 1803.55876,506.174064 C1803.55876,514.637351 1801.96724,522.613692 1798.78415,530.103327 C1795.60105,537.592961 1791.18223,544.12757 1785.52756,549.707347 C1779.87289,555.287125 1773.15104,559.705943 1765.36182,562.963934 C1757.5726,566.221926 1749.10944,567.850897 1739.97208,567.850897 Z M1744.01647,553.807902 C1747.16211,553.807902 1750.08303,552.778093 1752.7793,550.718443 C1755.47556,548.658794 1757.81604,545.88767 1759.80079,542.40499 C1761.78555,538.92231 1763.3209,534.896692 1764.4069,530.328015 C1765.49289,525.759338 1766.03588,521.003491 1766.03588,516.060332 C1766.03588,508.72049 1765.49289,501.811406 1764.4069,495.332872 C1763.3209,488.854338 1761.54214,483.181025 1759.07056,478.312762 C1756.59898,473.4445 1753.39721,469.587396 1749.46515,466.741335 C1745.53309,463.895273 1740.72107,462.472264 1735.02895,462.472264 C1732.25779,462.472264 1729.59901,463.48335 1727.05253,465.505551 C1724.50605,467.527752 1722.2592,470.242704 1720.31189,473.650488 C1718.36459,477.058272 1716.81051,480.990271 1715.64962,485.446604 C1714.48872,489.902936 1713.90829,494.602611 1713.90829,499.54577 C1713.90829,506.960509 1714.60107,513.963212 1715.98665,520.55409 C1717.37223,527.144969 1719.35696,532.893177 1721.94088,537.798888 C1724.5248,542.704599 1727.6704,546.59915 1731.37777,549.482659 C1735.08514,552.366169 1739.298,553.807902 1744.01647,553.807902 Z M1838.67339,533.585989 C1840.69559,539.877283 1843.59778,544.764196 1847.38005,548.246876 C1851.16232,551.729556 1855.89944,553.47087 1861.59156,553.47087 C1863.98824,553.47087 1866.17893,553.171289 1868.16368,552.572118 C1870.14844,551.972948 1871.87103,551.130376 1873.3315,550.044379 C1874.79198,548.958382 1875.91541,547.703887 1876.70182,546.280857 C1877.48823,544.857826 1877.88143,543.322474 1877.88143,541.674754 C1877.88143,538.978486 1877.37589,536.563115 1876.36479,534.428569 C1875.35369,532.294023 1873.9494,530.365471 1872.15189,528.642855 C1870.35438,526.920239 1868.21987,525.328716 1865.74829,523.868237 C1863.27671,522.407758 1860.61793,521.040921 1857.77187,519.767683 C1853.20319,517.745481 1848.67203,515.554796 1844.17825,513.195561 C1839.68447,510.836326 1835.64012,508.140098 1832.0451,505.106796 C1828.45007,502.073494 1825.54789,498.60959 1823.33844,494.71498 C1821.129,490.82037 1820.0243,486.326657 1820.0243,481.233705 C1820.0243,476.365443 1821.03538,471.927901 1823.05758,467.920946 C1825.07978,463.913992 1827.9258,460.487535 1831.59572,457.641474 C1835.26564,454.795413 1839.64702,452.586004 1844.73997,451.01318 C1849.83292,449.440357 1855.45006,448.653957 1861.59156,448.653957 C1867.20879,448.653957 1872.18932,449.178224 1876.53331,450.226773 C1880.87729,451.275322 1884.69695,452.773226 1887.99239,454.720531 C1891.28783,456.667836 1894.20874,459.045759 1896.75522,461.854372 C1899.3017,464.662985 1901.586,467.827309 1903.6082,471.347437 L1883.38629,478.312762 C1882.33774,474.642841 1881.06452,471.796823 1879.56659,469.774621 C1878.06867,467.75242 1876.49587,466.235792 1874.84815,465.224691 C1873.20043,464.21359 1871.59018,463.595705 1870.01736,463.371016 C1868.44453,463.146327 1867.05897,463.033984 1865.86063,463.033984 C1863.68864,463.033984 1861.62902,463.277393 1859.68171,463.76422 C1857.73441,464.251046 1856.01182,464.943827 1854.51389,465.842583 C1853.01596,466.741339 1851.81764,467.846044 1850.91888,469.15673 C1850.02013,470.467416 1849.57076,471.984044 1849.57076,473.70666 C1849.57076,475.878654 1850.13247,477.938273 1851.25592,479.885578 C1852.37936,481.832883 1853.95216,483.649092 1855.97436,485.33426 C1857.99656,487.019427 1860.37449,488.610951 1863.1082,490.108878 C1865.84192,491.606805 1868.81901,493.029814 1872.03955,494.377948 C1876.90781,496.40015 1881.64493,498.647006 1886.25106,501.118586 C1890.85718,503.590165 1894.9577,506.380012 1898.55272,509.488211 C1902.14775,512.596409 1905.03121,516.041589 1907.20321,519.823855 C1909.3752,523.60612 1910.46118,527.818976 1910.46118,532.46255 C1910.46118,537.480605 1909.63733,542.161557 1907.98962,546.505545 C1906.3419,550.849533 1903.66439,554.631741 1899.95702,557.852284 C1896.24965,561.072827 1891.45636,563.619265 1885.577,565.491673 C1879.69763,567.364082 1872.56386,568.300272 1864.17547,568.300272 C1856.98542,568.300272 1850.90019,567.476425 1845.91958,565.828705 C1840.93897,564.180986 1836.72612,562.065196 1833.28088,559.481272 C1829.83565,556.897348 1826.98963,553.995158 1824.74274,550.774615 C1822.49585,547.554072 1820.51113,544.371025 1818.78851,541.225379 L1838.67339,533.585989 Z" id="Mystikos" fill="#144A4E"></path>
        <g id="icon" transform="translate(256.114198, 190.000000)">
            <path d="M11.5268847,137.122143 C15.3965168,135.061802 91.3723745,90.8859305 239.454458,4.59452856 C243.322641,1.77019854 247.477808,0.35803353 251.919961,0.35803353 C256.362114,0.35803353 260.573375,1.77019854 264.553746,4.59452856 L493.115329,137.122143 C499.51747,141.768213 502.718541,148.591452 502.718541,157.591862 C502.718541,166.592272 502.718541,273.897079 502.718541,479.506282 C502.428909,487.200365 499.227838,492.75838 493.115329,496.180328 C483.946566,501.31325 266.477141,633.067756 262.532645,635.702942 C256.393736,640.1332 246.391292,640.1332 239.454458,635.702942 C234.829902,632.749436 158.854044,586.241898 11.5268847,496.180328 C3.89221394,492.834214 0.0748785434,487.276198 0.0748785434,479.506282 C0.0748785434,471.736366 0.0748785434,364.431559 0.0748785434,157.591862 C0.0748785434,149.429409 3.89221394,142.60617 11.5268847,137.122143 Z" id="Path-6" fill="#144A4E" fill-rule="nonzero"></path>
            <g id="Group" transform="translate(20.017537, 19.428786)">
                <mask id="mask-2" fill="white">
                    <use xlink:href="#path-1"></use>
                </mask>
                <use id="Path-6" fill="#FFFFFF" fill-rule="nonzero" xlink:href="#path-1"></use>
                <rect id="Rectangle" fill="url(#radialGradient-3)" fill-rule="nonzero" mask="url(#mask-2)" x="-18.1164798" y="111.755892" width="500.870989" height="496.702027"></rect>
                <path d="M35.7103185,536.401173 L35.7103185,277.058301 C35.4807569,270.794292 36.9088424,266.803109 39.994575,265.084752 C44.623174,262.507217 52.1532424,263.503128 55.2859145,265.084752 C57.3743626,266.139168 114.057698,301.976829 225.335922,372.597734 C229.075675,374.90155 232.997412,374.90155 237.101134,372.597734 C241.204855,370.293919 297.356618,334.829515 405.556421,266.204523 C410.844568,263.004007 415.404562,262.63075 419.236403,265.084752 C424.984165,268.765756 425.320009,275.331539 425.320009,277.058301 C425.320009,278.209475 425.320009,362.050999 425.320009,528.582874 L425.320009,546.28144 L230.503242,664.604883 L35.7103185,546.28144 L35.7103185,536.401173 Z" id="Path-7" fill="#144A4E" fill-rule="nonzero" mask="url(#mask-2)"></path>
                <g id="Group-2" mask="url(#mask-2)">
                    <g transform="translate(58.286357, 298.278710)">
                        <mask id="mask-5" fill="white">
                            <use xlink:href="#path-4"></use>
                        </mask>
                        <use id="Path-7" stroke="none" fill="#FFFFFF" fill-rule="nonzero" xlink:href="#path-4"></use>
                    </g>
                </g>
            </g>
            <path d="M25.7922377,149.130345 C29.433858,146.964672 100.932962,104.748456 240.289549,22.4816967 C243.929805,20.6972068 247.840136,19.8049619 252.020543,19.8049619 C256.200949,19.8049619 260.164068,21.0884609 263.909902,23.655459 L479.003866,150.304107 C485.028771,171.181037 488.041223,183.582699 488.041223,187.509094 C488.041223,189.042404 487.632374,196.951026 479.003866,202.34636 C470.375357,207.741693 267.723153,336.111553 262.610472,338.757938 C255.090796,343.695473 246.844051,342.534537 240.289549,338.757938 C235.919881,336.240205 164.420777,290.769679 25.7922377,202.34636 C18.9986816,197.389007 15.6019035,191.546848 15.6019035,184.819883 C15.6019035,174.729436 13.1601353,156.985009 25.7922377,149.130345 Z" id="Path-6" fill="#144A4E" fill-rule="nonzero"></path>
            <path d="M31.3802532,149.2347 C34.9099122,147.113982 104.546136,105.997692 240.288925,25.885831 C243.834336,23.385715 247.642785,22.135657 251.714272,22.135657 C255.78576,22.135657 259.645622,23.385715 263.293859,25.885831 C374.015173,90.1833193 443.845099,131.299609 472.783638,149.2347 C478.730887,153.009592 481.674786,159.955661 481.585531,164.321489 C481.674786,168.480961 481.187334,173.517416 472.783638,178.772176 C464.379941,184.026936 267.007758,309.052173 262.028286,311.629607 C254.704531,316.438497 246.672652,315.307808 240.288925,311.629607 C236.033106,309.177472 166.396883,264.891662 31.3802532,178.772176 C24.2331008,174.286244 20.6595247,168.978482 20.6595247,162.848893 C20.6595247,155.730248 25.8043139,152.584882 31.3802532,149.2347 Z" id="Path-6" fill="#FFFFFF" fill-rule="nonzero"></path>
            <g id="beams-right" transform="translate(329.618146, 464.578876) scale(-1, 1) translate(-329.618146, -464.578876) translate(237.118146, 317.078876)" fill-rule="nonzero">
                <polygon id="Path-10" fill="#BAF3F2" transform="translate(80.443377, 147.307027) scale(-1, 1) translate(-80.443377, -147.307027) " points="160.424644 0.229418027 160.424644 197.356224 0.462109031 294.384636 0.462109031 97.4386319"></polygon>
                <path d="M20.1850335,90.3819654 L168.526471,91.0575199 C173.767636,91.0813884 178.616243,93.8391913 181.31567,98.3317932 L182.501452,100.305266 C184.213294,103.154248 183.291459,106.851526 180.442476,108.563368 C179.49144,109.134808 178.400942,109.432216 177.291472,109.422733 L20.1848024,108.079768 C15.2954439,108.037973 11.3538589,104.062551 11.3538589,99.173014 L11.3538589,99.173014 C11.3538589,94.3178016 15.2897862,90.3818743 20.1449986,90.3818743 C20.1583436,90.3818743 20.1716886,90.3819047 20.1850335,90.3819654 Z" id="Rectangle-8" fill="#144A4E" transform="translate(97.357901, 99.902413) rotate(31.000000) translate(-97.357901, -99.902413) "></path>
                <path d="M46.1792252,140.880243 L170.683276,139.550321 C176.005682,139.493468 180.959605,142.261441 183.701003,146.823894 L184.80896,148.667844 C186.548036,151.562153 185.611535,155.318253 182.717227,157.057329 C181.775109,157.623411 180.697813,157.925055 179.59872,157.930514 L46.17962,158.593237 C41.3264731,158.617344 37.3726779,154.702633 37.3485712,149.849487 C37.348499,149.834937 37.3484628,149.820387 37.3484628,149.805838 L37.3484628,149.805838 C37.3484628,144.913279 41.2869462,140.932501 46.1792252,140.880243 Z" id="Rectangle-8" fill="#144A4E" transform="translate(111.515802, 149.071476) rotate(31.000000) translate(-111.515802, -149.071476) "></path>
                <path d="M74.4660219,189.985183 L170.333025,189.449466 C175.628391,189.419875 180.546997,192.184575 183.274355,196.723661 L184.408404,198.611036 C186.135447,201.485318 185.205426,205.215427 182.331145,206.94247 C181.385018,207.51096 180.301819,207.810779 179.198037,207.809685 L74.4661554,207.705823 C69.5873681,207.700985 65.6348936,203.744588 65.6348936,198.865799 L65.6348936,198.865799 C65.6348936,193.980463 69.580762,190.012483 74.4660219,189.985183 Z" id="Rectangle-8" fill="#144A4E" transform="translate(125.455715, 198.629497) rotate(31.000000) translate(-125.455715, -198.629497) "></path>
                <path d="M100.454843,237.887004 L172.009401,237.07742 C177.335155,237.017163 182.293471,239.785533 185.036613,244.350888 L186.141325,246.189438 C187.875425,249.075466 186.941604,252.82082 184.055576,254.554921 C183.111788,255.122006 182.032037,255.422904 180.930986,255.425664 L100.45538,255.62732 C95.5902284,255.639511 91.6363607,251.705409 91.6241695,246.840257 C91.6241511,246.832899 91.6241419,246.825541 91.6241419,246.818183 L91.6241419,246.818183 C91.6241419,241.924731 95.5617035,237.942366 100.454843,237.887004 Z" id="Rectangle-8" fill="#144A4E" transform="translate(139.318573, 246.351977) rotate(31.000000) translate(-139.318573, -246.351977) "></path>
            </g>
            <g id="beams-left" transform="translate(76.537640, 319.691835)" fill-rule="nonzero">
                <polygon id="Path-10" points="0.457302624 0 0.457302624 193.320929 165.175221 293.717074 165.175221 85.5155908"></polygon>
                <path d="M116.824669,112.000282 L167.272871,111.201006 C172.62255,111.116248 177.612368,113.887406 180.368003,118.473552 L181.449444,120.273372 C183.201269,123.1889 182.257903,126.972537 179.342375,128.724363 C178.40462,129.287823 177.333699,129.591318 176.239752,129.603635 L125.741438,130.172203 C120.415975,130.232164 115.458042,127.463827 112.715052,122.898725 L111.705338,121.21828 C109.974521,118.337715 110.906575,114.59945 113.787139,112.868632 C114.70554,112.316802 115.753367,112.017255 116.824669,112.000282 Z" id="Rectangle-8" fill="#144A4E" transform="translate(146.582671, 120.686167) rotate(31.000000) translate(-146.582671, -120.686167) "></path>
                <path d="M48.8516035,111.650494 L112.388506,111.227547 C117.689555,111.19226 122.615561,113.957657 125.345864,118.501644 L126.474446,120.379919 C128.209166,123.26698 127.275011,127.013673 124.387951,128.748394 C123.44437,129.315355 122.364924,129.616347 121.264115,129.619444 L57.6838375,129.798287 C52.4032559,129.81314 47.5038465,127.050277 44.7841352,122.523917 L43.7311815,120.771508 C42.0186904,117.921444 42.9408753,114.222762 45.7909392,112.510271 C46.7156964,111.954621 47.7727748,111.657675 48.8516035,111.650494 Z" id="Rectangle-8" fill="#144A4E" transform="translate(85.108401, 120.512805) rotate(31.000000) translate(-85.108401, -120.512805) "></path>
                <path d="M43.8906214,177.147515 L133.146239,177.109262 C138.41409,177.107004 143.297033,179.868258 146.010177,184.383689 L147.170581,186.314926 C148.894593,189.184164 147.966204,192.90773 145.096966,194.631742 C144.149847,195.200828 143.065178,195.500177 141.960241,195.49742 L52.6700703,195.274613 C47.4178652,195.261507 42.5550843,192.502263 39.8499903,188.000231 L38.7699665,186.202769 C37.0698468,183.373295 37.9853697,179.701333 40.814844,178.001214 C41.7437508,177.44307 42.8069279,177.14798 43.8906214,177.147515 Z" id="Rectangle-8" fill="#144A4E" transform="translate(92.976279, 186.303352) rotate(31.000000) translate(-92.976279, -186.303352) "></path>
                <path d="M28.8697692,118.749081 L44.4744758,119.008933 C49.650392,119.095123 54.4160742,121.844041 57.0822377,126.281282 L58.3293371,128.356804 C60.0069067,131.148749 59.1035272,134.772006 56.3115826,136.449576 C55.3501104,137.027287 54.2438276,137.318829 53.1225124,137.290004 L37.4200342,136.886337 C32.2933525,136.754544 27.5893142,134.012737 24.9480056,129.616862 L23.750577,127.624006 C22.0841616,124.850625 22.9815345,121.251459 25.7549154,119.585044 C26.6945413,119.020459 27.7737223,118.730829 28.8697692,118.749081 Z" id="Rectangle-8" fill="#144A4E" transform="translate(41.042761, 128.020110) rotate(31.000000) translate(-41.042761, -128.020110) "></path>
                <path d="M116.80509,240.917821 L162.455062,241.01091 C167.709711,241.021625 172.575634,243.781185 175.281984,248.285307 L176.454966,250.237477 C178.170072,253.091893 177.246479,256.796222 174.392063,258.511328 C173.442067,259.082143 172.353122,259.38008 171.24485,259.372408 L125.540669,259.056021 C120.312228,259.019827 115.479906,256.263707 112.786995,251.781951 L111.684456,249.947018 C109.989226,247.125682 110.902116,243.464282 113.723452,241.769052 C114.653967,241.209942 115.719522,240.915608 116.80509,240.917821 Z" id="Rectangle-8" fill="#144A4E" transform="translate(144.074707, 250.145180) rotate(31.000000) translate(-144.074707, -250.145180) "></path>
            </g>
            <path d="M120.519638,188.211379 L256.107864,274.739948 C260.423173,277.493857 261.649633,283.164064 258.847238,287.404711 C256.044844,291.645358 250.274805,292.850598 245.959495,290.096689 L110.371269,203.56812 C106.05596,200.814212 104.8295,195.144004 107.631895,190.903358 C110.434289,186.662711 116.204328,185.457471 120.519638,188.211379 Z" id="Rectangle-2" fill="#144A4E" fill-rule="nonzero"></path>
            <path d="M364.403145,199.692565 C368.718454,196.938657 374.488493,198.143896 377.290888,202.384543 C380.093283,206.62519 378.866823,212.295398 374.551513,215.049306 L257.348131,289.845188 C253.032822,292.599096 247.262783,291.393856 244.460388,287.153209 C241.657994,282.912562 242.884453,277.242355 247.199763,274.488447 L364.403145,199.692565 Z" id="Rectangle-2" fill="#144A4E" fill-rule="nonzero"></path>
            <rect id="Rectangle-7" fill="#144A4E" fill-rule="nonzero" x="239.916064" y="401.967066" width="22.961292" height="219.787561"></rect>
            <path d="M173.07537,87.2672786 L246.640311,45.529393 C251.096372,43.0011972 256.794316,44.5015409 259.367024,48.8805046 C261.939732,53.2594684 260.412973,58.8588275 255.956911,61.3870234 L182.39197,103.124909 C177.935909,105.653105 172.237965,104.152761 169.665257,99.7737974 C167.092549,95.3948337 168.619308,89.7954745 173.07537,87.2672786 Z" id="Rectangle-2" fill="#144A4E" fill-rule="nonzero"></path>
            <path d="M284.845488,61.4858643 C289.209048,64.1653436 290.536022,69.8136531 287.809367,74.1017165 C285.082712,78.3897799 279.334956,79.6937949 274.971395,77.0143155 L249.409578,61.3178764 C245.046017,58.638397 243.719043,52.9900876 246.445698,48.7020242 C249.172354,44.4139608 254.920109,43.1099458 259.28367,45.7894252 L284.845488,61.4858643 Z" id="Rectangle-2" fill="#144A4E" fill-rule="nonzero"></path>
        </g>
    </g>
</svg>