<?xml version="1.0" encoding="UTF-8"?>
<svg width="640px" height="640px" viewBox="0 0 640 640" version="1.1" xmlns="http://www.w3.org/2000/svg" xmlns:xlink="http://www.w3.org/1999/xlink">
    <!-- Generator: Sketch 51.3 (57544) - http://www.bohemiancoding.com/sketch -->
    <title>[light] icon sm</title>
    <desc>Created with Sketch.</desc>
    <defs>
        <path d="M10.8242389,127.880185 C14.3822789,125.764218 84.2403793,84.5169226 220.39854,4.13829922 C223.955247,1.6302173 227.775831,0.376176344 231.860291,0.376176344 C235.944751,0.376176344 239.816912,1.6302173 243.476773,4.13829922 L453.634033,127.880185 C459.520658,132.651691 462.463971,139.659148 462.463971,148.902555 C462.463971,158.145963 462.463971,257.357816 462.463971,446.538115 C462.19766,454.439926 459.254348,460.147999 453.634033,463.662334 C445.20356,468.933837 247.202505,588.469921 242.207167,591.055567 C234.860078,595.879779 226.802607,594.745488 220.39854,591.055567 C216.129162,588.59562 146.271061,546.131209 10.8242389,463.662334 C3.80432998,460.22588 0.294375538,454.517807 0.294375538,446.538115 C0.294375538,438.558422 0.294375538,339.346569 0.294375538,148.902555 C0.294375538,140.519728 3.80432998,133.512272 10.8242389,127.880185 Z" id="path-1"></path>
        <radialGradient cx="50%" cy="29.1447596%" fx="50%" fy="29.1447596%" r="50%" gradientTransform="translate(0.500000,0.291448),scale(0.991677,1.000000),rotate(90.000000),scale(1.000000,0.980340),translate(-0.500000,-0.291448)" id="radialGradient-3">
            <stop stop-color="#FFFFFF" offset="0%"></stop>
            <stop stop-color="#E9FCF0" stop-opacity="0.591931329" offset="29.302661%"></stop>
            <stop stop-color="#74EBA3" offset="100%"></stop>
        </radialGradient>
        <path d="M0.385253924,278.528202 L0.385253924,3.23360317 C0.956906161,0.532236567 2.28695631,-0.291238755 4.37540439,0.763177207 C6.46385246,1.81759317 60.6885728,34.702279 167.049566,99.4172348 C170.789318,101.72105 174.711055,101.72105 178.814777,99.4172348 C182.918498,97.1134192 237.094653,64.2287334 341.343242,0.763177207 C342.770153,1.25895372 343.483609,2.08242904 343.483609,3.23360317 C343.483609,4.3847773 343.483609,93.5435439 343.483609,270.709903 L343.483609,288.408468 L172.216885,391.424383 L0.385253924,288.408468 L0.385253924,278.528202 Z" id="path-4"></path>
    </defs>
    <g id="[light]-icon-sm" stroke="none" stroke-width="1" fill="none" fill-rule="evenodd">
        <g id="icon" transform="translate(68.607199, 0.000000)">
            <path d="M11.5268847,137.122143 C15.3965168,135.061802 91.3723745,90.8859305 239.454458,4.59452856 C243.322641,1.77019854 247.477808,0.35803353 251.919961,0.35803353 C256.362114,0.35803353 260.573375,1.77019854 264.553746,4.59452856 L493.115329,137.122143 C499.51747,141.768213 502.718541,148.591452 502.718541,157.591862 C502.718541,166.592272 502.718541,273.897079 502.718541,479.506282 C502.428909,487.200365 499.227838,492.75838 493.115329,496.180328 C483.946566,501.31325 266.477141,633.067756 262.532645,635.702942 C256.393736,640.1332 246.391292,640.1332 239.454458,635.702942 C234.829902,632.749436 158.854044,586.241898 11.5268847,496.180328 C3.89221394,492.834214 0.0748785434,487.276198 0.0748785434,479.506282 C0.0748785434,471.736366 0.0748785434,364.431559 0.0748785434,157.591862 C0.0748785434,149.429409 3.89221394,142.60617 11.5268847,137.122143 Z" id="Path-6" fill="#144A4E" fill-rule="nonzero"></path>
            <g id="Group" transform="translate(20.017537, 19.428786)">
                <mask id="mask-2" fill="white">
                    <use xlink:href="#path-1"></use>
                </mask>
                <use id="Path-6" fill="#FFFFFF" fill-rule="nonzero" xlink:href="#path-1"></use>
                <rect id="Rectangle" fill="url(#radialGradient-3)" fill-rule="nonzero" mask="url(#mask-2)" x="-18.1164798" y="111.755892" width="500.870989" height="496.702027"></rect>
                <path d="M35.7103185,536.401173 L35.7103185,277.058301 C35.4807569,270.794292 36.9088424,266.803109 39.994575,265.084752 C44.623174,262.507217 52.1532424,263.503128 55.2859145,265.084752 C57.3743626,266.139168 114.057698,301.976829 225.335922,372.597734 C229.075675,374.90155 232.997412,374.90155 237.101134,372.597734 C241.204855,370.293919 297.356618,334.829515 405.556421,266.204523 C410.844568,263.004007 415.404562,262.63075 419.236403,265.084752 C424.984165,268.765756 425.320009,275.331539 425.320009,277.058301 C425.320009,278.209475 425.320009,362.050999 425.320009,528.582874 L425.320009,546.28144 L230.503242,664.604883 L35.7103185,546.28144 L35.7103185,536.401173 Z" id="Path-7" fill="#144A4E" fill-rule="nonzero" mask="url(#mask-2)"></path>
                <g id="Group-2" mask="url(#mask-2)">
                    <g transform="translate(58.286357, 298.278710)">
                        <mask id="mask-5" fill="white">
                            <use xlink:href="#path-4"></use>
                        </mask>
                        <use id="Path-7" stroke="none" fill="#FFFFFF" fill-rule="nonzero" xlink:href="#path-4"></use>
                    </g>
                </g>
            </g>
            <path d="M25.7922377,149.130345 C29.433858,146.964672 100.932962,104.748456 240.289549,22.4816967 C243.929805,20.6972068 247.840136,19.8049619 252.020543,19.8049619 C256.200949,19.8049619 260.164068,21.0884609 263.909902,23.655459 L479.003866,150.304107 C485.028771,171.181037 488.041223,183.582699 488.041223,187.509094 C488.041223,189.042404 487.632374,196.951026 479.003866,202.34636 C470.375357,207.741693 267.723153,336.111553 262.610472,338.757938 C255.090796,343.695473 246.844051,342.534537 240.289549,338.757938 C235.919881,336.240205 164.420777,290.769679 25.7922377,202.34636 C18.9986816,197.389007 15.6019035,191.546848 15.6019035,184.819883 C15.6019035,174.729436 13.1601353,156.985009 25.7922377,149.130345 Z" id="Path-6" fill="#144A4E" fill-rule="nonzero"></path>
            <path d="M31.3802532,149.2347 C34.9099122,147.113982 104.546136,105.997692 240.288925,25.885831 C243.834336,23.385715 247.642785,22.135657 251.714272,22.135657 C255.78576,22.135657 259.645622,23.385715 263.293859,25.885831 C374.015173,90.1833193 443.845099,131.299609 472.783638,149.2347 C478.730887,153.009592 481.674786,159.955661 481.585531,164.321489 C481.674786,168.480961 481.187334,173.517416 472.783638,178.772176 C464.379941,184.026936 267.007758,309.052173 262.028286,311.629607 C254.704531,316.438497 246.672652,315.307808 240.288925,311.629607 C236.033106,309.177472 166.396883,264.891662 31.3802532,178.772176 C24.2331008,174.286244 20.6595247,168.978482 20.6595247,162.848893 C20.6595247,155.730248 25.8043139,152.584882 31.3802532,149.2347 Z" id="Path-6" fill="#FFFFFF" fill-rule="nonzero"></path>
            <g id="beams-right" transform="translate(329.618146, 464.578876) scale(-1, 1) translate(-329.618146, -464.578876) translate(237.118146, 317.078876)" fill-rule="nonzero">
                <polygon id="Path-10" fill="#BAF3F2" transform="translate(80.443377, 147.307027) scale(-1, 1) translate(-80.443377, -147.307027) " points="160.424644 0.229418027 160.424644 197.356224 0.462109031 294.384636 0.462109031 97.4386319"></polygon>
                <path d="M20.1850335,90.3819654 L168.526471,91.0575199 C173.767636,91.0813884 178.616243,93.8391913 181.31567,98.3317932 L182.501452,100.305266 C184.213294,103.154248 183.291459,106.851526 180.442476,108.563368 C179.49144,109.134808 178.400942,109.432216 177.291472,109.422733 L20.1848024,108.079768 C15.2954439,108.037973 11.3538589,104.062551 11.3538589,99.173014 L11.3538589,99.173014 C11.3538589,94.3178016 15.2897862,90.3818743 20.1449986,90.3818743 C20.1583436,90.3818743 20.1716886,90.3819047 20.1850335,90.3819654 Z" id="Rectangle-8" fill="#144A4E" transform="translate(97.357901, 99.902413) rotate(31.000000) translate(-97.357901, -99.902413) "></path>
                <path d="M46.1792252,140.880243 L170.683276,139.550321 C176.005682,139.493468 180.959605,142.261441 183.701003,146.823894 L184.80896,148.667844 C186.548036,151.562153 185.611535,155.318253 182.717227,157.057329 C181.775109,157.623411 180.697813,157.925055 179.59872,157.930514 L46.17962,158.593237 C41.3264731,158.617344 37.3726779,154.702633 37.3485712,149.849487 C37.348499,149.834937 37.3484628,149.820387 37.3484628,149.805838 L37.3484628,149.805838 C37.3484628,144.913279 41.2869462,140.932501 46.1792252,140.880243 Z" id="Rectangle-8" fill="#144A4E" transform="translate(111.515802, 149.071476) rotate(31.000000) translate(-111.515802, -149.071476) "></path>
                <path d="M74.4660219,189.985183 L170.333025,189.449466 C175.628391,189.419875 180.546997,192.184575 183.274355,196.723661 L184.408404,198.611036 C186.135447,201.485318 185.205426,205.215427 182.331145,206.94247 C181.385018,207.51096 180.301819,207.810779 179.198037,207.809685 L74.4661554,207.705823 C69.5873681,207.700985 65.6348936,203.744588 65.6348936,198.865799 L65.6348936,198.865799 C65.6348936,193.980463 69.580762,190.012483 74.4660219,189.985183 Z" id="Rectangle-8" fill="#144A4E" transform="translate(125.455715, 198.629497) rotate(31.000000) translate(-125.455715, -198.629497) "></path>
                <path d="M100.454843,237.887004 L172.009401,237.07742 C177.335155,237.017163 182.293471,239.785533 185.036613,244.350888 L186.141325,246.189438 C187.875425,249.075466 186.941604,252.82082 184.055576,254.554921 C183.111788,255.122006 182.032037,255.422904 180.930986,255.425664 L100.45538,255.62732 C95.5902284,255.639511 91.6363607,251.705409 91.6241695,246.840257 C91.6241511,246.832899 91.6241419,246.825541 91.6241419,246.818183 L91.6241419,246.818183 C91.6241419,241.924731 95.5617035,237.942366 100.454843,237.887004 Z" id="Rectangle-8" fill="#144A4E" transform="translate(139.318573, 246.351977) rotate(31.000000) translate(-139.318573, -246.351977) "></path>
            </g>
            <g id="beams-left" transform="translate(76.537640, 319.691835)" fill-rule="nonzero">
                <polygon id="Path-10" points="0.457302624 0 0.457302624 193.320929 165.175221 293.717074 165.175221 85.5155908"></polygon>
                <path d="M116.824669,112.000282 L167.272871,111.201006 C172.62255,111.116248 177.612368,113.887406 180.368003,118.473552 L181.449444,120.273372 C183.201269,123.1889 182.257903,126.972537 179.342375,128.724363 C178.40462,129.287823 177.333699,129.591318 176.239752,129.603635 L125.741438,130.172203 C120.415975,130.232164 115.458042,127.463827 112.715052,122.898725 L111.705338,121.21828 C109.974521,118.337715 110.906575,114.59945 113.787139,112.868632 C114.70554,112.316802 115.753367,112.017255 116.824669,112.000282 Z" id="Rectangle-8" fill="#144A4E" transform="translate(146.582671, 120.686167) rotate(31.000000) translate(-146.582671, -120.686167) "></path>
                <path d="M48.8516035,111.650494 L112.388506,111.227547 C117.689555,111.19226 122.615561,113.957657 125.345864,118.501644 L126.474446,120.379919 C128.209166,123.26698 127.275011,127.013673 124.387951,128.748394 C123.44437,129.315355 122.364924,129.616347 121.264115,129.619444 L57.6838375,129.798287 C52.4032559,129.81314 47.5038465,127.050277 44.7841352,122.523917 L43.7311815,120.771508 C42.0186904,117.921444 42.9408753,114.222762 45.7909392,112.510271 C46.7156964,111.954621 47.7727748,111.657675 48.8516035,111.650494 Z" id="Rectangle-8" fill="#144A4E" transform="translate(85.108401, 120.512805) rotate(31.000000) translate(-85.108401, -120.512805) "></path>
                <path d="M43.8906214,177.147515 L133.146239,177.109262 C138.41409,177.107004 143.297033,179.868258 146.010177,184.383689 L147.170581,186.314926 C148.894593,189.184164 147.966204,192.90773 145.096966,194.631742 C144.149847,195.200828 143.065178,195.500177 141.960241,195.49742 L52.6700703,195.274613 C47.4178652,195.261507 42.5550843,192.502263 39.8499903,188.000231 L38.7699665,186.202769 C37.0698468,183.373295 37.9853697,179.701333 40.814844,178.001214 C41.7437508,177.44307 42.8069279,177.14798 43.8906214,177.147515 Z" id="Rectangle-8" fill="#144A4E" transform="translate(92.976279, 186.303352) rotate(31.000000) translate(-92.976279, -186.303352) "></path>
                <path d="M28.8697692,118.749081 L44.4744758,119.008933 C49.650392,119.095123 54.4160742,121.844041 57.0822377,126.281282 L58.3293371,128.356804 C60.0069067,131.148749 59.1035272,134.772006 56.3115826,136.449576 C55.3501104,137.027287 54.2438276,137.318829 53.1225124,137.290004 L37.4200342,136.886337 C32.2933525,136.754544 27.5893142,134.012737 24.9480056,129.616862 L23.750577,127.624006 C22.0841616,124.850625 22.9815345,121.251459 25.7549154,119.585044 C26.6945413,119.020459 27.7737223,118.730829 28.8697692,118.749081 Z" id="Rectangle-8" fill="#144A4E" transform="translate(41.042761, 128.020110) rotate(31.000000) translate(-41.042761, -128.020110) "></path>
                <path d="M116.80509,240.917821 L162.455062,241.01091 C167.709711,241.021625 172.575634,243.781185 175.281984,248.285307 L176.454966,250.237477 C178.170072,253.091893 177.246479,256.796222 174.392063,258.511328 C173.442067,259.082143 172.353122,259.38008 171.24485,259.372408 L125.540669,259.056021 C120.312228,259.019827 115.479906,256.263707 112.786995,251.781951 L111.684456,249.947018 C109.989226,247.125682 110.902116,243.464282 113.723452,241.769052 C114.653967,241.209942 115.719522,240.915608 116.80509,240.917821 Z" id="Rectangle-8" fill="#144A4E" transform="translate(144.074707, 250.145180) rotate(31.000000) translate(-144.074707, -250.145180) "></path>
            </g>
            <path d="M120.519638,188.211379 L256.107864,274.739948 C260.423173,277.493857 261.649633,283.164064 258.847238,287.404711 C256.044844,291.645358 250.274805,292.850598 245.959495,290.096689 L110.371269,203.56812 C106.05596,200.814212 104.8295,195.144004 107.631895,190.903358 C110.434289,186.662711 116.204328,185.457471 120.519638,188.211379 Z" id="Rectangle-2" fill="#144A4E" fill-rule="nonzero"></path>
            <path d="M364.403145,199.692565 C368.718454,196.938657 374.488493,198.143896 377.290888,202.384543 C380.093283,206.62519 378.866823,212.295398 374.551513,215.049306 L257.348131,289.845188 C253.032822,292.599096 247.262783,291.393856 244.460388,287.153209 C241.657994,282.912562 242.884453,277.242355 247.199763,274.488447 L364.403145,199.692565 Z" id="Rectangle-2" fill="#144A4E" fill-rule="nonzero"></path>
            <rect id="Rectangle-7" fill="#144A4E" fill-rule="nonzero" x="239.916064" y="401.967066" width="22.961292" height="219.787561"></rect>
            <path d="M173.07537,87.2672786 L246.640311,45.529393 C251.096372,43.0011972 256.794316,44.5015409 259.367024,48.8805046 C261.939732,53.2594684 260.412973,58.8588275 255.956911,61.3870234 L182.39197,103.124909 C177.935909,105.653105 172.237965,104.152761 169.665257,99.7737974 C167.092549,95.3948337 168.619308,89.7954745 173.07537,87.2672786 Z" id="Rectangle-2" fill="#144A4E" fill-rule="nonzero"></path>
            <path d="M284.845488,61.4858643 C289.209048,64.1653436 290.536022,69.8136531 287.809367,74.1017165 C285.082712,78.3897799 279.334956,79.6937949 274.971395,77.0143155 L249.409578,61.3178764 C245.046017,58.638397 243.719043,52.9900876 246.445698,48.7020242 C249.172354,44.4139608 254.920109,43.1099458 259.28367,45.7894252 L284.845488,61.4858643 Z" id="Rectangle-2" fill="#144A4E" fill-rule="nonzero"></path>
        </g>
    </g>
</svg>