<?xml version="1.0" encoding="UTF-8"?>
<svg width="1280px" height="1280px" viewBox="0 0 1280 1280" version="1.1" xmlns="http://www.w3.org/2000/svg" xmlns:xlink="http://www.w3.org/1999/xlink">
    <!-- Generator: Sketch 51.3 (57544) - http://www.bohemiancoding.com/sketch -->
    <title>[light] icon </title>
    <desc>Created with Sketch.</desc>
    <defs>
        <path d="M18.4418614,217.876627 C24.5038933,214.271535 143.525048,143.99621 375.505324,7.05065192 C381.565085,2.77749243 388.074428,0.640912685 395.033351,0.640912685 C401.992274,0.640912685 408.589491,2.77749243 414.825001,7.05065192 L772.881683,217.876627 C782.911056,226.006109 787.925742,237.945104 787.925742,253.693615 C787.925742,269.442125 787.925742,438.47491 787.925742,760.79197 C787.472014,774.254728 782.457328,783.979891 772.881683,789.967461 C758.518215,798.948816 421.172739,1002.60913 412.661903,1007.01444 C400.144255,1015.23372 386.416292,1013.30117 375.505324,1007.01444 C368.231345,1002.82329 249.210191,930.474297 18.4418614,789.967461 C6.48164984,784.112582 0.501544075,774.387418 0.501544075,760.79197 C0.501544075,747.196522 0.501544075,578.163737 0.501544075,253.693615 C0.501544075,239.411324 6.48164984,227.472328 18.4418614,217.876627 Z" id="path-1"></path>
        <radialGradient cx="50%" cy="29.1447596%" fx="50%" fy="29.1447596%" r="50%" gradientTransform="translate(0.500000,0.291448),scale(0.991677,1.000000),rotate(90.000000),scale(1.000000,0.980340),translate(-0.500000,-0.291448)" id="radialGradient-3">
            <stop stop-color="#FFFFFF" offset="0%"></stop>
            <stop stop-color="#E9FCF0" stop-opacity="0.591931329" offset="29.302661%"></stop>
            <stop stop-color="#74EBA3" offset="100%"></stop>
        </radialGradient>
        <path d="M0.656378666,474.544082 L0.656378666,5.50927065 C1.63033457,0.906801218 3.89641543,-0.496199761 7.45462126,1.30026771 C11.0128271,3.09673518 103.398517,59.1242144 284.611691,169.382705 C290.983317,173.307845 297.665,173.307845 304.65674,169.382705 C311.64848,165.457566 403.951427,109.430087 581.565579,1.30026771 C583.996688,2.14494989 585.212243,3.54795087 585.212243,5.50927065 C585.212243,7.47059043 585.212243,159.37537 585.212243,461.223608 L585.212243,491.377644 L293.415543,666.891622 L0.656378666,491.377644 L0.656378666,474.544082 Z" id="path-4"></path>
    </defs>
    <g id="[light]-icon-" stroke="none" stroke-width="1" fill="none" fill-rule="evenodd">
        <g id="icon" transform="translate(213.000000, 97.000000)">
            <path d="M19.6389984,233.622668 C26.2319072,230.112349 155.676227,154.847445 407.971958,7.82795538 C414.562397,3.0159863 421.641789,0.610001757 429.210133,0.610001757 C436.778477,0.610001757 443.953439,3.0159863 450.735018,7.82795538 L840.148177,233.622668 C851.055863,241.538436 856.509705,253.163571 856.509705,268.498073 C856.509705,283.832575 856.509705,466.653778 856.509705,816.961682 C856.016243,830.070521 850.5624,839.540022 840.148177,845.370186 C824.526842,854.115433 454.012014,1078.59296 447.291556,1083.08267 C436.832354,1090.63075 419.790631,1090.63075 407.971958,1083.08267 C400.092842,1078.05062 270.648523,998.813123 19.6389984,845.370186 C6.63138266,839.669224 0.127574764,830.199723 0.127574764,816.961682 C0.127574764,803.723641 0.127574764,620.902438 0.127574764,268.498073 C0.127574764,254.591245 6.63138266,242.96611 19.6389984,233.622668 Z" id="Path-6" fill="#144A4E" fill-rule="nonzero"></path>
            <g id="Group" transform="translate(34.104997, 33.101909)">
                <mask id="mask-2" fill="white">
                    <use xlink:href="#path-1"></use>
                </mask>
                <use id="Path-6" fill="#FFFFFF" fill-rule="nonzero" xlink:href="#path-1"></use>
                <rect id="Rectangle" fill="url(#radialGradient-3)" fill-rule="nonzero" mask="url(#mask-2)" x="-30.8660603" y="190.404767" width="853.361928" height="846.259034"></rect>
                <path d="M60.8416677,913.896691 L60.8416677,472.039729 C60.4505506,461.367387 62.8836598,454.567385 68.1409952,451.639724 C76.0269982,447.248233 88.8563971,448.945023 94.1937058,451.639724 C97.7519117,453.436192 194.326482,514.494819 383.917418,634.815607 C390.289044,638.740747 396.970727,638.740747 403.962467,634.815607 C410.954207,630.890468 506.623107,570.467779 690.969166,453.547541 C699.978878,448.094642 707.747995,447.458703 714.276517,451.639724 C724.0693,457.911256 724.641496,469.097749 724.641496,472.039729 C724.641496,474.001048 724.641496,616.846545 724.641496,900.576218 L724.641496,930.730254 L392.72127,1132.32452 L60.8416677,930.730254 L60.8416677,913.896691 Z" id="Path-7" fill="#144A4E" fill-rule="nonzero" mask="url(#mask-2)"></path>
                <g id="Group-2" mask="url(#mask-2)">
                    <g transform="translate(99.305727, 508.194128)">
                        <mask id="mask-5" fill="white">
                            <use xlink:href="#path-4"></use>
                        </mask>
                        <use id="Path-7" stroke="none" fill="#FFFFFF" fill-rule="nonzero" xlink:href="#path-4"></use>
                    </g>
                </g>
            </g>
            <path d="M43.9436785,254.081712 C50.1481107,250.391935 171.965134,178.465805 409.394749,38.3033245 C415.596857,35.2629893 422.259107,33.7428216 429.381499,33.7428216 C436.503891,33.7428216 443.25608,35.9295908 449.638066,40.303129 L816.105686,256.081517 C826.370655,291.65071 831.503139,312.780116 831.503139,319.469735 C831.503139,322.082121 830.806559,335.556483 816.105686,344.748814 C801.404814,353.941146 456.134915,572.652059 447.424155,577.160853 C434.612461,585.573208 420.562021,583.595256 409.394749,577.160853 C401.949901,572.87125 280.132877,495.400571 43.9436785,344.748814 C32.3691168,336.302695 26.581836,326.349082 26.581836,314.887976 C26.581836,297.696316 22.4216589,267.464143 43.9436785,254.081712 Z" id="Path-6" fill="#144A4E" fill-rule="nonzero"></path>
            <path d="M53.4642931,254.259509 C59.4779706,250.646322 178.121101,180.594199 409.393685,44.1031386 C415.4342,39.8435511 421.922868,37.7137574 428.859689,37.7137574 C435.79651,37.7137574 442.372773,39.8435511 448.588479,44.1031386 C637.230576,153.650367 756.203728,223.70249 805.507936,254.259509 C815.640598,260.691002 820.656283,272.52541 820.504214,279.963716 C820.656283,287.05044 819.825784,295.63133 805.507936,304.584159 C791.190088,313.536988 454.916056,526.549478 446.432251,530.940797 C433.954361,539.133972 420.269999,537.207555 409.393685,530.940797 C402.14281,526.762958 283.499679,451.310746 53.4642931,304.584159 C41.2872898,296.941225 35.1987881,287.898095 35.1987881,277.45477 C35.1987881,265.326336 43.9642534,259.9674 53.4642931,254.259509 Z" id="Path-6" fill="#FFFFFF" fill-rule="nonzero"></path>
            <g id="beams-right" transform="translate(561.186302, 791.225023) scale(-1, 1) translate(-561.186302, -791.225023) translate(403.186302, 540.225023)" fill-rule="nonzero">
                <polygon id="Path-10" fill="#BAF3F2" transform="translate(137.055882, 250.975224) scale(-1, 1) translate(-137.055882, -250.975224) " points="273.324442 0.390872329 273.324442 336.246841 0.787321011 501.559576 0.787321011 166.011649"></polygon>
                <path d="M34.3903709,153.988811 L293.068715,155.166846 C298.30988,155.190714 303.158487,157.948517 305.857915,162.441119 L310.937936,170.895694 C313.854495,175.749664 312.283914,182.048924 307.429943,184.965484 C305.809609,185.939079 303.951667,186.44579 302.0614,186.429632 L34.2159877,184.140061 C25.9820455,184.069676 19.3442046,177.374852 19.3442046,169.140609 L19.3442046,168.966613 C19.3442046,160.694516 26.0500642,153.988656 34.3221612,153.988656 C34.3448978,153.988656 34.3676345,153.988708 34.3903709,153.988811 Z" id="Rectangle-8" fill="#144A4E" transform="translate(165.874103, 170.209331) rotate(31.000000) translate(-165.874103, -170.209331) "></path>
                <path d="M78.4889885,240.032337 L296.865983,237.699686 C302.188389,237.642833 307.142312,240.410807 309.88371,244.973259 L314.885906,253.298312 C317.848867,258.229507 316.253298,264.628985 311.322103,267.591946 C309.716964,268.556411 307.881513,269.070339 306.008928,269.07964 L78.6953424,270.208759 C70.4267645,270.249831 63.6904624,263.580119 63.6493905,255.311541 C63.6492673,255.286753 63.6492058,255.261963 63.6492058,255.237174 L63.6492058,255.031481 C63.6492058,246.809711 70.2676872,240.120155 78.4889885,240.032337 Z" id="Rectangle-8" fill="#144A4E" transform="translate(190.012251, 253.953887) rotate(31.000000) translate(-190.012251, -253.953887) "></path>
                <path d="M126.750661,323.691509 L296.225938,322.744459 C301.521304,322.714868 306.439911,325.479569 309.167269,330.018654 L314.195557,338.387131 C317.138016,343.284205 315.553487,349.639402 310.656414,352.581861 C309.044445,353.550429 307.198937,354.061248 305.318362,354.059384 L126.834489,353.867499 C118.55603,353.85929 111.849364,347.145969 111.849364,338.867507 L111.834481,338.691274 C111.834481,330.439718 118.499233,323.737619 126.750661,323.691509 Z" id="Rectangle-8" fill="#144A4E" transform="translate(213.754562, 338.401806) rotate(31.000000) translate(-213.754562, -338.401806) "></path>
                <path d="M170.952991,405.30869 L299.130744,403.858458 C304.456498,403.798201 309.414814,406.566572 312.157956,411.131927 L317.156907,419.451578 C320.111391,424.368665 318.520387,430.749835 313.6033,433.704319 C311.995315,434.670493 310.155683,435.183151 308.27976,435.187852 L171.160281,435.531447 C162.876035,435.552206 156.1435,428.853326 156.122741,420.569081 C156.122709,420.556552 156.122694,420.544023 156.122694,420.531494 L156.122694,420.30773 C156.122694,412.089656 162.735443,405.401666 170.952991,405.30869 Z" id="Rectangle-8" fill="#144A4E" transform="translate(237.382365, 419.694494) rotate(31.000000) translate(-237.382365, -419.694494) "></path>
            </g>
            <g id="beams-left" transform="translate(130.401460, 544.676866)" fill-rule="nonzero">
                <polygon id="Path-10" points="0.779132068 0 0.779132068 329.371684 281.418266 500.422213 281.418266 145.697697"></polygon>
                <path d="M199.047856,190.823125 L291.081888,189.364983 C296.431567,189.280225 301.421386,192.051383 304.17702,196.637529 L309.1527,204.918451 C312.137384,209.885799 310.530117,216.332193 305.56277,219.316876 C303.965064,220.276875 302.140475,220.793957 300.276656,220.814942 L208.18905,221.85177 C202.863586,221.911731 197.905654,219.143395 195.162663,214.578292 L190.325766,206.528343 C187.376874,201.620563 188.964867,195.251473 193.872646,192.302582 C195.437377,191.362397 197.222619,190.852043 199.047856,190.823125 Z" id="Rectangle-8" fill="#144A4E" transform="translate(249.748229, 205.607909) rotate(31.000000) translate(-249.748229, -205.607909) "></path>
                <path d="M83.2371601,190.226843 L197.507361,189.46618 C202.808409,189.430892 207.734416,192.19629 210.464719,196.740277 L215.487539,205.099654 C218.44308,210.0185 216.851507,216.401952 211.932661,219.357493 C210.325029,220.323455 208.485917,220.836273 206.610408,220.841548 L92.2930509,221.163108 C87.0124693,221.177962 82.1130599,218.415098 79.3933485,213.888739 L74.5132107,205.766825 C71.5955438,200.911012 73.1667218,194.609361 78.0225351,191.691694 C79.5980956,190.745002 81.3990992,190.239078 83.2371601,190.226843 Z" id="Rectangle-8" fill="#144A4E" transform="translate(145.009894, 205.314507) rotate(31.000000) translate(-145.009894, -205.314507) "></path>
                <path d="M74.7795692,301.816317 L232.824834,301.748581 C238.092685,301.746323 242.975628,304.507578 245.688772,309.023008 L250.743415,317.435347 C253.680711,322.323829 252.098963,328.667876 247.210481,331.605172 C245.596822,332.574756 243.748811,333.084773 241.866268,333.080076 L83.7825109,332.685608 C78.5303059,332.672502 73.667525,329.913258 70.962431,325.411225 L66.055223,317.24426 C63.1586339,312.423526 64.7184614,306.1674 69.5391951,303.270811 C71.1218256,302.31987 72.9332199,301.817108 74.7795692,301.816317 Z" id="Rectangle-8" fill="#144A4E" transform="translate(158.409550, 317.414344) rotate(31.000000) translate(-158.409550, -317.414344) "></path>
                <path d="M49.1870411,202.319453 L81.629855,202.859696 C86.8057712,202.945886 91.5714534,205.694804 94.2376169,210.132045 L99.3789553,218.688669 C102.237124,223.445462 100.697986,229.618608 95.941194,232.476777 C94.30308,233.461055 92.418244,233.957773 90.5077967,233.908661 L57.9618283,233.071994 C52.8351466,232.940202 48.1311083,230.198395 45.4897997,225.80252 L40.4651869,217.44016 C37.6260218,212.714995 39.1549262,206.582895 43.8800905,203.74373 C45.4809835,202.781816 47.3196447,202.288357 49.1870411,202.319453 Z" id="Rectangle-8" fill="#144A4E" transform="translate(69.926847, 218.115025) rotate(31.000000) translate(-69.926847, -218.115025) "></path>
                <path d="M199.007367,410.465172 L282.742056,410.635921 C287.996704,410.646637 292.862628,413.406197 295.568978,417.910319 L300.636199,426.343591 C303.558321,431.206819 301.984744,437.518091 297.121516,440.440213 C295.502954,441.412744 293.647657,441.920354 291.759433,441.907283 L207.966454,441.327226 C202.738013,441.291032 197.90569,438.534913 195.21278,434.053157 L190.283057,425.84872 C187.394799,421.041852 188.95014,414.80372 193.757008,411.915462 C195.342379,410.962875 197.157825,410.4614 199.007367,410.465172 Z" id="Rectangle-8" fill="#144A4E" transform="translate(245.468139, 426.186340) rotate(31.000000) translate(-245.468139, -426.186340) "></path>
            </g>
            <path d="M205.33605,320.666257 L436.345297,468.089822 C443.697531,472.78181 445.787119,482.442459 441.012523,489.667487 C436.237926,496.892514 426.407188,498.945949 419.054954,494.253961 L188.045706,346.830396 C180.693472,342.138409 178.603884,332.477759 183.378481,325.252731 C188.153078,318.027704 197.983816,315.97427 205.33605,320.666257 Z" id="Rectangle-2" fill="#144A4E" fill-rule="nonzero"></path>
            <path d="M620.854026,340.227396 C628.20626,335.535408 638.036999,337.588842 642.811595,344.81387 C647.586192,352.038897 645.496604,361.699547 638.14437,366.391535 L438.45841,493.825463 C431.106176,498.517451 421.275438,496.464017 416.500841,489.238989 C411.726245,482.013962 413.815833,472.353312 421.168067,467.661324 L620.854026,340.227396 Z" id="Rectangle-2" fill="#144A4E" fill-rule="nonzero"></path>
            <rect id="Rectangle-7" fill="#144A4E" fill-rule="nonzero" x="408.758421" y="684.853782" width="39.1204379" height="374.464365"></rect>
            <path d="M294.878191,148.682145 L420.214897,77.5709743 C427.806938,73.2635456 437.514843,75.8197652 441.89811,83.2804507 C446.281377,90.7411362 443.680152,100.281078 436.088111,104.588506 L310.751405,175.699677 C303.159364,180.007106 293.451458,177.450887 289.068191,169.990201 C284.684924,162.529516 287.28615,152.989574 294.878191,148.682145 Z" id="Rectangle-2" fill="#144A4E" fill-rule="nonzero"></path>
            <path d="M485.307195,104.756907 C492.741637,109.322086 495.002477,118.945427 490.356922,126.25124 C485.711366,133.557054 475.918593,135.778777 468.484151,131.213598 L424.933052,104.470697 C417.498609,99.9055178 415.23777,90.282177 419.883325,82.9763635 C424.52888,75.6705499 434.321653,73.4488266 441.756096,78.0140056 L485.307195,104.756907 Z" id="Rectangle-2" fill="#144A4E" fill-rule="nonzero"></path>
        </g>
    </g>
</svg>