<?xml version="1.0" encoding="UTF-8"?>
<svg width="2235px" height="1020px" viewBox="0 0 2235 1020" version="1.1" xmlns="http://www.w3.org/2000/svg" xmlns:xlink="http://www.w3.org/1999/xlink">
    <!-- Generator: Sketch 51.3 (57544) - http://www.bohemiancoding.com/sketch -->
    <title>[dark] logo full (hor)</title>
    <desc>Created with Sketch.</desc>
    <defs>
        <path d="M10.838741,128.051517 C14.4015481,125.932715 84.3532434,84.6301572 220.693827,4.14384365 C224.255299,1.63240144 228.081002,0.37668034 232.170934,0.37668034 C236.260866,0.37668034 240.138215,1.63240144 243.80298,4.14384365 L454.241805,128.051517 C460.136317,132.829416 463.083573,139.846261 463.083573,149.102053 C463.083573,158.357844 463.083573,257.70262 463.083573,447.13638 C462.816906,455.048778 459.86965,460.764499 454.241805,464.283542 C445.800038,469.562108 247.533703,589.258344 242.531673,591.847455 C235.17474,596.678131 227.106474,595.54232 220.693827,591.847455 C216.418728,589.384212 146.467033,546.862908 10.838741,464.283542 C3.80942696,460.842484 0.294769938,455.126763 0.294769938,447.13638 C0.294769938,439.145997 0.294769938,339.801221 0.294769938,149.102053 C0.294769938,140.707995 3.80942696,133.69115 10.838741,128.051517 Z" id="path-1"></path>
        <radialGradient cx="50%" cy="29.1447596%" fx="50%" fy="29.1447596%" r="50%" gradientTransform="translate(0.500000,0.291448),scale(0.991677,1.000000),rotate(90.000000),scale(1.000000,0.980340),translate(-0.500000,-0.291448)" id="radialGradient-3">
            <stop stop-color="#FFFFFF" offset="0%"></stop>
            <stop stop-color="#E9FCF0" stop-opacity="0.591931329" offset="29.302661%"></stop>
            <stop stop-color="#74EBA3" offset="100%"></stop>
        </radialGradient>
        <path d="M0.385770082,278.90137 L0.385770082,3.23793551 C0.95818821,0.53294965 2.29002035,-0.291628952 4.38126649,0.764199701 C6.47251263,1.82002835 60.7698825,34.7487727 167.273376,99.5504326 C171.018139,101.857335 174.945131,101.857335 179.05435,99.5504326 C183.16357,97.2435304 237.412309,64.3147861 341.800568,0.764199701 C343.229392,1.26064045 343.943804,2.08521905 343.943804,3.23793551 C343.943804,4.39065197 343.943804,93.6688722 343.943804,271.072596 L343.943804,288.794874 L172.447619,391.948808 L0.385770082,288.794874 L0.385770082,278.90137 Z" id="path-4"></path>
    </defs>
    <g id="[dark]-logo-full-(hor)" stroke="none" stroke-width="1" fill="none" fill-rule="evenodd">
        <path d="M956.350167,413.377955 L992.749609,413.377955 L1045.43893,517.40846 L1097.34183,413.377955 L1132.95487,413.377955 L1132.95487,565.716361 L1095.65667,565.716361 L1095.65667,466.404303 L1045.8883,565.716361 L1031.50827,565.716361 L980.054742,465.280863 L980.054742,565.716361 L956.350167,565.716361 L956.350167,413.377955 Z M1166.37432,592.903599 C1167.12328,593.278081 1168.11564,593.7649 1169.35143,594.364071 C1170.58722,594.963241 1171.93534,595.524956 1173.39582,596.04923 C1174.8563,596.573504 1176.41037,597.022876 1178.05809,597.397358 C1179.70581,597.771839 1181.35351,597.959077 1183.00122,597.959077 C1184.34936,597.959077 1185.69747,597.172677 1187.04561,595.599854 C1188.39374,594.027031 1189.66696,592.192098 1190.8653,590.095 C1192.06364,587.997903 1193.1309,585.900836 1194.0671,583.803739 C1195.00331,581.706641 1195.69609,580.171289 1196.14547,579.197636 L1206.14408,557.515252 L1150.08445,450.676149 L1186.93326,450.676149 L1223.22036,519.542995 L1255.35073,450.676149 L1279.95406,450.676149 L1216.36738,589.196249 C1214.27028,593.690029 1211.6115,597.771819 1208.39096,601.44174 C1205.17042,605.111661 1201.65034,608.238537 1197.83063,610.82246 C1194.01091,613.406384 1190.02274,615.409832 1185.866,616.832862 C1181.70925,618.255893 1177.60874,618.967397 1173.56433,618.967397 C1170.194,618.967397 1167.08585,618.574198 1164.23978,617.787786 C1161.39372,617.001374 1158.92218,615.821774 1156.82508,614.248951 L1166.37432,592.903599 Z M1305.1724,533.585989 C1307.1946,539.877283 1310.09679,544.764196 1313.87906,548.246876 C1317.66132,551.729556 1322.39845,553.47087 1328.09057,553.47087 C1330.48725,553.47087 1332.67794,553.171289 1334.66269,552.572118 C1336.64744,551.972948 1338.37003,551.130376 1339.83051,550.044379 C1341.29099,548.958382 1342.41442,547.703887 1343.20083,546.280857 C1343.98724,544.857826 1344.38044,543.322474 1344.38044,541.674754 C1344.38044,538.978486 1343.8749,536.563115 1342.8638,534.428569 C1341.8527,532.294023 1340.44841,530.365471 1338.6509,528.642855 C1336.85339,526.920239 1334.71888,525.328716 1332.2473,523.868237 C1329.77572,522.407758 1327.11694,521.040921 1324.27088,519.767683 C1319.7022,517.745481 1315.17104,515.554796 1310.67726,513.195561 C1306.18348,510.836326 1302.13913,508.140098 1298.54411,505.106796 C1294.94908,502.073494 1292.04689,498.60959 1289.83745,494.71498 C1287.62801,490.82037 1286.52331,486.326657 1286.52331,481.233705 C1286.52331,476.365443 1287.53439,471.927901 1289.55659,467.920946 C1291.57879,463.913992 1294.42481,460.487535 1298.09473,457.641474 C1301.76465,454.795413 1306.14602,452.586004 1311.23898,451.01318 C1316.33193,449.440357 1321.94907,448.653957 1328.09057,448.653957 C1333.7078,448.653957 1338.68833,449.178224 1343.03232,450.226773 C1347.3763,451.275322 1351.19596,452.773226 1354.4914,454.720531 C1357.78684,456.667836 1360.70775,459.045759 1363.25423,461.854372 C1365.8007,464.662985 1368.08501,467.827309 1370.10721,471.347437 L1349.8853,478.312762 C1348.83675,474.642841 1347.56353,471.796823 1346.0656,469.774621 C1344.56768,467.75242 1342.99488,466.235792 1341.34716,465.224691 C1339.69944,464.21359 1338.08919,463.595705 1336.51637,463.371016 C1334.94354,463.146327 1333.55798,463.033984 1332.35964,463.033984 C1330.18765,463.033984 1328.12803,463.277393 1326.18072,463.76422 C1324.23342,464.251046 1322.51083,464.943827 1321.0129,465.842583 C1319.51497,466.741339 1318.31665,467.846044 1317.41789,469.15673 C1316.51914,470.467416 1316.06977,471.984044 1316.06977,473.70666 C1316.06977,475.878654 1316.63148,477.938273 1317.75493,479.885578 C1318.87837,481.832883 1320.45117,483.649092 1322.47337,485.33426 C1324.49557,487.019427 1326.8735,488.610951 1329.60721,490.108878 C1332.34093,491.606805 1335.31802,493.029814 1338.53856,494.377948 C1343.40682,496.40015 1348.14394,498.647006 1352.75007,501.118586 C1357.35619,503.590165 1361.45671,506.380012 1365.05173,509.488211 C1368.64676,512.596409 1371.53022,516.041589 1373.70222,519.823855 C1375.87421,523.60612 1376.96019,527.818976 1376.96019,532.46255 C1376.96019,537.480605 1376.13634,542.161557 1374.48862,546.505545 C1372.8409,550.849533 1370.1634,554.631741 1366.45603,557.852284 C1362.74866,561.072827 1357.95537,563.619265 1352.076,565.491673 C1346.19664,567.364082 1339.06287,568.300272 1330.67448,568.300272 C1323.48443,568.300272 1317.39919,567.476425 1312.41859,565.828705 C1307.43798,564.180986 1303.22512,562.065196 1299.77989,559.481272 C1296.33466,556.897348 1293.48864,553.995158 1291.24175,550.774615 C1288.99486,547.554072 1287.01014,544.371025 1285.28752,541.225379 L1305.1724,533.585989 Z M1388.03321,465.056175 L1388.03321,456.855066 L1406.56997,450.676149 L1406.56997,427.308605 L1430.9486,414.501394 L1441.39659,414.501394 L1441.39659,450.676149 L1469.59493,450.676149 L1469.59493,465.056175 L1441.39659,465.056175 L1441.39659,539.090843 C1441.39659,541.41263 1441.99575,543.434801 1443.1941,545.157417 C1444.39244,546.880033 1445.96524,547.741328 1447.91254,547.741328 C1449.11088,547.741328 1450.44027,547.329404 1451.90075,546.505545 C1453.36123,545.681685 1454.74679,544.726771 1456.05748,543.640774 C1457.36817,542.554777 1458.52904,541.450072 1459.54014,540.326627 C1460.55124,539.203182 1461.28147,538.341887 1461.73085,537.742716 L1473.63931,547.179608 C1471.692,550.175462 1469.55749,552.965309 1467.2357,555.549233 C1464.91392,558.133157 1462.25514,560.36129 1459.25928,562.233699 C1456.26343,564.106107 1452.81825,565.585288 1448.92364,566.671285 C1445.02903,567.757282 1440.53531,568.300272 1435.44236,568.300272 C1430.5741,568.300272 1426.34252,567.607492 1422.7475,566.221909 C1419.15247,564.836327 1416.15666,562.907775 1413.75998,560.436195 C1411.3633,557.964616 1409.56581,555.006255 1408.36747,551.561023 C1407.16913,548.115791 1406.56997,544.296134 1406.56997,540.101939 L1406.56997,465.056175 L1388.03321,465.056175 Z M1492.23938,461.124137 L1516.73036,448.316925 L1527.17835,448.316925 L1527.17835,565.716361 L1492.23938,565.716361 L1492.23938,461.124137 Z M1490.7789,410.569356 C1490.7789,408.247569 1491.26572,406.03816 1492.23938,403.941062 C1493.21303,401.843964 1494.56114,400.046479 1496.28376,398.548552 C1498.00637,397.050625 1499.9911,395.852302 1502.23799,394.953545 C1504.48488,394.054789 1506.91897,393.605418 1509.54034,393.605418 C1512.16172,393.605418 1514.61454,394.054789 1516.89887,394.953545 C1519.18321,395.852302 1521.16794,397.050625 1522.8531,398.548552 C1524.53827,400.046479 1525.86766,401.843964 1526.84131,403.941062 C1527.81497,406.03816 1528.30179,408.247569 1528.30179,410.569356 C1528.30179,412.891142 1527.81497,415.081828 1526.84131,417.141477 C1525.86766,419.201127 1524.53827,420.979888 1522.8531,422.477815 C1521.16794,423.975742 1519.18321,425.174066 1516.89887,426.072822 C1514.61454,426.971578 1512.16172,427.420949 1509.54034,427.420949 C1506.91897,427.420949 1504.48488,426.971578 1502.23799,426.072822 C1499.9911,425.174066 1498.00637,423.975742 1496.28376,422.477815 C1494.56114,420.979888 1493.21303,419.201127 1492.23938,417.141477 C1491.26572,415.081828 1490.7789,412.891142 1490.7789,410.569356 Z M1591.05303,490.108878 L1636.2153,450.676149 L1661.38034,450.676149 L1611.05025,494.71498 L1672.16536,565.716361 L1630.93513,565.716361 L1591.05303,519.542995 L1591.05303,565.716361 L1556.00171,565.716361 L1556.00171,404.839814 L1580.60504,392.032603 L1591.05303,392.032603 L1591.05303,490.108878 Z M1739.97208,567.850897 C1730.83473,567.850897 1722.39029,566.352992 1714.63852,563.357138 C1706.88675,560.361284 1700.18363,556.242047 1694.52895,550.999303 C1688.87428,545.756559 1684.45546,539.596427 1681.27237,532.518722 C1678.08927,525.441017 1676.49775,517.782981 1676.49775,509.544382 C1676.49775,500.706614 1678.08927,492.561758 1681.27237,485.109572 C1684.45546,477.657385 1688.85556,471.23512 1694.47278,465.842583 C1700.09001,460.450046 1706.77441,456.23719 1714.52618,453.203888 C1722.27795,450.170586 1730.72239,448.653957 1739.85974,448.653957 C1748.9971,448.653957 1757.46026,450.133138 1765.24948,453.091544 C1773.0387,456.049949 1779.76054,460.113015 1785.41522,465.280863 C1791.06989,470.448711 1795.50743,476.533948 1798.72797,483.536756 C1801.94852,490.539565 1803.55876,498.085258 1803.55876,506.174064 C1803.55876,514.637351 1801.96724,522.613692 1798.78415,530.103327 C1795.60105,537.592961 1791.18223,544.12757 1785.52756,549.707347 C1779.87289,555.287125 1773.15104,559.705943 1765.36182,562.963934 C1757.5726,566.221926 1749.10944,567.850897 1739.97208,567.850897 Z M1744.01647,553.807902 C1747.16211,553.807902 1750.08303,552.778093 1752.7793,550.718443 C1755.47556,548.658794 1757.81604,545.88767 1759.80079,542.40499 C1761.78555,538.92231 1763.3209,534.896692 1764.4069,530.328015 C1765.49289,525.759338 1766.03588,521.003491 1766.03588,516.060332 C1766.03588,508.72049 1765.49289,501.811406 1764.4069,495.332872 C1763.3209,488.854338 1761.54214,483.181025 1759.07056,478.312762 C1756.59898,473.4445 1753.39721,469.587396 1749.46515,466.741335 C1745.53309,463.895273 1740.72107,462.472264 1735.02895,462.472264 C1732.25779,462.472264 1729.59901,463.48335 1727.05253,465.505551 C1724.50605,467.527752 1722.2592,470.242704 1720.31189,473.650488 C1718.36459,477.058272 1716.81051,480.990271 1715.64962,485.446604 C1714.48872,489.902936 1713.90829,494.602611 1713.90829,499.54577 C1713.90829,506.960509 1714.60107,513.963212 1715.98665,520.55409 C1717.37223,527.144969 1719.35696,532.893177 1721.94088,537.798888 C1724.5248,542.704599 1727.6704,546.59915 1731.37777,549.482659 C1735.08514,552.366169 1739.298,553.807902 1744.01647,553.807902 Z M1838.67339,533.585989 C1840.69559,539.877283 1843.59778,544.764196 1847.38005,548.246876 C1851.16232,551.729556 1855.89944,553.47087 1861.59156,553.47087 C1863.98824,553.47087 1866.17893,553.171289 1868.16368,552.572118 C1870.14844,551.972948 1871.87103,551.130376 1873.3315,550.044379 C1874.79198,548.958382 1875.91541,547.703887 1876.70182,546.280857 C1877.48823,544.857826 1877.88143,543.322474 1877.88143,541.674754 C1877.88143,538.978486 1877.37589,536.563115 1876.36479,534.428569 C1875.35369,532.294023 1873.9494,530.365471 1872.15189,528.642855 C1870.35438,526.920239 1868.21987,525.328716 1865.74829,523.868237 C1863.27671,522.407758 1860.61793,521.040921 1857.77187,519.767683 C1853.20319,517.745481 1848.67203,515.554796 1844.17825,513.195561 C1839.68447,510.836326 1835.64012,508.140098 1832.0451,505.106796 C1828.45007,502.073494 1825.54789,498.60959 1823.33844,494.71498 C1821.129,490.82037 1820.0243,486.326657 1820.0243,481.233705 C1820.0243,476.365443 1821.03538,471.927901 1823.05758,467.920946 C1825.07978,463.913992 1827.9258,460.487535 1831.59572,457.641474 C1835.26564,454.795413 1839.64702,452.586004 1844.73997,451.01318 C1849.83292,449.440357 1855.45006,448.653957 1861.59156,448.653957 C1867.20879,448.653957 1872.18932,449.178224 1876.53331,450.226773 C1880.87729,451.275322 1884.69695,452.773226 1887.99239,454.720531 C1891.28783,456.667836 1894.20874,459.045759 1896.75522,461.854372 C1899.3017,464.662985 1901.586,467.827309 1903.6082,471.347437 L1883.38629,478.312762 C1882.33774,474.642841 1881.06452,471.796823 1879.56659,469.774621 C1878.06867,467.75242 1876.49587,466.235792 1874.84815,465.224691 C1873.20043,464.21359 1871.59018,463.595705 1870.01736,463.371016 C1868.44453,463.146327 1867.05897,463.033984 1865.86063,463.033984 C1863.68864,463.033984 1861.62902,463.277393 1859.68171,463.76422 C1857.73441,464.251046 1856.01182,464.943827 1854.51389,465.842583 C1853.01596,466.741339 1851.81764,467.846044 1850.91888,469.15673 C1850.02013,470.467416 1849.57076,471.984044 1849.57076,473.70666 C1849.57076,475.878654 1850.13247,477.938273 1851.25592,479.885578 C1852.37936,481.832883 1853.95216,483.649092 1855.97436,485.33426 C1857.99656,487.019427 1860.37449,488.610951 1863.1082,490.108878 C1865.84192,491.606805 1868.81901,493.029814 1872.03955,494.377948 C1876.90781,496.40015 1881.64493,498.647006 1886.25106,501.118586 C1890.85718,503.590165 1894.9577,506.380012 1898.55272,509.488211 C1902.14775,512.596409 1905.03121,516.041589 1907.20321,519.823855 C1909.3752,523.60612 1910.46118,527.818976 1910.46118,532.46255 C1910.46118,537.480605 1909.63733,542.161557 1907.98962,546.505545 C1906.3419,550.849533 1903.66439,554.631741 1899.95702,557.852284 C1896.24965,561.072827 1891.45636,563.619265 1885.577,565.491673 C1879.69763,567.364082 1872.56386,568.300272 1864.17547,568.300272 C1856.98542,568.300272 1850.90019,567.476425 1845.91958,565.828705 C1840.93897,564.180986 1836.72612,562.065196 1833.28088,559.481272 C1829.83565,556.897348 1826.98963,553.995158 1824.74274,550.774615 C1822.49585,547.554072 1820.51113,544.371025 1818.78851,541.225379 L1838.67339,533.585989 Z" id="Mystikos" fill="#FFFFFF"></path>
        <g id="icon" transform="translate(250.114198, 191.000000)">
            <path d="M11.5423283,137.305858 C15.4171449,135.242756 91.494794,91.0076982 239.775276,4.60068424 C243.648641,1.77257023 247.809376,0.358513218 252.25748,0.358513218 C256.705584,0.358513218 260.922488,1.77257023 264.908191,4.60068424 L493.775998,137.305858 C500.186717,141.958152 503.392076,148.790533 503.392076,157.803001 C503.392076,166.81547 503.392076,274.264042 503.392076,480.148718 C503.102056,487.853109 499.896697,493.418571 493.775998,496.845103 C484.594951,501.984902 266.834163,633.915931 262.884382,636.554648 C256.737249,640.990842 246.721404,640.990842 239.775276,636.554648 C235.144523,633.597185 159.066874,587.027337 11.5423283,496.845103 C3.89742867,493.494506 0.0749788646,487.929044 0.0749788646,480.148718 C0.0749788646,472.368392 0.0749788646,364.919819 0.0749788646,157.803001 C0.0749788646,149.629612 3.89742867,142.797231 11.5423283,137.305858 Z" id="Path-6" fill="#144A4E" fill-rule="nonzero"></path>
            <g id="Group" transform="translate(20.044356, 19.454816)">
                <mask id="mask-2" fill="white">
                    <use xlink:href="#path-1"></use>
                </mask>
                <use id="Path-6" fill="#FFFFFF" fill-rule="nonzero" xlink:href="#path-1"></use>
                <rect id="Rectangle" fill="url(#radialGradient-3)" fill-rule="nonzero" mask="url(#mask-2)" x="-18.140752" y="111.905621" width="501.542049" height="497.367501"></rect>
                <path d="M35.7581627,537.119836 L35.7581627,277.429499 C35.5282935,271.157098 36.9582923,267.160568 40.0481592,265.439909 C44.6829595,262.85892 52.2231166,263.856166 55.3599858,265.439909 C57.4512319,266.495738 114.210511,302.381413 225.637824,373.096935 C229.382587,375.403838 233.309579,375.403838 237.418798,373.096935 C241.528018,370.790033 297.755012,335.278115 406.09978,266.56118 C411.395012,263.356376 415.961115,262.982619 419.79809,265.439909 C425.553553,269.125844 425.889846,275.700425 425.889846,277.429499 C425.889846,278.582216 425.889846,362.53607 425.889846,529.291062 L425.889846,547.01334 L230.812067,665.495311 L35.7581627,547.01334 L35.7581627,537.119836 Z" id="Path-7" fill="#144A4E" fill-rule="nonzero" mask="url(#mask-2)"></path>
                <g id="Group-2" mask="url(#mask-2)">
                    <g transform="translate(58.364448, 298.678340)">
                        <mask id="mask-5" fill="white">
                            <use xlink:href="#path-4"></use>
                        </mask>
                        <use id="Path-7" stroke="none" fill="#FFFFFF" fill-rule="nonzero" xlink:href="#path-4"></use>
                    </g>
                </g>
            </g>
            <path d="M25.8267938,149.330147 C29.4732931,147.161573 101.06819,104.888797 240.611485,22.5118174 C244.256619,20.7249366 248.172189,19.8314963 252.358196,19.8314963 C256.544203,19.8314963 260.512633,21.1167149 264.263485,23.6871522 L479.645628,150.505482 C485.678605,171.410382 488.695094,183.82866 488.695094,187.760316 C488.695094,189.295681 488.285697,197.214899 479.645628,202.61746 C471.005559,208.020022 268.081845,336.561871 262.962314,339.211801 C255.432563,344.155952 247.174769,342.99346 240.611485,339.211801 C236.235963,336.690695 164.641066,291.159248 25.8267938,202.61746 C19.0241358,197.653466 15.6228067,191.80348 15.6228067,185.067502 C15.6228067,174.963536 13.1777671,157.195335 25.8267938,149.330147 Z" id="Path-6" fill="#144A4E" fill-rule="nonzero"></path>
            <path d="M31.422296,149.434643 C34.956684,147.311083 104.686205,106.139706 240.61086,25.9205125 C244.161021,23.4170469 247.974573,22.1653141 252.051515,22.1653141 C256.128458,22.1653141 259.993491,23.4170469 263.646616,25.9205125 C374.516273,90.3041457 444.439756,131.475522 473.417066,149.434643 C479.372284,153.214592 482.320127,160.169968 482.230752,164.541645 C482.320127,168.70669 481.832022,173.749892 473.417066,179.011693 C465.002111,184.273493 267.365491,309.466236 262.379347,312.047124 C255.045781,316.862456 247.003141,315.730253 240.61086,312.047124 C236.34934,309.591704 166.619819,265.24656 31.422296,179.011693 C24.265568,174.51975 20.687204,169.204877 20.687204,163.067075 C20.687204,155.938893 25.8388862,152.789313 31.422296,149.434643 Z" id="Path-6" fill="#FFFFFF" fill-rule="nonzero"></path>
            <g id="beams-right" transform="translate(329.683693, 466.507714) scale(-1, 1) translate(-329.683693, -466.507714) translate(236.683693, 320.507714)" fill-rule="nonzero">
                <polygon id="Path-10" fill="#BAF3F2" transform="translate(80.551154, 146.002377) scale(-1, 1) translate(-80.551154, -146.002377) " points="160.639579 0.229725398 160.639579 194.616619 0.462728158 291.775029 0.462728158 97.5691788"></polygon>
                <path d="M20.2120771,87.4990385 L168.76357,88.1755496 C174.004735,88.1994181 178.853342,90.957221 181.55277,95.4498229 L182.745965,97.4356342 C184.4601,100.288434 183.53703,103.990665 180.684231,105.7048 C179.73192,106.277006 178.639961,106.574813 177.529004,106.565316 L20.2118457,105.220552 C15.3159366,105.178702 11.3690706,101.197953 11.3690706,96.3018652 L11.3690706,96.3018652 C11.3690706,91.4401479 15.3102712,87.4989473 20.1719886,87.4989473 C20.1853514,87.4989473 20.1987143,87.4989777 20.2120771,87.4990385 Z" id="Rectangle-8" fill="#144A4E" transform="translate(97.488340, 97.032242) rotate(31.000000) translate(-97.488340, -97.032242) "></path>
                <path d="M46.2411635,138.064992 L170.923535,136.733165 C176.245941,136.676312 181.199864,139.444286 183.941262,144.006738 L185.056633,145.863027 C186.798039,148.761213 185.860283,152.522346 182.962097,154.263752 C182.018717,154.830592 180.939977,155.13264 179.839412,155.138107 L46.2415589,155.801718 C41.3819098,155.825857 37.4228174,151.905901 37.3986784,147.046252 C37.398606,147.031683 37.3985698,147.017114 37.3985698,147.002545 L37.3985698,147.002545 C37.3985698,142.103432 41.3423299,138.11732 46.2411635,138.064992 Z" id="Rectangle-8" fill="#144A4E" transform="translate(111.665277, 146.267067) rotate(31.000000) translate(-111.665277, -146.267067) "></path>
                <path d="M74.5658259,187.235713 L170.572714,186.699214 C175.86808,186.669623 180.786687,189.434324 183.514044,193.973409 L184.655508,195.873123 C186.384864,198.751255 185.453597,202.486363 182.575465,204.215719 C181.628071,204.784971 180.54342,205.085192 179.438159,205.084096 L74.5659597,204.980095 C69.6806359,204.97525 65.7228659,201.013553 65.7228659,196.128227 L65.7228659,196.128227 C65.7228659,191.236345 69.6740209,187.263049 74.5658259,187.235713 Z" id="Rectangle-8" fill="#144A4E" transform="translate(125.623834, 195.891539) rotate(31.000000) translate(-125.623834, -195.891539) "></path>
                <path d="M100.589503,235.201723 L172.251449,234.390923 C177.577203,234.330666 182.535519,237.099037 185.278661,241.664392 L186.390787,243.51528 C188.12721,246.405175 187.192138,250.155547 184.302243,251.89197 C183.357191,252.459815 182.275993,252.761117 181.173467,252.76388 L100.590041,252.965806 C95.7183709,252.978014 91.7592059,249.038641 91.7469984,244.166971 C91.7469799,244.159603 91.7469707,244.152235 91.7469707,244.144867 L91.7469707,244.144867 C91.7469707,239.244859 95.6898078,235.257159 100.589503,235.201723 Z" id="Rectangle-8" fill="#144A4E" transform="translate(139.505302, 243.677897) rotate(31.000000) translate(-139.505302, -243.677897) "></path>
            </g>
            <g id="beams-left" transform="translate(76.640184, 320.120153)" fill-rule="nonzero">
                <polygon id="Path-10" points="0.457915312 0 0.457915312 193.579938 165.396521 294.110592 165.396521 85.6301634"></polygon>
                <path d="M116.981219,112.150347 L167.50859,111.349816 C172.858269,111.265058 177.848087,114.036217 180.603722,118.622362 L181.692577,120.434521 C183.446749,123.353955 182.502119,127.142661 179.582685,128.896834 C178.643674,129.461049 177.571317,129.764951 176.475905,129.777284 L125.898415,130.346744 C120.572952,130.406704 115.615019,127.638368 112.872029,123.073266 L111.855029,121.380694 C110.121892,118.49627 111.055195,114.752997 113.939619,113.01986 C114.85925,112.46729 115.908481,112.167343 116.981219,112.150347 Z" id="Rectangle-8" fill="#144A4E" transform="translate(146.779090, 120.847812) rotate(31.000000) translate(-146.779090, -120.847812) "></path>
                <path d="M48.9170787,111.800088 L112.550565,111.376499 C117.851614,111.341211 122.777621,114.106609 125.507923,118.650595 L126.643919,120.541209 C128.380964,123.432138 127.445556,127.183851 124.554628,128.920896 C123.609783,129.488616 122.528891,129.790012 121.426607,129.793113 L57.7497385,129.972227 C52.4691569,129.987081 47.5697475,127.224218 44.8500361,122.697858 L43.7897964,120.933323 C42.0750109,118.07944 42.9984314,114.375803 45.8523137,112.661018 C46.7783099,112.104623 47.8368045,111.807279 48.9170787,111.800088 Z" id="Rectangle-8" fill="#144A4E" transform="translate(85.222452, 120.674226) rotate(31.000000) translate(-85.222452, -120.674226) "></path>
                <path d="M43.9494282,177.384856 L133.336005,177.346546 C138.603856,177.344288 143.486799,180.105543 146.199943,184.620973 L147.367761,186.564548 C149.094083,189.437631 148.16445,193.166185 145.291367,194.892508 C144.34298,195.462356 143.256858,195.762106 142.15044,195.759345 L52.7293026,195.536212 C47.4770975,195.523106 42.6143166,192.763862 39.9092226,188.261829 L38.8219127,186.452242 C37.1195152,183.618977 38.0362646,179.942096 40.8695299,178.239698 C41.7996812,177.680807 42.8642827,177.385321 43.9494282,177.384856 Z" id="Rectangle-8" fill="#144A4E" transform="translate(93.100850, 186.552954) rotate(31.000000) translate(-93.100850, -186.552954) "></path>
                <path d="M28.9084485,118.908179 L44.5452109,119.168565 C49.7211271,119.254755 54.4868093,122.003673 57.1529728,126.440915 L58.407486,128.528775 C60.0873031,131.32446 59.1827133,134.952572 56.3870281,136.632389 C55.4242677,137.210874 54.3165027,137.502807 53.1936852,137.473943 L37.459141,137.069451 C32.3324593,136.937659 27.6284209,134.195852 24.9871123,129.799977 L23.7823977,127.794995 C22.1137497,125.017898 23.0123248,121.41391 25.7894215,119.745262 C26.7303062,119.179921 27.8109332,118.889903 28.9084485,118.908179 Z" id="Rectangle-8" fill="#144A4E" transform="translate(41.097749, 128.191630) rotate(31.000000) translate(-41.097749, -128.191630) "></path>
                <path d="M116.961584,241.240599 L162.68406,241.333836 C167.938709,241.344551 172.804633,244.104111 175.510982,248.608233 L176.691378,250.572742 C178.408782,253.430982 177.483951,257.140274 174.625711,258.857678 C173.674442,259.429258 172.584038,259.727593 171.474282,259.719911 L125.697589,259.403022 C120.469148,259.366828 115.636825,256.610709 112.943914,252.128953 L111.834089,250.281894 C110.136588,247.456778 111.050701,243.790472 113.875817,242.092971 C114.807579,241.533112 115.874562,241.238383 116.961584,241.240599 Z" id="Rectangle-8" fill="#144A4E" transform="translate(144.267736, 250.480321) rotate(31.000000) translate(-144.267736, -250.480321) "></path>
            </g>
            <path d="M120.681108,188.463542 L256.450994,275.108041 C260.772085,277.865639 262.000188,283.543443 259.194038,287.789772 C256.387889,292.0361 250.610119,293.242955 246.289028,290.485357 L110.519143,203.840858 C106.198052,201.08326 104.969949,195.405456 107.776098,191.159127 C110.582248,186.912799 116.360017,185.705944 120.681108,188.463542 Z" id="Rectangle-2" fill="#144A4E" fill-rule="nonzero"></path>
            <path d="M364.891367,199.96011 C369.212458,197.202512 374.990228,198.409367 377.796377,202.655695 C380.602526,206.902024 379.374423,212.579828 375.053332,215.337426 L257.692923,290.233518 C253.371832,292.991116 247.594062,291.784262 244.787913,287.537933 C241.981764,283.291605 243.209866,277.6138 247.530957,274.856202 L364.891367,199.96011 Z" id="Rectangle-2" fill="#144A4E" fill-rule="nonzero"></path>
            <rect id="Rectangle-7" fill="#144A4E" fill-rule="nonzero" x="240.2375" y="402.505616" width="22.9920552" height="220.08203"></rect>
            <path d="M173.307254,87.3841981 L246.970756,45.5903927 C251.432787,43.0588096 257.138365,44.5611635 259.71452,48.9459941 C262.290675,53.3308246 260.76187,58.9376858 256.299839,61.4692689 L182.636336,103.263074 C178.174305,105.794657 172.468727,104.292303 169.892572,99.9074729 C167.316417,95.5226423 168.845222,89.9157812 173.307254,87.3841981 Z" id="Rectangle-2" fill="#144A4E" fill-rule="nonzero"></path>
            <path d="M285.22712,61.5682421 C289.596526,64.2513115 290.925278,69.9071884 288.19497,74.2009969 C285.464661,78.4948054 279.709205,79.8005675 275.339798,77.1174982 L249.743733,61.4000292 C245.374326,58.7169599 244.045574,53.0610829 246.775883,48.7672744 C249.506191,44.4734659 255.261648,43.1677039 259.631054,45.8507732 L285.22712,61.5682421 Z" id="Rectangle-2" fill="#144A4E" fill-rule="nonzero"></path>
        </g>
    </g>
</svg>