<?xml version="1.0" encoding="UTF-8"?>
<svg width="2660px" height="1446px" viewBox="0 0 2660 1446" version="1.1" xmlns="http://www.w3.org/2000/svg" xmlns:xlink="http://www.w3.org/1999/xlink">
    <!-- Generator: Sketch 51.3 (57544) - http://www.bohemiancoding.com/sketch -->
    <title>[dark] larger setting w/border (hor)</title>
    <desc>Created with Sketch.</desc>
    <defs>
        <circle id="path-1" cx="484.606718" cy="484.414864" r="484.325064"></circle>
        <linearGradient x1="50%" y1="0%" x2="50%" y2="100%" id="linearGradient-2">
            <stop stop-color="#8FF3BC" offset="0%"></stop>
            <stop stop-color="#56E287" offset="100%"></stop>
        </linearGradient>
        <path d="M10.9748744,129.65983 C14.5824299,127.514416 85.4127106,85.6931025 223.465716,4.19588986 C227.071921,1.65290422 230.945674,0.381411403 235.086975,0.381411403 C239.228276,0.381411403 243.154324,1.65290422 246.865118,4.19588986 L459.947031,129.65983 C465.915578,134.497739 468.899851,141.602715 468.899851,150.974758 C468.899851,160.346801 468.899851,260.939336 468.899851,452.752363 C468.629834,460.764139 465.645561,466.551649 459.947031,470.114891 C451.399236,475.459755 250.642699,596.659363 245.577844,599.280993 C238.128508,604.172341 229.958906,603.022264 223.465716,599.280993 C219.136923,596.786811 148.306643,553.731444 10.9748744,470.114891 C3.85727294,466.630614 0.298472216,460.843104 0.298472216,452.752363 C0.298472216,444.661621 0.298472216,344.069086 0.298472216,150.974758 C0.298472216,142.475271 3.85727294,135.370296 10.9748744,129.65983 Z" id="path-3"></path>
        <radialGradient cx="50%" cy="29.1447596%" fx="50%" fy="29.1447596%" r="50%" gradientTransform="translate(0.500000,0.291448),scale(0.991677,1.000000),rotate(90.000000),scale(1.000000,0.980340),translate(-0.500000,-0.291448)" id="radialGradient-5">
            <stop stop-color="#FFFFFF" offset="0%"></stop>
            <stop stop-color="#E9FCF0" stop-opacity="0.591931329" offset="29.302661%"></stop>
            <stop stop-color="#74EBA3" offset="100%"></stop>
        </radialGradient>
        <path d="M0.390615311,282.40434 L0.390615311,3.27860361 C0.970222946,0.539643438 2.31878274,-0.295291779 4.4362947,0.773797964 C6.55380667,1.84288771 61.5331454,35.1852133 169.374311,100.800775 C173.166108,103.136651 177.142422,103.136651 181.303253,100.800775 C185.464084,98.4648982 240.394181,65.1225726 346.093545,0.773797964 C347.540314,1.27647395 348.263699,2.11140917 348.263699,3.27860361 C348.263699,4.44579806 348.263699,94.8453427 348.263699,274.477237 L348.263699,292.422105 L174.613542,396.871641 L0.390615311,292.422105 L0.390615311,282.40434 Z" id="path-6"></path>
    </defs>
    <g id="[dark]-larger-setting-w/border-(hor)" stroke="none" stroke-width="1" fill="none" fill-rule="evenodd">
        <path d="M1446.26369,639.83878 L1482.66313,639.83878 L1535.35245,743.869285 L1587.25536,639.83878 L1622.86839,639.83878 L1622.86839,792.177187 L1585.5702,792.177187 L1585.5702,692.865128 L1535.80182,792.177187 L1521.4218,792.177187 L1469.96826,691.741688 L1469.96826,792.177187 L1446.26369,792.177187 L1446.26369,639.83878 Z M1656.28784,819.364424 C1657.03681,819.738906 1658.02917,820.225725 1659.26496,820.824896 C1660.50075,821.424067 1661.84886,821.985781 1663.30934,822.510055 C1664.76982,823.03433 1666.32389,823.483701 1667.97161,823.858183 C1669.61933,824.232664 1671.26703,824.419903 1672.91475,824.419903 C1674.26288,824.419903 1675.611,823.633503 1676.95913,822.060679 C1678.30726,820.487856 1679.58048,818.652923 1680.77882,816.555825 C1681.97717,814.458728 1683.04442,812.361662 1683.98063,810.264564 C1684.91683,808.167466 1685.60961,806.632114 1686.05899,805.658462 L1696.0576,783.976078 L1639.99797,677.136974 L1676.84679,677.136974 L1713.13388,746.00382 L1745.26426,677.136974 L1769.86758,677.136974 L1706.2809,815.657074 C1704.18381,820.150855 1701.52502,824.232644 1698.30448,827.902565 C1695.08394,831.572486 1691.56386,834.699362 1687.74415,837.283286 C1683.92444,839.86721 1679.93627,841.870657 1675.77952,843.293687 C1671.62277,844.716718 1667.52226,845.428223 1663.47785,845.428223 C1660.10752,845.428223 1656.99937,845.035023 1654.15331,844.248611 C1651.30725,843.462199 1648.8357,842.2826 1646.73861,840.709776 L1656.28784,819.364424 Z M1795.08592,760.046815 C1797.10813,766.338108 1800.01032,771.225021 1803.79258,774.707701 C1807.57485,778.190381 1812.31197,779.931695 1818.00409,779.931695 C1820.40078,779.931695 1822.59146,779.632114 1824.57621,779.032944 C1826.56097,778.433773 1828.28356,777.591202 1829.74404,776.505205 C1831.20451,775.419207 1832.32794,774.164713 1833.11435,772.741682 C1833.90077,771.318651 1834.29397,769.783299 1834.29397,768.13558 C1834.29397,765.439311 1833.78842,763.02394 1832.77732,760.889394 C1831.76622,758.754849 1830.36194,756.826297 1828.56442,755.103681 C1826.76691,753.381065 1824.6324,751.789541 1822.16082,750.329062 C1819.68924,748.868584 1817.03046,747.501746 1814.1844,746.228508 C1809.61572,744.206307 1805.08456,742.015621 1800.59078,739.656386 C1796.097,737.297151 1792.05266,734.600923 1788.45763,731.567621 C1784.86261,728.534319 1781.96042,725.070415 1779.75097,721.175805 C1777.54153,717.281195 1776.43683,712.787482 1776.43683,707.69453 C1776.43683,702.826268 1777.44791,698.388726 1779.47011,694.381771 C1781.49232,690.374817 1784.33833,686.94836 1788.00826,684.102299 C1791.67818,681.256238 1796.05955,679.046829 1801.1525,677.474006 C1806.24545,675.901182 1811.86259,675.114783 1818.00409,675.114783 C1823.62132,675.114783 1828.60185,675.639049 1832.94584,676.687598 C1837.28983,677.736147 1841.10948,679.234051 1844.40492,681.181356 C1847.70036,683.128661 1850.62128,685.506585 1853.16775,688.315198 C1855.71423,691.123811 1857.99853,694.288134 1860.02073,697.808262 L1839.79882,704.773587 C1838.75027,701.103666 1837.47705,698.257648 1835.97913,696.235447 C1834.4812,694.213245 1832.9084,692.696617 1831.26068,691.685516 C1829.61296,690.674416 1828.00271,690.05653 1826.42989,689.831841 C1824.85707,689.607152 1823.4715,689.494809 1822.27316,689.494809 C1820.10117,689.494809 1818.04155,689.738219 1816.09425,690.225045 C1814.14694,690.711871 1812.42435,691.404652 1810.92642,692.303408 C1809.4285,693.202164 1808.23017,694.306869 1807.33142,695.617555 C1806.43266,696.928241 1805.98329,698.444869 1805.98329,700.167485 C1805.98329,702.339479 1806.545,704.399098 1807.66845,706.346403 C1808.79189,708.293708 1810.36469,710.109917 1812.38689,711.795085 C1814.4091,713.480253 1816.78702,715.071776 1819.52074,716.569703 C1822.25445,718.06763 1825.23154,719.490639 1828.45208,720.838773 C1833.32034,722.860975 1838.05747,725.107831 1842.66359,727.579411 C1847.26972,730.05099 1851.37023,732.840837 1854.96525,735.949036 C1858.56028,739.057234 1861.44375,742.502414 1863.61574,746.28468 C1865.78773,750.066945 1866.87371,754.279802 1866.87371,758.923375 C1866.87371,763.94143 1866.04987,768.622382 1864.40215,772.96637 C1862.75443,777.310358 1860.07692,781.092567 1856.36955,784.31311 C1852.66218,787.533652 1847.86889,790.08009 1841.98953,791.952499 C1836.11016,793.824907 1828.97639,794.761098 1820.588,794.761098 C1813.39795,794.761098 1807.31272,793.93725 1802.33211,792.289531 C1797.3515,790.641811 1793.13865,788.526021 1789.69341,785.942097 C1786.24818,783.358173 1783.40216,780.455983 1781.15527,777.23544 C1778.90838,774.014897 1776.92366,770.83185 1775.20104,767.686204 L1795.08592,760.046815 Z M1877.94674,691.517 L1877.94674,683.315891 L1896.48349,677.136974 L1896.48349,653.769431 L1920.86213,640.962219 L1931.31012,640.962219 L1931.31012,677.136974 L1959.50845,677.136974 L1959.50845,691.517 L1931.31012,691.517 L1931.31012,765.551669 C1931.31012,767.873455 1931.90928,769.895626 1933.10762,771.618242 C1934.30596,773.340858 1935.87876,774.202153 1937.82606,774.202153 C1939.02441,774.202153 1940.3538,773.79023 1941.81428,772.96637 C1943.27475,772.14251 1944.66032,771.187596 1945.971,770.101599 C1947.28169,769.015602 1948.44256,767.910897 1949.45366,766.787452 C1950.46477,765.664007 1951.19499,764.802712 1951.64437,764.203541 L1963.55283,773.640434 C1961.60553,776.636287 1959.47101,779.426135 1957.14923,782.010058 C1954.82744,784.593982 1952.16866,786.822115 1949.1728,788.694524 C1946.17695,790.566933 1942.73177,792.046113 1938.83716,793.13211 C1934.94255,794.218107 1930.44884,794.761098 1925.35589,794.761098 C1920.48762,794.761098 1916.25604,794.068317 1912.66102,792.682734 C1909.06599,791.297152 1906.07018,789.3686 1903.6735,786.897021 C1901.27682,784.425441 1899.47933,781.46708 1898.28099,778.021848 C1897.08265,774.576616 1896.48349,770.75696 1896.48349,766.562764 L1896.48349,691.517 L1877.94674,691.517 Z M1982.1529,687.584962 L2006.64388,674.777751 L2017.09187,674.777751 L2017.09187,792.177187 L1982.1529,792.177187 L1982.1529,687.584962 Z M1980.69243,637.030181 C1980.69243,634.708394 1981.17924,632.498985 1982.1529,630.401887 C1983.12655,628.30479 1984.47466,626.507304 1986.19728,625.009377 C1987.9199,623.51145 1989.90462,622.313127 1992.15151,621.414371 C1994.3984,620.515615 1996.83249,620.066243 1999.45387,620.066243 C2002.07524,620.066243 2004.52806,620.515615 2006.8124,621.414371 C2009.09673,622.313127 2011.08146,623.51145 2012.76663,625.009377 C2014.45179,626.507304 2015.78118,628.30479 2016.75484,630.401887 C2017.72849,632.498985 2018.21531,634.708394 2018.21531,637.030181 C2018.21531,639.351968 2017.72849,641.542653 2016.75484,643.602302 C2015.78118,645.661952 2014.45179,647.440713 2012.76663,648.93864 C2011.08146,650.436567 2009.09673,651.634891 2006.8124,652.533647 C2004.52806,653.432403 2002.07524,653.881775 1999.45387,653.881775 C1996.83249,653.881775 1994.3984,653.432403 1992.15151,652.533647 C1989.90462,651.634891 1987.9199,650.436567 1986.19728,648.93864 C1984.47466,647.440713 1983.12655,645.661952 1982.1529,643.602302 C1981.17924,641.542653 1980.69243,639.351968 1980.69243,637.030181 Z M2080.96655,716.569703 L2126.12882,677.136974 L2151.29387,677.136974 L2100.96377,721.175805 L2162.07889,792.177187 L2120.84865,792.177187 L2080.96655,746.00382 L2080.96655,792.177187 L2045.91523,792.177187 L2045.91523,631.300639 L2070.51856,618.493428 L2080.96655,618.493428 L2080.96655,716.569703 Z M2229.88561,794.311722 C2220.74825,794.311722 2212.30382,792.813817 2204.55204,789.817964 C2196.80027,786.82211 2190.09715,782.702872 2184.44248,777.460128 C2178.7878,772.217384 2174.36898,766.057252 2171.18589,758.979547 C2168.00279,751.901842 2166.41127,744.243806 2166.41127,736.005208 C2166.41127,727.167439 2168.00279,719.022583 2171.18589,711.570397 C2174.36898,704.11821 2178.76908,697.695945 2184.3863,692.303408 C2190.00353,686.910871 2196.68793,682.698015 2204.4397,679.664713 C2212.19147,676.631411 2220.63591,675.114783 2229.77326,675.114783 C2238.91062,675.114783 2247.37378,676.593963 2255.163,679.552369 C2262.95222,682.510775 2269.67406,686.57384 2275.32874,691.741688 C2280.98341,696.909536 2285.42095,702.994773 2288.6415,709.997581 C2291.86204,717.00039 2293.47229,724.546084 2293.47229,732.634889 C2293.47229,741.098176 2291.88076,749.074517 2288.69767,756.564152 C2285.51457,764.053787 2281.09576,770.588395 2275.44108,776.168173 C2269.78641,781.74795 2263.06456,786.166769 2255.27534,789.42476 C2247.48612,792.682751 2239.02296,794.311722 2229.88561,794.311722 Z M2233.92999,780.268727 C2237.07564,780.268727 2239.99655,779.238918 2242.69282,777.179268 C2245.38909,775.119619 2247.72956,772.348495 2249.71432,768.865815 C2251.69907,765.383135 2253.23442,761.357517 2254.32042,756.78884 C2255.40642,752.220163 2255.94941,747.464316 2255.94941,742.521157 C2255.94941,735.181315 2255.40642,728.272231 2254.32042,721.793697 C2253.23442,715.315163 2251.45566,709.64185 2248.98408,704.773587 C2246.5125,699.905325 2243.31073,696.048221 2239.37867,693.20216 C2235.44661,690.356099 2230.6346,688.933089 2224.94247,688.933089 C2222.17131,688.933089 2219.51253,689.944175 2216.96605,691.966376 C2214.41958,693.988578 2212.17272,696.703529 2210.22541,700.111313 C2208.27811,703.519097 2206.72403,707.451096 2205.56314,711.907429 C2204.40225,716.363761 2203.82181,721.063437 2203.82181,726.006595 C2203.82181,733.421334 2204.51459,740.424037 2205.90017,747.014916 C2207.28575,753.605794 2209.27048,759.354002 2211.8544,764.259713 C2214.43833,769.165424 2217.58393,773.059975 2221.29129,775.943485 C2224.99866,778.826994 2229.21152,780.268727 2233.92999,780.268727 Z M2328.58692,760.046815 C2330.60912,766.338108 2333.51131,771.225021 2337.29357,774.707701 C2341.07584,778.190381 2345.81296,779.931695 2351.50508,779.931695 C2353.90177,779.931695 2356.09245,779.632114 2358.0772,779.032944 C2360.06196,778.433773 2361.78455,777.591202 2363.24503,776.505205 C2364.70551,775.419207 2365.82893,774.164713 2366.61535,772.741682 C2367.40176,771.318651 2367.79496,769.783299 2367.79496,768.13558 C2367.79496,765.439311 2367.28941,763.02394 2366.27831,760.889394 C2365.26721,758.754849 2363.86293,756.826297 2362.06541,755.103681 C2360.2679,753.381065 2358.13339,751.789541 2355.66181,750.329062 C2353.19023,748.868584 2350.53145,747.501746 2347.68539,746.228508 C2343.11671,744.206307 2338.58555,742.015621 2334.09177,739.656386 C2329.59799,737.297151 2325.55365,734.600923 2321.95862,731.567621 C2318.3636,728.534319 2315.46141,725.070415 2313.25197,721.175805 C2311.04252,717.281195 2309.93782,712.787482 2309.93782,707.69453 C2309.93782,702.826268 2310.9489,698.388726 2312.97111,694.381771 C2314.99331,690.374817 2317.83933,686.94836 2321.50925,684.102299 C2325.17917,681.256238 2329.56054,679.046829 2334.65349,677.474006 C2339.74644,675.901182 2345.36358,675.114783 2351.50508,675.114783 C2357.12231,675.114783 2362.10284,675.639049 2366.44683,676.687598 C2370.79082,677.736147 2374.61047,679.234051 2377.90591,681.181356 C2381.20135,683.128661 2384.12227,685.506585 2386.66874,688.315198 C2389.21522,691.123811 2391.49952,694.288134 2393.52172,697.808262 L2373.29981,704.773587 C2372.25126,701.103666 2370.97804,698.257648 2369.48012,696.235447 C2367.98219,694.213245 2366.40939,692.696617 2364.76167,691.685516 C2363.11395,690.674416 2361.5037,690.05653 2359.93088,689.831841 C2358.35806,689.607152 2356.97249,689.494809 2355.77415,689.494809 C2353.60216,689.494809 2351.54254,689.738219 2349.59524,690.225045 C2347.64793,690.711871 2345.92534,691.404652 2344.42741,692.303408 C2342.92949,693.202164 2341.73116,694.306869 2340.83241,695.617555 C2339.93365,696.928241 2339.48428,698.444869 2339.48428,700.167485 C2339.48428,702.339479 2340.04599,704.399098 2341.16944,706.346403 C2342.29288,708.293708 2343.86568,710.109917 2345.88789,711.795085 C2347.91009,713.480253 2350.28801,715.071776 2353.02173,716.569703 C2355.75544,718.06763 2358.73253,719.490639 2361.95307,720.838773 C2366.82133,722.860975 2371.55846,725.107831 2376.16458,727.579411 C2380.77071,730.05099 2384.87122,732.840837 2388.46625,735.949036 C2392.06127,739.057234 2394.94474,742.502414 2397.11673,746.28468 C2399.28872,750.066945 2400.3747,754.279802 2400.3747,758.923375 C2400.3747,763.94143 2399.55086,768.622382 2397.90314,772.96637 C2396.25542,777.310358 2393.57791,781.092567 2389.87054,784.31311 C2386.16318,787.533652 2381.36988,790.08009 2375.49052,791.952499 C2369.61115,793.824907 2362.47738,794.761098 2354.08899,794.761098 C2346.89894,794.761098 2340.81371,793.93725 2335.8331,792.289531 C2330.85249,790.641811 2326.63964,788.526021 2323.19441,785.942097 C2319.74917,783.358173 2316.90316,780.455983 2314.65626,777.23544 C2312.40937,774.014897 2310.42465,770.83185 2308.70203,767.686204 L2328.58692,760.046815 Z" id="Mystikos" fill="#FFFFFF"></path>
        <g id="Group-3" transform="translate(265.500000, 244.104380)" fill-rule="nonzero">
            <g id="Oval">
                <circle stroke="#144A4E" stroke-width="22" stroke-linejoin="square" fill="#D8F2E9" fill-rule="evenodd" cx="484.606718" cy="484.414864" r="473.325064"></circle>
                <circle stroke="#D8F2E9" stroke-width="20" cx="484.606718" cy="484.414864" r="494.325064"></circle>
            </g>
            <path d="M65.7979736,538.5 L902.529297,538.5" id="Path-2" stroke="#144A4E" stroke-width="20" stroke-linecap="round"></path>
            <path d="M74.7979736,589.5 L894.529297,589.5" id="Path-2" stroke="#144A4E" stroke-width="20" stroke-linecap="round"></path>
            <path d="M90.7979736,640.5 L878.529297,640.5" id="blottom" stroke="#144A4E" stroke-width="20" stroke-linecap="round"></path>
            <path d="M90.7979736,640.5 L878.529297,640.5" id="blottom" stroke="#144A4E" stroke-width="20" stroke-linecap="round"></path>
            <path d="M112.797974,692.5 L856.529297,692.5" id="blottom" stroke="#144A4E" stroke-width="20" stroke-linecap="round"></path>
            <path d="M144.797974,743.5 L824.529297,743.5" id="blottom" stroke="#144A4E" stroke-width="20" stroke-linecap="round"></path>
            <path d="M188.797974,795.5 L782.529297,795.5" id="blottom" stroke="#144A4E" stroke-width="20" stroke-linecap="round"></path>
            <path d="M245.797974,846.5 L724.529297,846.5" id="blottom" stroke="#144A4E" stroke-width="20" stroke-linecap="round"></path>
            <path d="M324.797974,893.5 L644.529297,893.5" id="blottom" stroke="#144A4E" stroke-width="20" stroke-linecap="round"></path>
            <path d="M65.7979736,435.5 L135.797974,435.5" id="top-half" stroke="#144A4E" stroke-width="20" stroke-linecap="round"></path>
            <path d="M115.797974,390.5 L215.797974,390.5" id="top-half" stroke="#144A4E" stroke-width="20" stroke-linecap="round"></path>
            <path d="M200.797974,163.5 L300.797974,163.5" id="top-half" stroke="#144A4E" stroke-width="20" stroke-linecap="round"></path>
            <path d="M330.797974,118.5 L440.797974,118.5" id="top-half" stroke="#144A4E" stroke-width="20" stroke-linecap="round"></path>
            <path d="M380.797974,73.5 L540.797974,73.5" id="top-half" stroke="#144A4E" stroke-width="20" stroke-linecap="round"></path>
            <path d="M580.797974,118.5 L650.797974,118.5" id="top-half" stroke="#144A4E" stroke-width="20" stroke-linecap="round"></path>
            <path d="M660.797974,162.5 L730.797974,162.5" id="top-half" stroke="#144A4E" stroke-width="20" stroke-linecap="round"></path>
            <path d="M95.7979736,345.5 L195.797974,345.5" id="top-half" stroke="#144A4E" stroke-width="20" stroke-linecap="round"></path>
            <path d="M98.7979736,300.5 L142.797974,300.5" id="top-half" stroke="#144A4E" stroke-width="20" stroke-linecap="round"></path>
            <path d="M780.797974,435.5 L854.797974,435.5" id="top-half" stroke="#144A4E" stroke-width="20" stroke-linecap="round"></path>
            <path d="M785.797974,343.5 L830.797974,343.5" id="top-half" stroke="#144A4E" stroke-width="20" stroke-linecap="round"></path>
            <path d="M813.797974,297.5 L860.797974,297.5" id="top-half" stroke="#144A4E" stroke-width="20" stroke-linecap="round"></path>
            <path d="M834.797974,390.5 L899.797974,390.5" id="top-half" stroke="#144A4E" stroke-width="20" stroke-linecap="round"></path>
            <path d="M681.029297,209.5 L818.029297,209.5" id="top-half" stroke="#144A4E" stroke-width="20" stroke-linecap="round"></path>
            <path d="M763.029297,254.5 L818.029297,254.5" id="top-half" stroke="#144A4E" stroke-width="20" stroke-linecap="round"></path>
            <path d="M681.029297,209.5 L818.029297,209.5" id="top-half" stroke="#144A4E" stroke-width="20" stroke-linecap="round"></path>
            <path d="M122.797974,252.5 L217.797974,252.5" id="top-half" stroke="#144A4E" stroke-width="20" stroke-linecap="round"></path>
            <path d="M202.797974,207.5 L267.797974,207.5" id="top-half" stroke="#144A4E" stroke-width="20" stroke-linecap="round"></path>
            <path d="M224.594313,289.715512 L487.539922,140.775214 L755.373854,294.780361 L755.373854,660.786649 L487.862674,817.237671 L224.594313,661.743809 L224.594313,289.715512 Z" id="Path-22" stroke="#D8F2E9" stroke-width="30" fill="url(#linearGradient-2)" stroke-linecap="round" stroke-linejoin="round"></path>
            <path d="M16.7979736,485.5 L958.529297,485.5" id="Path-2" stroke="#144A4E" stroke-width="22"></path>
        </g>
        <g id="icon" transform="translate(498.790527, 394.960825)">
            <path d="M11.6872986,139.030404 C15.6107825,136.94139 92.6439583,92.1507447 242.786826,4.65846832 C246.70884,1.79483351 250.921834,0.363016104 255.425805,0.363016104 C259.929777,0.363016104 264.199645,1.79483351 268.235408,4.65846832 L499.977769,139.030404 C506.469006,143.74113 509.714624,150.659325 509.714624,159.784989 C509.714624,168.910653 509.714624,277.708768 509.714624,486.179332 C509.420961,493.980489 506.175343,499.615852 499.977769,503.085422 C490.681409,508.289776 270.18557,641.877844 266.186181,644.549702 C259.96184,649.041614 249.820197,649.041614 242.786826,644.549702 C238.097912,641.555094 161.064736,594.400334 11.6872986,503.085422 C3.94637994,499.692742 0.0759205908,494.057378 0.0759205908,486.179332 C0.0759205908,478.301285 0.0759205908,369.503171 0.0759205908,159.784989 C0.0759205908,151.508944 3.94637994,144.590748 11.6872986,139.030404 Z" id="Path-6" fill="#144A4E" fill-rule="nonzero"></path>
            <g id="Group" transform="translate(20.296111, 19.699166)">
                <mask id="mask-4" fill="white">
                    <use xlink:href="#path-3"></use>
                </mask>
                <use id="Path-6" fill="#FFFFFF" fill-rule="nonzero" xlink:href="#path-3"></use>
                <rect id="Rectangle" fill="url(#radialGradient-5)" fill-rule="nonzero" mask="url(#mask-4)" x="-18.3685978" y="113.311143" width="507.84136" height="503.614381"></rect>
                <path d="M36.2072812,543.866001 L36.2072812,280.913983 C35.9745248,274.562801 37.4224843,270.516075 40.5511595,268.773804 C45.2441724,266.160399 52.879033,267.17017 56.055301,268.773804 C58.1728129,269.842894 115.644983,306.17929 228.47181,377.782991 C232.263607,380.118868 236.239921,380.118868 240.400752,377.782991 C244.561583,375.447114 301.494781,339.48917 411.200348,269.909159 C416.562087,266.664102 421.18554,266.285651 425.070707,268.773804 C430.898457,272.506035 431.238975,279.163191 431.238975,280.913983 C431.238975,282.081177 431.238975,367.089482 431.238975,535.938898 L431.238975,553.883766 L233.711041,673.853857 L36.2072812,553.883766 L36.2072812,543.866001 Z" id="Path-7" fill="#144A4E" fill-rule="nonzero" mask="url(#mask-4)"></path>
                <g id="Group-2" mask="url(#mask-4)">
                    <g transform="translate(59.097499, 302.429706)">
                        <mask id="mask-7" fill="white">
                            <use xlink:href="#path-6"></use>
                        </mask>
                        <use id="Path-7" stroke="none" fill="#FFFFFF" fill-rule="nonzero" xlink:href="#path-6"></use>
                    </g>
                </g>
            </g>
            <path d="M26.1511754,151.205717 C29.8434743,149.009906 102.337595,106.206188 243.633539,22.7945632 C247.324455,20.9852395 251.289204,20.0805776 255.527787,20.0805776 C259.766369,20.0805776 263.784642,21.3819385 267.582604,23.9846602 L485.669923,152.395814 C491.778674,173.563278 494.833049,186.137528 494.833049,190.118564 C494.833049,191.673213 494.418511,199.691895 485.669923,205.162313 C476.921336,210.63273 271.448923,340.78905 266.265091,343.472263 C258.640767,348.478512 250.279257,347.30142 243.633539,343.472263 C239.20306,340.919492 166.708939,294.816176 26.1511754,205.162313 C19.2630768,200.135971 15.8190274,194.21251 15.8190274,187.391929 C15.8190274,177.161058 13.3432784,159.169691 26.1511754,151.205717 Z" id="Path-6" fill="#144A4E" fill-rule="nonzero"></path>
            <path d="M31.8169565,151.311525 C35.395736,149.161294 106.001052,107.472809 243.632906,26.2460712 C247.227656,23.7111624 251.089106,22.4437079 255.217254,22.4437079 C259.345402,22.4437079 263.25898,23.7111624 266.957988,26.2460712 C379.220155,91.4383556 450.02187,133.12684 479.363132,151.311525 C485.393146,155.13895 488.378014,162.181684 488.287516,166.60827 C488.378014,170.825627 487.883778,175.932171 479.363132,181.260059 C470.842485,186.587947 270.723571,313.353097 265.674803,315.9664 C258.249127,320.842213 250.105472,319.69579 243.632906,315.9664 C239.317861,313.480141 168.712545,268.578027 31.8169565,181.260059 C24.5703408,176.711698 20.947033,171.330072 20.947033,165.11518 C20.947033,157.897468 26.1634197,154.708329 31.8169565,151.311525 Z" id="Path-6" fill="#FFFFFF" fill-rule="nonzero"></path>
            <g id="beams-right" transform="translate(334.492553, 470.991505) scale(-1, 1) translate(-334.492553, -470.991505) translate(240.992553, 321.491505)" fill-rule="nonzero">
                <polygon id="Path-10" fill="#BAF3F2" transform="translate(81.562867, 149.357026) scale(-1, 1) translate(-81.562867, -149.357026) " points="162.657194 0.232610723 162.657194 200.102732 0.468539972 298.48144 0.468539972 98.7946368"></polygon>
                <path d="M45.8218784,103.840803 L172.178164,102.491096 C177.500569,102.434243 182.454492,105.202216 185.19589,109.764669 L186.380855,111.736781 C188.144132,114.671368 187.194599,118.47974 184.260011,120.243018 C183.304783,120.816977 182.212494,121.122819 181.098106,121.128354 L45.8222788,121.8003 C40.901593,121.824742 36.8927748,117.855553 36.8683327,112.934867 C36.8682594,112.920115 36.8682227,112.905363 36.8682227,112.890611 L36.8682227,112.890611 C36.8682227,107.929965 40.861516,103.893789 45.8218784,103.840803 Z" id="Rectangle-8" fill="#144A4E" transform="translate(112.067712, 112.146029) rotate(31.000000) translate(-112.067712, -112.146029) "></path>
                <path d="M74.5023283,163.629112 L171.822337,163.085276 C177.117703,163.055684 182.03631,165.820385 184.763667,170.35947 L185.974724,172.375007 C187.725801,175.289288 186.782837,179.071308 183.868556,180.822385 C182.909263,181.398786 181.810989,181.702778 180.691846,181.701669 L74.5024637,181.596361 C69.5557808,181.591456 65.5483017,177.58 65.5483017,172.633315 L65.5483017,172.633315 C65.5483017,167.679992 69.5490828,163.656792 74.5023283,163.629112 Z" id="Rectangle-8" fill="#144A4E" transform="translate(126.201620, 172.393724) rotate(31.000000) translate(-126.201620, -172.393724) "></path>
                <path d="M100.852823,222.197559 L173.52283,221.375354 C178.848584,221.315097 183.8069,224.083468 186.550042,228.648823 L187.731761,230.615534 C189.489994,233.541725 188.543177,237.339201 185.616986,239.097434 C184.660063,239.672411 183.565286,239.977498 182.448912,239.980295 L100.853368,240.184758 C95.9205099,240.197118 91.9116182,236.208268 91.8992574,231.27541 C91.8992387,231.267949 91.8992293,231.260489 91.8992293,231.253029 L91.8992293,231.253029 C91.8992293,226.291476 95.891588,222.253692 100.852823,222.197559 Z" id="Rectangle-8" fill="#144A4E" transform="translate(140.257400, 230.780335) rotate(31.000000) translate(-140.257400, -230.780335) "></path>
            </g>
            <g id="beams-left" transform="translate(77.602776, 324.140826)" fill-rule="nonzero">
                <polygon id="Path-10" points="0.463666677 0 0.463666677 196.01128 167.473882 297.804588 167.473882 86.7056686"></polygon>
                <path d="M62.5314469,95.2042777 L127.071581,94.7746532 C132.372629,94.7393657 137.298636,97.5047634 140.028938,102.04875 L141.234527,104.055187 C142.993389,106.982425 142.046234,110.781259 139.118996,112.540121 C138.162283,113.114972 137.067815,113.420153 135.951687,113.423293 L71.3681037,113.604958 C66.087522,113.619811 61.1881126,110.856948 58.4684013,106.330588 L57.3397666,104.452225 C55.6034436,101.562498 56.538462,97.8123436 59.4281888,96.0760206 C60.3658154,95.5126377 61.4376046,95.2115591 62.5314469,95.2042777 Z" id="Rectangle-8" fill="#144A4E" transform="translate(99.292812, 104.189922) rotate(31.000000) translate(-99.292812, -104.189922) "></path>
                <path d="M34.5014253,141.612789 L125.117331,141.573952 C130.385183,141.571694 135.268125,144.332949 137.981269,148.84838 L139.218681,150.907777 C140.966685,153.816946 140.025376,157.59233 137.116208,159.340335 C136.155909,159.917341 135.056145,160.220855 133.935831,160.21806 L43.2852937,159.991858 C38.0330886,159.978753 33.1703077,157.219509 30.4652137,152.717476 L29.3095088,150.79406 C27.5857294,147.92521 28.5139931,144.202147 31.3828438,142.478368 C32.3246777,141.912457 33.4026505,141.61326 34.5014253,141.612789 Z" id="Rectangle-8" fill="#144A4E" transform="translate(84.270183, 150.896043) rotate(31.000000) translate(-84.270183, -150.896043) "></path>
                <path d="M38.4306082,185.270554 L84.8336908,185.365178 C90.0883393,185.375894 94.954263,188.135454 97.6606127,192.639576 L98.9106018,194.719907 C100.649576,197.614046 99.7131299,201.369927 96.8189908,203.108901 C95.8557736,203.68766 94.751674,203.989743 93.6279796,203.981964 L47.1706074,203.660363 C41.9421663,203.624169 37.1098436,200.86805 34.4169328,196.386293 L33.238713,194.425406 C31.5198916,191.564807 32.4454854,187.852453 35.3060846,186.133632 C36.2495494,185.566741 37.329933,185.26831 38.4306082,185.270554 Z" id="Rectangle-8" fill="#144A4E" transform="translate(66.079723, 194.626326) rotate(31.000000) translate(-66.079723, -194.626326) "></path>
            </g>
            <rect id="Rectangle-7" fill="#144A4E" fill-rule="nonzero" x="243.254856" y="407.561042" width="23.2808328" height="222.846235"></rect>
            <path d="M175.483973,88.4817338 L250.072681,46.1630029 C254.590755,43.5996234 260.367994,45.1208467 262.976505,49.5607502 C265.585017,54.0006538 264.03701,59.6779365 259.518936,62.241316 L184.930228,104.560047 C180.412154,107.123426 174.634915,105.602203 172.026404,101.1623 C169.417892,96.722396 170.965899,91.0451133 175.483973,88.4817338 Z" id="Rectangle-2" fill="#144A4E" fill-rule="nonzero"></path>
            <path d="M288.80954,62.3415323 C293.233826,65.0583007 294.579267,70.7852149 291.814666,75.1329531 C289.050065,79.4806913 283.222321,80.8028536 278.798035,78.0860853 L252.880486,62.1712067 C248.4562,59.4544383 247.110759,53.7275242 249.87536,49.3797859 C252.639961,45.0320477 258.467705,43.7098854 262.891991,46.4266537 L288.80954,62.3415323 Z" id="Rectangle-2" fill="#144A4E" fill-rule="nonzero"></path>
        </g>
    </g>
</svg>