<?xml version="1.0" encoding="UTF-8"?>
<svg width="1480px" height="1840px" viewBox="0 0 1480 1840" version="1.1" xmlns="http://www.w3.org/2000/svg" xmlns:xlink="http://www.w3.org/1999/xlink">
    <!-- Generator: Sketch 51.3 (57544) - http://www.bohemiancoding.com/sketch -->
    <title>[light] larger setting w/border (vertical)</title>
    <desc>Created with Sketch.</desc>
    <defs>
        <circle id="path-1" cx="484.606718" cy="484.414864" r="484.325064"></circle>
        <linearGradient x1="50%" y1="0%" x2="50%" y2="100%" id="linearGradient-2">
            <stop stop-color="#8FF3BC" offset="0%"></stop>
            <stop stop-color="#56E287" offset="100%"></stop>
        </linearGradient>
        <path d="M10.9748744,129.65983 C14.5824299,127.514416 85.4127106,85.6931025 223.465716,4.19588986 C227.071921,1.65290422 230.945674,0.381411403 235.086975,0.381411403 C239.228276,0.381411403 243.154324,1.65290422 246.865118,4.19588986 L459.947031,129.65983 C465.915578,134.497739 468.899851,141.602715 468.899851,150.974758 C468.899851,160.346801 468.899851,260.939336 468.899851,452.752363 C468.629834,460.764139 465.645561,466.551649 459.947031,470.114891 C451.399236,475.459755 250.642699,596.659363 245.577844,599.280993 C238.128508,604.172341 229.958906,603.022264 223.465716,599.280993 C219.136923,596.786811 148.306643,553.731444 10.9748744,470.114891 C3.85727294,466.630614 0.298472216,460.843104 0.298472216,452.752363 C0.298472216,444.661621 0.298472216,344.069086 0.298472216,150.974758 C0.298472216,142.475271 3.85727294,135.370296 10.9748744,129.65983 Z" id="path-3"></path>
        <radialGradient cx="50%" cy="29.1447596%" fx="50%" fy="29.1447596%" r="50%" gradientTransform="translate(0.500000,0.291448),scale(0.991677,1.000000),rotate(90.000000),scale(1.000000,0.980340),translate(-0.500000,-0.291448)" id="radialGradient-5">
            <stop stop-color="#FFFFFF" offset="0%"></stop>
            <stop stop-color="#E9FCF0" stop-opacity="0.591931329" offset="29.302661%"></stop>
            <stop stop-color="#74EBA3" offset="100%"></stop>
        </radialGradient>
        <path d="M0.390615311,282.40434 L0.390615311,3.27860361 C0.970222946,0.539643438 2.31878274,-0.295291779 4.4362947,0.773797964 C6.55380667,1.84288771 61.5331454,35.1852133 169.374311,100.800775 C173.166108,103.136651 177.142422,103.136651 181.303253,100.800775 C185.464084,98.4648982 240.394181,65.1225726 346.093545,0.773797964 C347.540314,1.27647395 348.263699,2.11140917 348.263699,3.27860361 C348.263699,4.44579806 348.263699,94.8453427 348.263699,274.477237 L348.263699,292.422105 L174.613542,396.871641 L0.390615311,292.422105 L0.390615311,282.40434 Z" id="path-6"></path>
    </defs>
    <g id="[light]-larger-setting-w/border-(vertical)" stroke="none" stroke-width="1" fill="none" fill-rule="evenodd">
        <path d="M255.5,1388.30618 L291.899442,1388.30618 L344.588759,1492.33668 L396.491667,1388.30618 L432.104702,1388.30618 L432.104702,1540.64458 L394.806508,1540.64458 L394.806508,1441.33253 L345.038134,1540.64458 L330.658108,1540.64458 L279.204575,1440.20909 L279.204575,1540.64458 L255.5,1540.64458 L255.5,1388.30618 Z M465.524153,1567.83182 C466.273116,1568.2063 467.265478,1568.69312 468.501268,1569.29229 C469.737057,1569.89146 471.085171,1570.45318 472.54565,1570.97745 C474.006129,1571.50173 475.560205,1571.9511 477.207924,1572.32558 C478.855644,1572.70006 480.503339,1572.8873 482.151058,1572.8873 C483.499193,1572.8873 484.847307,1572.1009 486.195441,1570.52808 C487.543575,1568.95525 488.816794,1567.12032 490.015135,1565.02322 C491.213477,1562.92613 492.280734,1560.82906 493.216938,1558.73196 C494.153143,1556.63486 494.845923,1555.09951 495.295301,1554.12586 L505.293914,1532.44348 L449.234279,1425.60437 L486.083097,1425.60437 L522.370195,1494.47122 L554.500567,1425.60437 L579.103894,1425.60437 L515.517214,1564.12447 C513.420116,1568.61825 510.761336,1572.70004 507.540793,1576.36996 C504.32025,1580.03988 500.800174,1583.16676 496.980461,1585.75068 C493.160747,1588.33461 489.172577,1590.33805 485.015829,1591.76108 C480.859082,1593.18412 476.758569,1593.89562 472.714166,1593.89562 C469.34383,1593.89562 466.235679,1593.50242 463.389617,1592.71601 C460.543556,1591.9296 458.072014,1590.75 455.974916,1589.17717 L465.524153,1567.83182 Z M604.322236,1508.51421 C606.344437,1514.80551 609.246627,1519.69242 613.028893,1523.1751 C616.811158,1526.65778 621.548281,1528.39909 627.240403,1528.39909 C629.637086,1528.39909 631.827772,1528.09951 633.812525,1527.50034 C635.797278,1526.90117 637.519868,1526.0586 638.980347,1524.9726 C640.440826,1523.8866 641.564254,1522.63211 642.350666,1521.20908 C643.137077,1519.78605 643.530277,1518.2507 643.530277,1516.60298 C643.530277,1513.90671 643.024734,1511.49134 642.013634,1509.35679 C641.002533,1507.22225 639.598248,1505.29369 637.800735,1503.57108 C636.003223,1501.84846 633.868709,1500.25694 631.39713,1498.79646 C628.92555,1497.33598 626.26677,1495.96914 623.420709,1494.69591 C618.852032,1492.6737 614.320871,1490.48302 609.82709,1488.12378 C605.333309,1485.76455 601.288967,1483.06832 597.693942,1480.03502 C594.098918,1477.00172 591.196728,1473.53781 588.987286,1469.6432 C586.777843,1465.74859 585.673139,1461.25488 585.673139,1456.16193 C585.673139,1451.29367 586.684224,1446.85612 588.706426,1442.84917 C590.728627,1438.84221 593.574646,1435.41576 597.244567,1432.5697 C600.914488,1429.72364 605.295858,1427.51423 610.38881,1425.9414 C615.481761,1424.36858 621.098903,1423.58218 627.240403,1423.58218 C632.857629,1423.58218 637.838162,1424.10645 642.18215,1425.155 C646.526138,1426.20354 650.345794,1427.70145 653.641233,1429.64875 C656.936673,1431.59606 659.857586,1433.97398 662.404062,1436.7826 C664.950538,1439.59121 667.234842,1442.75553 669.257044,1446.27566 L649.035131,1453.24098 C647.986582,1449.57106 646.713364,1446.72505 645.215437,1444.70284 C643.71751,1442.68064 642.14471,1441.16401 640.49699,1440.15291 C638.849271,1439.14181 637.239023,1438.52393 635.6662,1438.29924 C634.093377,1438.07455 632.707815,1437.96221 631.509474,1437.96221 C629.33748,1437.96221 627.277861,1438.20562 625.330556,1438.69244 C623.383251,1439.17927 621.660661,1439.87205 620.162734,1440.77081 C618.664807,1441.66956 617.466484,1442.77427 616.567727,1444.08495 C615.668971,1445.39564 615.2196,1446.91227 615.2196,1448.63488 C615.2196,1450.80688 615.781314,1452.8665 616.904759,1454.8138 C618.028204,1456.76111 619.601004,1458.57731 621.623205,1460.26248 C623.645407,1461.94765 626.02333,1463.53917 628.757047,1465.0371 C631.490763,1466.53503 634.467849,1467.95804 637.688391,1469.30617 C642.556654,1471.32837 647.293777,1473.57523 651.899902,1476.04681 C656.506027,1478.51839 660.606541,1481.30823 664.201565,1484.41643 C667.79659,1487.52463 670.680056,1490.96981 672.85205,1494.75208 C675.024044,1498.53434 676.110025,1502.7472 676.110025,1507.39077 C676.110025,1512.40883 675.286178,1517.08978 673.638458,1521.43377 C671.990738,1525.77776 669.313234,1529.55996 665.605865,1532.78051 C661.898496,1536.00105 657.105202,1538.54749 651.225838,1540.4199 C645.346475,1542.2923 638.212705,1543.2285 629.824314,1543.2285 C622.634265,1543.2285 616.549028,1542.40465 611.568421,1540.75693 C606.587814,1539.10921 602.374958,1536.99342 598.929726,1534.40949 C595.484494,1531.82557 592.638476,1528.92338 590.391585,1525.70284 C588.144695,1522.48229 586.159971,1519.29925 584.437355,1516.1536 L604.322236,1508.51421 Z M687.183046,1439.9844 L687.183046,1431.78329 L705.719799,1425.60437 L705.719799,1402.23683 L730.098438,1389.42962 L740.546426,1389.42962 L740.546426,1425.60437 L768.74476,1425.60437 L768.74476,1439.9844 L740.546426,1439.9844 L740.546426,1514.01907 C740.546426,1516.34085 741.145588,1518.36302 742.34393,1520.08564 C743.542271,1521.80826 745.115071,1522.66955 747.062376,1522.66955 C748.260717,1522.66955 749.590108,1522.25763 751.050586,1521.43377 C752.511065,1520.60991 753.896627,1519.65499 755.207313,1518.569 C756.517999,1517.483 757.678875,1516.37829 758.689975,1515.25485 C759.701076,1514.1314 760.431304,1513.27011 760.880683,1512.67094 L772.789142,1522.10783 C770.841837,1525.10368 768.707323,1527.89353 766.385537,1530.47746 C764.06375,1533.06138 761.404969,1535.28951 758.409115,1537.16192 C755.413262,1539.03433 751.968081,1540.51351 748.073471,1541.59951 C744.178861,1542.6855 739.685148,1543.2285 734.592196,1543.2285 C729.723934,1543.2285 725.492354,1542.53571 721.897329,1541.15013 C718.302305,1539.76455 715.306496,1537.836 712.909813,1535.36442 C710.513129,1532.89284 708.715644,1529.93448 707.517303,1526.48925 C706.318961,1523.04401 705.719799,1519.22436 705.719799,1515.03016 L705.719799,1439.9844 L687.183046,1439.9844 Z M791.389208,1436.05236 L815.880191,1423.24515 L826.328179,1423.24515 L826.328179,1540.64458 L791.389208,1540.64458 L791.389208,1436.05236 Z M789.928737,1385.49758 C789.928737,1383.17579 790.415556,1380.96638 791.389208,1378.86928 C792.362861,1376.77219 793.710975,1374.9747 795.433591,1373.47677 C797.156207,1371.97885 799.14093,1370.78052 801.387821,1369.88177 C803.634711,1368.98301 806.068806,1368.53364 808.690178,1368.53364 C811.31155,1368.53364 813.764369,1368.98301 816.048707,1369.88177 C818.333046,1370.78052 820.317769,1371.97885 822.002937,1373.47677 C823.688105,1374.9747 825.017495,1376.77219 825.991147,1378.86928 C826.9648,1380.96638 827.451619,1383.17579 827.451619,1385.49758 C827.451619,1387.81937 826.9648,1390.01005 825.991147,1392.0697 C825.017495,1394.12935 823.688105,1395.90811 822.002937,1397.40604 C820.317769,1398.90396 818.333046,1400.10229 816.048707,1401.00104 C813.764369,1401.8998 811.31155,1402.34917 808.690178,1402.34917 C806.068806,1402.34917 803.634711,1401.8998 801.387821,1401.00104 C799.14093,1400.10229 797.156207,1398.90396 795.433591,1397.40604 C793.710975,1395.90811 792.362861,1394.12935 791.389208,1392.0697 C790.415556,1390.01005 789.928737,1387.81937 789.928737,1385.49758 Z M890.202861,1465.0371 L935.365132,1425.60437 L960.530178,1425.60437 L910.200085,1469.6432 L971.315198,1540.64458 L930.084966,1540.64458 L890.202861,1494.47122 L890.202861,1540.64458 L855.151546,1540.64458 L855.151546,1379.76804 L879.754873,1366.96083 L890.202861,1366.96083 L890.202861,1465.0371 Z M1039.12192,1542.77912 C1029.98456,1542.77912 1021.54013,1541.28121 1013.78836,1538.28536 C1006.03658,1535.28951 999.333461,1531.17027 993.678787,1525.92753 C988.024113,1520.68478 983.605295,1514.52465 980.4222,1507.44694 C977.239106,1500.36924 975.647582,1492.7112 975.647582,1484.47261 C975.647582,1475.63484 977.239106,1467.48998 980.4222,1460.03779 C983.605295,1452.58561 988.005389,1446.16334 993.622615,1440.77081 C999.239841,1435.37827 1005.92424,1431.16541 1013.67601,1428.13211 C1021.42778,1425.09881 1029.87222,1423.58218 1039.00957,1423.58218 C1048.14693,1423.58218 1056.61009,1425.06136 1064.39931,1428.01977 C1072.18853,1430.97817 1078.91037,1435.04124 1084.56505,1440.20909 C1090.21972,1445.37693 1094.65727,1451.46217 1097.87781,1458.46498 C1101.09835,1465.46779 1102.7086,1473.01348 1102.7086,1481.10229 C1102.7086,1489.56557 1101.11707,1497.54191 1097.93398,1505.03155 C1094.75089,1512.52118 1090.33207,1519.05579 1084.67739,1524.63557 C1079.02272,1530.21535 1072.30087,1534.63417 1064.51165,1537.89216 C1056.72243,1541.15015 1048.25927,1542.77912 1039.12192,1542.77912 Z M1043.1663,1528.73612 C1046.31195,1528.73612 1049.23286,1527.70632 1051.92913,1525.64667 C1054.6254,1523.58702 1056.96587,1520.81589 1058.95063,1517.33321 C1060.93538,1513.85053 1062.47073,1509.82491 1063.55673,1505.25624 C1064.64273,1500.68756 1065.18572,1495.93171 1065.18572,1490.98855 C1065.18572,1483.64871 1064.64273,1476.73963 1063.55673,1470.26109 C1062.47073,1463.78256 1060.69197,1458.10925 1058.22039,1453.24098 C1055.74881,1448.37272 1052.54704,1444.51562 1048.61498,1441.66956 C1044.68292,1438.8235 1039.87091,1437.40049 1034.17878,1437.40049 C1031.40762,1437.40049 1028.74884,1438.41157 1026.20236,1440.43377 C1023.65589,1442.45598 1021.40903,1445.17093 1019.46173,1448.57871 C1017.51442,1451.98649 1015.96034,1455.91849 1014.79945,1460.37483 C1013.63856,1464.83116 1013.05812,1469.53083 1013.05812,1474.47399 C1013.05812,1481.88873 1013.7509,1488.89143 1015.13648,1495.48231 C1016.52207,1502.07319 1018.50679,1507.8214 1021.09071,1512.72711 C1023.67464,1517.63282 1026.82024,1521.52737 1030.52761,1524.41088 C1034.23497,1527.29439 1038.44783,1528.73612 1043.1663,1528.73612 Z M1137.82323,1508.51421 C1139.84543,1514.80551 1142.74762,1519.69242 1146.52988,1523.1751 C1150.31215,1526.65778 1155.04927,1528.39909 1160.74139,1528.39909 C1163.13808,1528.39909 1165.32876,1528.09951 1167.31352,1527.50034 C1169.29827,1526.90117 1171.02086,1526.0586 1172.48134,1524.9726 C1173.94182,1523.8866 1175.06524,1522.63211 1175.85166,1521.20908 C1176.63807,1519.78605 1177.03127,1518.2507 1177.03127,1516.60298 C1177.03127,1513.90671 1176.52573,1511.49134 1175.51462,1509.35679 C1174.50352,1507.22225 1173.09924,1505.29369 1171.30173,1503.57108 C1169.50421,1501.84846 1167.3697,1500.25694 1164.89812,1498.79646 C1162.42654,1497.33598 1159.76776,1495.96914 1156.9217,1494.69591 C1152.35302,1492.6737 1147.82186,1490.48302 1143.32808,1488.12378 C1138.8343,1485.76455 1134.78996,1483.06832 1131.19493,1480.03502 C1127.59991,1477.00172 1124.69772,1473.53781 1122.48828,1469.6432 C1120.27883,1465.74859 1119.17413,1461.25488 1119.17413,1456.16193 C1119.17413,1451.29367 1120.18522,1446.85612 1122.20742,1442.84917 C1124.22962,1438.84221 1127.07564,1435.41576 1130.74556,1432.5697 C1134.41548,1429.72364 1138.79685,1427.51423 1143.8898,1425.9414 C1148.98275,1424.36858 1154.59989,1423.58218 1160.74139,1423.58218 C1166.35862,1423.58218 1171.33915,1424.10645 1175.68314,1425.155 C1180.02713,1426.20354 1183.84678,1427.70145 1187.14222,1429.64875 C1190.43766,1431.59606 1193.35858,1433.97398 1195.90505,1436.7826 C1198.45153,1439.59121 1200.73583,1442.75553 1202.75803,1446.27566 L1182.53612,1453.24098 C1181.48757,1449.57106 1180.21435,1446.72505 1178.71643,1444.70284 C1177.2185,1442.68064 1175.6457,1441.16401 1173.99798,1440.15291 C1172.35026,1439.14181 1170.74001,1438.52393 1169.16719,1438.29924 C1167.59437,1438.07455 1166.20881,1437.96221 1165.01046,1437.96221 C1162.83847,1437.96221 1160.77885,1438.20562 1158.83155,1438.69244 C1156.88424,1439.17927 1155.16165,1439.87205 1153.66372,1440.77081 C1152.1658,1441.66956 1150.96747,1442.77427 1150.06872,1444.08495 C1149.16996,1445.39564 1148.72059,1446.91227 1148.72059,1448.63488 C1148.72059,1450.80688 1149.2823,1452.8665 1150.40575,1454.8138 C1151.52919,1456.76111 1153.10199,1458.57731 1155.1242,1460.26248 C1157.1464,1461.94765 1159.52432,1463.53917 1162.25804,1465.0371 C1164.99175,1466.53503 1167.96884,1467.95804 1171.18938,1469.30617 C1176.05764,1471.32837 1180.79477,1473.57523 1185.40089,1476.04681 C1190.00702,1478.51839 1194.10753,1481.30823 1197.70256,1484.41643 C1201.29758,1487.52463 1204.18105,1490.96981 1206.35304,1494.75208 C1208.52503,1498.53434 1209.61102,1502.7472 1209.61102,1507.39077 C1209.61102,1512.40883 1208.78717,1517.08978 1207.13945,1521.43377 C1205.49173,1525.77776 1202.81422,1529.55996 1199.10686,1532.78051 C1195.39949,1536.00105 1190.60619,1538.54749 1184.72683,1540.4199 C1178.84747,1542.2923 1171.7137,1543.2285 1163.3253,1543.2285 C1156.13526,1543.2285 1150.05002,1542.40465 1145.06941,1540.75693 C1140.0888,1539.10921 1135.87595,1536.99342 1132.43072,1534.40949 C1128.98548,1531.82557 1126.13947,1528.92338 1123.89258,1525.70284 C1121.64569,1522.48229 1119.66096,1519.29925 1117.93835,1516.1536 L1137.82323,1508.51421 Z" id="Mystikos" fill="#144A4E"></path>
        <g id="Group-3" transform="translate(255.500000, 246.104380)" fill-rule="nonzero">
            <g id="Oval">
                <circle stroke="#144A4E" stroke-width="22" stroke-linejoin="square" fill="#D8F2E9" fill-rule="evenodd" cx="484.606718" cy="484.414864" r="473.325064"></circle>
                <circle stroke="#D8F2E9" stroke-width="20" cx="484.606718" cy="484.414864" r="494.325064"></circle>
            </g>
            <path d="M65.7979736,538.5 L902.529297,538.5" id="Path-2" stroke="#144A4E" stroke-width="20" stroke-linecap="round"></path>
            <path d="M74.7979736,589.5 L894.529297,589.5" id="Path-2" stroke="#144A4E" stroke-width="20" stroke-linecap="round"></path>
            <path d="M90.7979736,640.5 L878.529297,640.5" id="blottom" stroke="#144A4E" stroke-width="20" stroke-linecap="round"></path>
            <path d="M90.7979736,640.5 L878.529297,640.5" id="blottom" stroke="#144A4E" stroke-width="20" stroke-linecap="round"></path>
            <path d="M112.797974,692.5 L856.529297,692.5" id="blottom" stroke="#144A4E" stroke-width="20" stroke-linecap="round"></path>
            <path d="M144.797974,743.5 L824.529297,743.5" id="blottom" stroke="#144A4E" stroke-width="20" stroke-linecap="round"></path>
            <path d="M188.797974,795.5 L782.529297,795.5" id="blottom" stroke="#144A4E" stroke-width="20" stroke-linecap="round"></path>
            <path d="M245.797974,846.5 L724.529297,846.5" id="blottom" stroke="#144A4E" stroke-width="20" stroke-linecap="round"></path>
            <path d="M324.797974,893.5 L644.529297,893.5" id="blottom" stroke="#144A4E" stroke-width="20" stroke-linecap="round"></path>
            <path d="M65.7979736,435.5 L135.797974,435.5" id="top-half" stroke="#144A4E" stroke-width="20" stroke-linecap="round"></path>
            <path d="M115.797974,390.5 L215.797974,390.5" id="top-half" stroke="#144A4E" stroke-width="20" stroke-linecap="round"></path>
            <path d="M200.797974,163.5 L300.797974,163.5" id="top-half" stroke="#144A4E" stroke-width="20" stroke-linecap="round"></path>
            <path d="M330.797974,118.5 L440.797974,118.5" id="top-half" stroke="#144A4E" stroke-width="20" stroke-linecap="round"></path>
            <path d="M380.797974,73.5 L540.797974,73.5" id="top-half" stroke="#144A4E" stroke-width="20" stroke-linecap="round"></path>
            <path d="M580.797974,118.5 L650.797974,118.5" id="top-half" stroke="#144A4E" stroke-width="20" stroke-linecap="round"></path>
            <path d="M660.797974,162.5 L730.797974,162.5" id="top-half" stroke="#144A4E" stroke-width="20" stroke-linecap="round"></path>
            <path d="M95.7979736,345.5 L195.797974,345.5" id="top-half" stroke="#144A4E" stroke-width="20" stroke-linecap="round"></path>
            <path d="M98.7979736,300.5 L142.797974,300.5" id="top-half" stroke="#144A4E" stroke-width="20" stroke-linecap="round"></path>
            <path d="M780.797974,435.5 L854.797974,435.5" id="top-half" stroke="#144A4E" stroke-width="20" stroke-linecap="round"></path>
            <path d="M785.797974,343.5 L830.797974,343.5" id="top-half" stroke="#144A4E" stroke-width="20" stroke-linecap="round"></path>
            <path d="M813.797974,297.5 L860.797974,297.5" id="top-half" stroke="#144A4E" stroke-width="20" stroke-linecap="round"></path>
            <path d="M834.797974,390.5 L899.797974,390.5" id="top-half" stroke="#144A4E" stroke-width="20" stroke-linecap="round"></path>
            <path d="M681.029297,209.5 L818.029297,209.5" id="top-half" stroke="#144A4E" stroke-width="20" stroke-linecap="round"></path>
            <path d="M763.029297,254.5 L818.029297,254.5" id="top-half" stroke="#144A4E" stroke-width="20" stroke-linecap="round"></path>
            <path d="M681.029297,209.5 L818.029297,209.5" id="top-half" stroke="#144A4E" stroke-width="20" stroke-linecap="round"></path>
            <path d="M122.797974,252.5 L217.797974,252.5" id="top-half" stroke="#144A4E" stroke-width="20" stroke-linecap="round"></path>
            <path d="M202.797974,207.5 L267.797974,207.5" id="top-half" stroke="#144A4E" stroke-width="20" stroke-linecap="round"></path>
            <path d="M224.594313,289.715512 L487.539922,140.775214 L755.373854,294.780361 L755.373854,660.786649 L487.862674,817.237671 L224.594313,661.743809 L224.594313,289.715512 Z" id="Path-22" stroke="#D8F2E9" stroke-width="30" fill="url(#linearGradient-2)" stroke-linecap="round" stroke-linejoin="round"></path>
            <path d="M16.7979736,485.5 L958.529297,485.5" id="Path-2" stroke="#144A4E" stroke-width="22"></path>
        </g>
        <g id="icon" transform="translate(485.000000, 398.604380)">
            <path d="M11.6872986,139.030404 C15.6107825,136.94139 92.6439583,92.1507447 242.786826,4.65846832 C246.70884,1.79483351 250.921834,0.363016104 255.425805,0.363016104 C259.929777,0.363016104 264.199645,1.79483351 268.235408,4.65846832 L499.977769,139.030404 C506.469006,143.74113 509.714624,150.659325 509.714624,159.784989 C509.714624,168.910653 509.714624,277.708768 509.714624,486.179332 C509.420961,493.980489 506.175343,499.615852 499.977769,503.085422 C490.681409,508.289776 270.18557,641.877844 266.186181,644.549702 C259.96184,649.041614 249.820197,649.041614 242.786826,644.549702 C238.097912,641.555094 161.064736,594.400334 11.6872986,503.085422 C3.94637994,499.692742 0.0759205908,494.057378 0.0759205908,486.179332 C0.0759205908,478.301285 0.0759205908,369.503171 0.0759205908,159.784989 C0.0759205908,151.508944 3.94637994,144.590748 11.6872986,139.030404 Z" id="Path-6" fill="#144A4E" fill-rule="nonzero"></path>
            <g id="Group" transform="translate(20.296111, 19.699166)">
                <mask id="mask-4" fill="white">
                    <use xlink:href="#path-3"></use>
                </mask>
                <use id="Path-6" fill="#FFFFFF" fill-rule="nonzero" xlink:href="#path-3"></use>
                <rect id="Rectangle" fill="url(#radialGradient-5)" fill-rule="nonzero" mask="url(#mask-4)" x="-18.3685978" y="113.311143" width="507.84136" height="503.614381"></rect>
                <path d="M36.2072812,543.866001 L36.2072812,280.913983 C35.9745248,274.562801 37.4224843,270.516075 40.5511595,268.773804 C45.2441724,266.160399 52.879033,267.17017 56.055301,268.773804 C58.1728129,269.842894 115.644983,306.17929 228.47181,377.782991 C232.263607,380.118868 236.239921,380.118868 240.400752,377.782991 C244.561583,375.447114 301.494781,339.48917 411.200348,269.909159 C416.562087,266.664102 421.18554,266.285651 425.070707,268.773804 C430.898457,272.506035 431.238975,279.163191 431.238975,280.913983 C431.238975,282.081177 431.238975,367.089482 431.238975,535.938898 L431.238975,553.883766 L233.711041,673.853857 L36.2072812,553.883766 L36.2072812,543.866001 Z" id="Path-7" fill="#144A4E" fill-rule="nonzero" mask="url(#mask-4)"></path>
                <g id="Group-2" mask="url(#mask-4)">
                    <g transform="translate(59.097499, 302.429706)">
                        <mask id="mask-7" fill="white">
                            <use xlink:href="#path-6"></use>
                        </mask>
                        <use id="Path-7" stroke="none" fill="#FFFFFF" fill-rule="nonzero" xlink:href="#path-6"></use>
                    </g>
                </g>
            </g>
            <path d="M26.1511754,151.205717 C29.8434743,149.009906 102.337595,106.206188 243.633539,22.7945632 C247.324455,20.9852395 251.289204,20.0805776 255.527787,20.0805776 C259.766369,20.0805776 263.784642,21.3819385 267.582604,23.9846602 L485.669923,152.395814 C491.778674,173.563278 494.833049,186.137528 494.833049,190.118564 C494.833049,191.673213 494.418511,199.691895 485.669923,205.162313 C476.921336,210.63273 271.448923,340.78905 266.265091,343.472263 C258.640767,348.478512 250.279257,347.30142 243.633539,343.472263 C239.20306,340.919492 166.708939,294.816176 26.1511754,205.162313 C19.2630768,200.135971 15.8190274,194.21251 15.8190274,187.391929 C15.8190274,177.161058 13.3432784,159.169691 26.1511754,151.205717 Z" id="Path-6" fill="#144A4E" fill-rule="nonzero"></path>
            <path d="M31.8169565,151.311525 C35.395736,149.161294 106.001052,107.472809 243.632906,26.2460712 C247.227656,23.7111624 251.089106,22.4437079 255.217254,22.4437079 C259.345402,22.4437079 263.25898,23.7111624 266.957988,26.2460712 C379.220155,91.4383556 450.02187,133.12684 479.363132,151.311525 C485.393146,155.13895 488.378014,162.181684 488.287516,166.60827 C488.378014,170.825627 487.883778,175.932171 479.363132,181.260059 C470.842485,186.587947 270.723571,313.353097 265.674803,315.9664 C258.249127,320.842213 250.105472,319.69579 243.632906,315.9664 C239.317861,313.480141 168.712545,268.578027 31.8169565,181.260059 C24.5703408,176.711698 20.947033,171.330072 20.947033,165.11518 C20.947033,157.897468 26.1634197,154.708329 31.8169565,151.311525 Z" id="Path-6" fill="#FFFFFF" fill-rule="nonzero"></path>
            <g id="beams-right" transform="translate(334.492553, 470.991505) scale(-1, 1) translate(-334.492553, -470.991505) translate(240.992553, 321.491505)" fill-rule="nonzero">
                <polygon id="Path-10" fill="#BAF3F2" transform="translate(81.562867, 149.357026) scale(-1, 1) translate(-81.562867, -149.357026) " points="162.657194 0.232610723 162.657194 200.102732 0.468539972 298.48144 0.468539972 98.7946368"></polygon>
                <path d="M45.8218784,103.840803 L172.178164,102.491096 C177.500569,102.434243 182.454492,105.202216 185.19589,109.764669 L186.380855,111.736781 C188.144132,114.671368 187.194599,118.47974 184.260011,120.243018 C183.304783,120.816977 182.212494,121.122819 181.098106,121.128354 L45.8222788,121.8003 C40.901593,121.824742 36.8927748,117.855553 36.8683327,112.934867 C36.8682594,112.920115 36.8682227,112.905363 36.8682227,112.890611 L36.8682227,112.890611 C36.8682227,107.929965 40.861516,103.893789 45.8218784,103.840803 Z" id="Rectangle-8" fill="#144A4E" transform="translate(112.067712, 112.146029) rotate(31.000000) translate(-112.067712, -112.146029) "></path>
                <path d="M74.5023283,163.629112 L171.822337,163.085276 C177.117703,163.055684 182.03631,165.820385 184.763667,170.35947 L185.974724,172.375007 C187.725801,175.289288 186.782837,179.071308 183.868556,180.822385 C182.909263,181.398786 181.810989,181.702778 180.691846,181.701669 L74.5024637,181.596361 C69.5557808,181.591456 65.5483017,177.58 65.5483017,172.633315 L65.5483017,172.633315 C65.5483017,167.679992 69.5490828,163.656792 74.5023283,163.629112 Z" id="Rectangle-8" fill="#144A4E" transform="translate(126.201620, 172.393724) rotate(31.000000) translate(-126.201620, -172.393724) "></path>
                <path d="M100.852823,222.197559 L173.52283,221.375354 C178.848584,221.315097 183.8069,224.083468 186.550042,228.648823 L187.731761,230.615534 C189.489994,233.541725 188.543177,237.339201 185.616986,239.097434 C184.660063,239.672411 183.565286,239.977498 182.448912,239.980295 L100.853368,240.184758 C95.9205099,240.197118 91.9116182,236.208268 91.8992574,231.27541 C91.8992387,231.267949 91.8992293,231.260489 91.8992293,231.253029 L91.8992293,231.253029 C91.8992293,226.291476 95.891588,222.253692 100.852823,222.197559 Z" id="Rectangle-8" fill="#144A4E" transform="translate(140.257400, 230.780335) rotate(31.000000) translate(-140.257400, -230.780335) "></path>
            </g>
            <g id="beams-left" transform="translate(77.602776, 324.140826)" fill-rule="nonzero">
                <polygon id="Path-10" points="0.463666677 0 0.463666677 196.01128 167.473882 297.804588 167.473882 86.7056686"></polygon>
                <path d="M62.5314469,95.2042777 L127.071581,94.7746532 C132.372629,94.7393657 137.298636,97.5047634 140.028938,102.04875 L141.234527,104.055187 C142.993389,106.982425 142.046234,110.781259 139.118996,112.540121 C138.162283,113.114972 137.067815,113.420153 135.951687,113.423293 L71.3681037,113.604958 C66.087522,113.619811 61.1881126,110.856948 58.4684013,106.330588 L57.3397666,104.452225 C55.6034436,101.562498 56.538462,97.8123436 59.4281888,96.0760206 C60.3658154,95.5126377 61.4376046,95.2115591 62.5314469,95.2042777 Z" id="Rectangle-8" fill="#144A4E" transform="translate(99.292812, 104.189922) rotate(31.000000) translate(-99.292812, -104.189922) "></path>
                <path d="M34.5014253,141.612789 L125.117331,141.573952 C130.385183,141.571694 135.268125,144.332949 137.981269,148.84838 L139.218681,150.907777 C140.966685,153.816946 140.025376,157.59233 137.116208,159.340335 C136.155909,159.917341 135.056145,160.220855 133.935831,160.21806 L43.2852937,159.991858 C38.0330886,159.978753 33.1703077,157.219509 30.4652137,152.717476 L29.3095088,150.79406 C27.5857294,147.92521 28.5139931,144.202147 31.3828438,142.478368 C32.3246777,141.912457 33.4026505,141.61326 34.5014253,141.612789 Z" id="Rectangle-8" fill="#144A4E" transform="translate(84.270183, 150.896043) rotate(31.000000) translate(-84.270183, -150.896043) "></path>
                <path d="M38.4306082,185.270554 L84.8336908,185.365178 C90.0883393,185.375894 94.954263,188.135454 97.6606127,192.639576 L98.9106018,194.719907 C100.649576,197.614046 99.7131299,201.369927 96.8189908,203.108901 C95.8557736,203.68766 94.751674,203.989743 93.6279796,203.981964 L47.1706074,203.660363 C41.9421663,203.624169 37.1098436,200.86805 34.4169328,196.386293 L33.238713,194.425406 C31.5198916,191.564807 32.4454854,187.852453 35.3060846,186.133632 C36.2495494,185.566741 37.329933,185.26831 38.4306082,185.270554 Z" id="Rectangle-8" fill="#144A4E" transform="translate(66.079723, 194.626326) rotate(31.000000) translate(-66.079723, -194.626326) "></path>
            </g>
            <rect id="Rectangle-7" fill="#144A4E" fill-rule="nonzero" x="243.254856" y="407.561042" width="23.2808328" height="222.846235"></rect>
            <path d="M175.483973,88.4817338 L250.072681,46.1630029 C254.590755,43.5996234 260.367994,45.1208467 262.976505,49.5607502 C265.585017,54.0006538 264.03701,59.6779365 259.518936,62.241316 L184.930228,104.560047 C180.412154,107.123426 174.634915,105.602203 172.026404,101.1623 C169.417892,96.722396 170.965899,91.0451133 175.483973,88.4817338 Z" id="Rectangle-2" fill="#144A4E" fill-rule="nonzero"></path>
            <path d="M288.80954,62.3415323 C293.233826,65.0583007 294.579267,70.7852149 291.814666,75.1329531 C289.050065,79.4806913 283.222321,80.8028536 278.798035,78.0860853 L252.880486,62.1712067 C248.4562,59.4544383 247.110759,53.7275242 249.87536,49.3797859 C252.639961,45.0320477 258.467705,43.7098854 262.891991,46.4266537 L288.80954,62.3415323 Z" id="Rectangle-2" fill="#144A4E" fill-rule="nonzero"></path>
        </g>
    </g>
</svg>