<?xml version="1.0" encoding="UTF-8"?>
<svg width="1480px" height="1729px" viewBox="0 0 1480 1729" version="1.1" xmlns="http://www.w3.org/2000/svg" xmlns:xlink="http://www.w3.org/1999/xlink">
    <!-- Generator: Sketch 51.3 (57544) - http://www.bohemiancoding.com/sketch -->
    <title>[dark] larger setting w/border (vertical)</title>
    <desc>Created with Sketch.</desc>
    <defs>
        <path d="M13.6935909,161.779408 C18.194817,159.102527 106.571308,106.921159 278.823065,5.2353036 C283.322605,2.06236477 288.155971,0.475895354 293.323163,0.475895354 C298.490356,0.475895354 303.388971,2.06236477 308.01901,5.2353036 L573.885976,161.779408 C581.333062,167.815772 585.056605,176.680806 585.056605,188.374509 C585.056605,200.068213 585.056605,325.57972 585.056605,564.909031 C584.7197,574.9055 580.996157,582.126702 573.885976,586.572638 C563.220705,593.241542 312.732381,744.464945 306.41285,747.736009 C297.118151,753.839051 286.924759,752.404076 278.823065,747.736009 C273.421935,744.623965 185.045444,690.902841 13.6935909,586.572638 C4.81280386,582.225229 0.372410315,575.004026 0.372410315,564.909031 C0.372410315,554.814036 0.372410315,429.302528 0.372410315,188.374509 C0.372410315,177.769514 4.81280386,168.90448 13.6935909,161.779408 Z" id="path-1"></path>
        <radialGradient cx="50%" cy="29.1447596%" fx="50%" fy="29.1447596%" r="50%" gradientTransform="translate(0.500000,0.291448),scale(0.991677,1.000000),rotate(90.000000),scale(1.000000,0.980340),translate(-0.500000,-0.291448)" id="radialGradient-3">
            <stop stop-color="#FFFFFF" offset="0%"></stop>
            <stop stop-color="#E9FCF0" stop-opacity="0.591931329" offset="29.302661%"></stop>
            <stop stop-color="#74EBA3" offset="100%"></stop>
        </radialGradient>
        <path d="M0.487379271,352.362075 L0.487379271,4.09078548 C1.2105684,0.673324927 2.89319597,-0.368442015 5.53526199,0.965484653 C8.177328,2.29941132 76.7762521,43.9013607 211.332034,125.771333 C216.063143,128.685857 221.024477,128.685857 226.216036,125.771333 C231.407596,122.856808 299.945081,81.254859 431.82849,0.965484653 C433.633656,1.59268448 434.536239,2.63445142 434.536239,4.09078548 C434.536239,5.54711953 434.536239,118.34061 434.536239,342.471256 L434.536239,364.86146 L217.869137,495.185432 L0.487379271,364.86146 L0.487379271,352.362075 Z" id="path-4"></path>
    </defs>
    <g id="[dark]-larger-setting-w/border-(vertical)" stroke="none" stroke-width="1" fill="none" fill-rule="evenodd">
        <path d="M255.5,1248.30618 L291.899442,1248.30618 L344.588759,1352.33668 L396.491667,1248.30618 L432.104702,1248.30618 L432.104702,1400.64458 L394.806508,1400.64458 L394.806508,1301.33253 L345.038134,1400.64458 L330.658108,1400.64458 L279.204575,1300.20909 L279.204575,1400.64458 L255.5,1400.64458 L255.5,1248.30618 Z M465.524153,1427.83182 C466.273116,1428.2063 467.265478,1428.69312 468.501268,1429.29229 C469.737057,1429.89146 471.085171,1430.45318 472.54565,1430.97745 C474.006129,1431.50173 475.560205,1431.9511 477.207924,1432.32558 C478.855644,1432.70006 480.503339,1432.8873 482.151058,1432.8873 C483.499193,1432.8873 484.847307,1432.1009 486.195441,1430.52808 C487.543575,1428.95525 488.816794,1427.12032 490.015135,1425.02322 C491.213477,1422.92613 492.280734,1420.82906 493.216938,1418.73196 C494.153143,1416.63486 494.845923,1415.09951 495.295301,1414.12586 L505.293914,1392.44348 L449.234279,1285.60437 L486.083097,1285.60437 L522.370195,1354.47122 L554.500567,1285.60437 L579.103894,1285.60437 L515.517214,1424.12447 C513.420116,1428.61825 510.761336,1432.70004 507.540793,1436.36996 C504.32025,1440.03988 500.800174,1443.16676 496.980461,1445.75068 C493.160747,1448.33461 489.172577,1450.33805 485.015829,1451.76108 C480.859082,1453.18412 476.758569,1453.89562 472.714166,1453.89562 C469.34383,1453.89562 466.235679,1453.50242 463.389617,1452.71601 C460.543556,1451.9296 458.072014,1450.75 455.974916,1449.17717 L465.524153,1427.83182 Z M604.322236,1368.51421 C606.344437,1374.80551 609.246627,1379.69242 613.028893,1383.1751 C616.811158,1386.65778 621.548281,1388.39909 627.240403,1388.39909 C629.637086,1388.39909 631.827772,1388.09951 633.812525,1387.50034 C635.797278,1386.90117 637.519868,1386.0586 638.980347,1384.9726 C640.440826,1383.8866 641.564254,1382.63211 642.350666,1381.20908 C643.137077,1379.78605 643.530277,1378.2507 643.530277,1376.60298 C643.530277,1373.90671 643.024734,1371.49134 642.013634,1369.35679 C641.002533,1367.22225 639.598248,1365.29369 637.800735,1363.57108 C636.003223,1361.84846 633.868709,1360.25694 631.39713,1358.79646 C628.92555,1357.33598 626.26677,1355.96914 623.420709,1354.69591 C618.852032,1352.6737 614.320871,1350.48302 609.82709,1348.12378 C605.333309,1345.76455 601.288967,1343.06832 597.693942,1340.03502 C594.098918,1337.00172 591.196728,1333.53781 588.987286,1329.6432 C586.777843,1325.74859 585.673139,1321.25488 585.673139,1316.16193 C585.673139,1311.29367 586.684224,1306.85612 588.706426,1302.84917 C590.728627,1298.84221 593.574646,1295.41576 597.244567,1292.5697 C600.914488,1289.72364 605.295858,1287.51423 610.38881,1285.9414 C615.481761,1284.36858 621.098903,1283.58218 627.240403,1283.58218 C632.857629,1283.58218 637.838162,1284.10645 642.18215,1285.155 C646.526138,1286.20354 650.345794,1287.70145 653.641233,1289.64875 C656.936673,1291.59606 659.857586,1293.97398 662.404062,1296.7826 C664.950538,1299.59121 667.234842,1302.75553 669.257044,1306.27566 L649.035131,1313.24098 C647.986582,1309.57106 646.713364,1306.72505 645.215437,1304.70284 C643.71751,1302.68064 642.14471,1301.16401 640.49699,1300.15291 C638.849271,1299.14181 637.239023,1298.52393 635.6662,1298.29924 C634.093377,1298.07455 632.707815,1297.96221 631.509474,1297.96221 C629.33748,1297.96221 627.277861,1298.20562 625.330556,1298.69244 C623.383251,1299.17927 621.660661,1299.87205 620.162734,1300.77081 C618.664807,1301.66956 617.466484,1302.77427 616.567727,1304.08495 C615.668971,1305.39564 615.2196,1306.91227 615.2196,1308.63488 C615.2196,1310.80688 615.781314,1312.8665 616.904759,1314.8138 C618.028204,1316.76111 619.601004,1318.57731 621.623205,1320.26248 C623.645407,1321.94765 626.02333,1323.53917 628.757047,1325.0371 C631.490763,1326.53503 634.467849,1327.95804 637.688391,1329.30617 C642.556654,1331.32837 647.293777,1333.57523 651.899902,1336.04681 C656.506027,1338.51839 660.606541,1341.30823 664.201565,1344.41643 C667.79659,1347.52463 670.680056,1350.96981 672.85205,1354.75208 C675.024044,1358.53434 676.110025,1362.7472 676.110025,1367.39077 C676.110025,1372.40883 675.286178,1377.08978 673.638458,1381.43377 C671.990738,1385.77776 669.313234,1389.55996 665.605865,1392.78051 C661.898496,1396.00105 657.105202,1398.54749 651.225838,1400.4199 C645.346475,1402.2923 638.212705,1403.2285 629.824314,1403.2285 C622.634265,1403.2285 616.549028,1402.40465 611.568421,1400.75693 C606.587814,1399.10921 602.374958,1396.99342 598.929726,1394.40949 C595.484494,1391.82557 592.638476,1388.92338 590.391585,1385.70284 C588.144695,1382.48229 586.159971,1379.29925 584.437355,1376.1536 L604.322236,1368.51421 Z M687.183046,1299.9844 L687.183046,1291.78329 L705.719799,1285.60437 L705.719799,1262.23683 L730.098438,1249.42962 L740.546426,1249.42962 L740.546426,1285.60437 L768.74476,1285.60437 L768.74476,1299.9844 L740.546426,1299.9844 L740.546426,1374.01907 C740.546426,1376.34085 741.145588,1378.36302 742.34393,1380.08564 C743.542271,1381.80826 745.115071,1382.66955 747.062376,1382.66955 C748.260717,1382.66955 749.590108,1382.25763 751.050586,1381.43377 C752.511065,1380.60991 753.896627,1379.65499 755.207313,1378.569 C756.517999,1377.483 757.678875,1376.37829 758.689975,1375.25485 C759.701076,1374.1314 760.431304,1373.27011 760.880683,1372.67094 L772.789142,1382.10783 C770.841837,1385.10368 768.707323,1387.89353 766.385537,1390.47746 C764.06375,1393.06138 761.404969,1395.28951 758.409115,1397.16192 C755.413262,1399.03433 751.968081,1400.51351 748.073471,1401.59951 C744.178861,1402.6855 739.685148,1403.2285 734.592196,1403.2285 C729.723934,1403.2285 725.492354,1402.53571 721.897329,1401.15013 C718.302305,1399.76455 715.306496,1397.836 712.909813,1395.36442 C710.513129,1392.89284 708.715644,1389.93448 707.517303,1386.48925 C706.318961,1383.04401 705.719799,1379.22436 705.719799,1375.03016 L705.719799,1299.9844 L687.183046,1299.9844 Z M791.389208,1296.05236 L815.880191,1283.24515 L826.328179,1283.24515 L826.328179,1400.64458 L791.389208,1400.64458 L791.389208,1296.05236 Z M789.928737,1245.49758 C789.928737,1243.17579 790.415556,1240.96638 791.389208,1238.86928 C792.362861,1236.77219 793.710975,1234.9747 795.433591,1233.47677 C797.156207,1231.97885 799.14093,1230.78052 801.387821,1229.88177 C803.634711,1228.98301 806.068806,1228.53364 808.690178,1228.53364 C811.31155,1228.53364 813.764369,1228.98301 816.048707,1229.88177 C818.333046,1230.78052 820.317769,1231.97885 822.002937,1233.47677 C823.688105,1234.9747 825.017495,1236.77219 825.991147,1238.86928 C826.9648,1240.96638 827.451619,1243.17579 827.451619,1245.49758 C827.451619,1247.81937 826.9648,1250.01005 825.991147,1252.0697 C825.017495,1254.12935 823.688105,1255.90811 822.002937,1257.40604 C820.317769,1258.90396 818.333046,1260.10229 816.048707,1261.00104 C813.764369,1261.8998 811.31155,1262.34917 808.690178,1262.34917 C806.068806,1262.34917 803.634711,1261.8998 801.387821,1261.00104 C799.14093,1260.10229 797.156207,1258.90396 795.433591,1257.40604 C793.710975,1255.90811 792.362861,1254.12935 791.389208,1252.0697 C790.415556,1250.01005 789.928737,1247.81937 789.928737,1245.49758 Z M890.202861,1325.0371 L935.365132,1285.60437 L960.530178,1285.60437 L910.200085,1329.6432 L971.315198,1400.64458 L930.084966,1400.64458 L890.202861,1354.47122 L890.202861,1400.64458 L855.151546,1400.64458 L855.151546,1239.76804 L879.754873,1226.96083 L890.202861,1226.96083 L890.202861,1325.0371 Z M1039.12192,1402.77912 C1029.98456,1402.77912 1021.54013,1401.28121 1013.78836,1398.28536 C1006.03658,1395.28951 999.333461,1391.17027 993.678787,1385.92753 C988.024113,1380.68478 983.605295,1374.52465 980.4222,1367.44694 C977.239106,1360.36924 975.647582,1352.7112 975.647582,1344.47261 C975.647582,1335.63484 977.239106,1327.48998 980.4222,1320.03779 C983.605295,1312.58561 988.005389,1306.16334 993.622615,1300.77081 C999.239841,1295.37827 1005.92424,1291.16541 1013.67601,1288.13211 C1021.42778,1285.09881 1029.87222,1283.58218 1039.00957,1283.58218 C1048.14693,1283.58218 1056.61009,1285.06136 1064.39931,1288.01977 C1072.18853,1290.97817 1078.91037,1295.04124 1084.56505,1300.20909 C1090.21972,1305.37693 1094.65727,1311.46217 1097.87781,1318.46498 C1101.09835,1325.46779 1102.7086,1333.01348 1102.7086,1341.10229 C1102.7086,1349.56557 1101.11707,1357.54191 1097.93398,1365.03155 C1094.75089,1372.52118 1090.33207,1379.05579 1084.67739,1384.63557 C1079.02272,1390.21535 1072.30087,1394.63417 1064.51165,1397.89216 C1056.72243,1401.15015 1048.25927,1402.77912 1039.12192,1402.77912 Z M1043.1663,1388.73612 C1046.31195,1388.73612 1049.23286,1387.70632 1051.92913,1385.64667 C1054.6254,1383.58702 1056.96587,1380.81589 1058.95063,1377.33321 C1060.93538,1373.85053 1062.47073,1369.82491 1063.55673,1365.25624 C1064.64273,1360.68756 1065.18572,1355.93171 1065.18572,1350.98855 C1065.18572,1343.64871 1064.64273,1336.73963 1063.55673,1330.26109 C1062.47073,1323.78256 1060.69197,1318.10925 1058.22039,1313.24098 C1055.74881,1308.37272 1052.54704,1304.51562 1048.61498,1301.66956 C1044.68292,1298.8235 1039.87091,1297.40049 1034.17878,1297.40049 C1031.40762,1297.40049 1028.74884,1298.41157 1026.20236,1300.43377 C1023.65589,1302.45598 1021.40903,1305.17093 1019.46173,1308.57871 C1017.51442,1311.98649 1015.96034,1315.91849 1014.79945,1320.37483 C1013.63856,1324.83116 1013.05812,1329.53083 1013.05812,1334.47399 C1013.05812,1341.88873 1013.7509,1348.89143 1015.13648,1355.48231 C1016.52207,1362.07319 1018.50679,1367.8214 1021.09071,1372.72711 C1023.67464,1377.63282 1026.82024,1381.52737 1030.52761,1384.41088 C1034.23497,1387.29439 1038.44783,1388.73612 1043.1663,1388.73612 Z M1137.82323,1368.51421 C1139.84543,1374.80551 1142.74762,1379.69242 1146.52988,1383.1751 C1150.31215,1386.65778 1155.04927,1388.39909 1160.74139,1388.39909 C1163.13808,1388.39909 1165.32876,1388.09951 1167.31352,1387.50034 C1169.29827,1386.90117 1171.02086,1386.0586 1172.48134,1384.9726 C1173.94182,1383.8866 1175.06524,1382.63211 1175.85166,1381.20908 C1176.63807,1379.78605 1177.03127,1378.2507 1177.03127,1376.60298 C1177.03127,1373.90671 1176.52573,1371.49134 1175.51462,1369.35679 C1174.50352,1367.22225 1173.09924,1365.29369 1171.30173,1363.57108 C1169.50421,1361.84846 1167.3697,1360.25694 1164.89812,1358.79646 C1162.42654,1357.33598 1159.76776,1355.96914 1156.9217,1354.69591 C1152.35302,1352.6737 1147.82186,1350.48302 1143.32808,1348.12378 C1138.8343,1345.76455 1134.78996,1343.06832 1131.19493,1340.03502 C1127.59991,1337.00172 1124.69772,1333.53781 1122.48828,1329.6432 C1120.27883,1325.74859 1119.17413,1321.25488 1119.17413,1316.16193 C1119.17413,1311.29367 1120.18522,1306.85612 1122.20742,1302.84917 C1124.22962,1298.84221 1127.07564,1295.41576 1130.74556,1292.5697 C1134.41548,1289.72364 1138.79685,1287.51423 1143.8898,1285.9414 C1148.98275,1284.36858 1154.59989,1283.58218 1160.74139,1283.58218 C1166.35862,1283.58218 1171.33915,1284.10645 1175.68314,1285.155 C1180.02713,1286.20354 1183.84678,1287.70145 1187.14222,1289.64875 C1190.43766,1291.59606 1193.35858,1293.97398 1195.90505,1296.7826 C1198.45153,1299.59121 1200.73583,1302.75553 1202.75803,1306.27566 L1182.53612,1313.24098 C1181.48757,1309.57106 1180.21435,1306.72505 1178.71643,1304.70284 C1177.2185,1302.68064 1175.6457,1301.16401 1173.99798,1300.15291 C1172.35026,1299.14181 1170.74001,1298.52393 1169.16719,1298.29924 C1167.59437,1298.07455 1166.20881,1297.96221 1165.01046,1297.96221 C1162.83847,1297.96221 1160.77885,1298.20562 1158.83155,1298.69244 C1156.88424,1299.17927 1155.16165,1299.87205 1153.66372,1300.77081 C1152.1658,1301.66956 1150.96747,1302.77427 1150.06872,1304.08495 C1149.16996,1305.39564 1148.72059,1306.91227 1148.72059,1308.63488 C1148.72059,1310.80688 1149.2823,1312.8665 1150.40575,1314.8138 C1151.52919,1316.76111 1153.10199,1318.57731 1155.1242,1320.26248 C1157.1464,1321.94765 1159.52432,1323.53917 1162.25804,1325.0371 C1164.99175,1326.53503 1167.96884,1327.95804 1171.18938,1329.30617 C1176.05764,1331.32837 1180.79477,1333.57523 1185.40089,1336.04681 C1190.00702,1338.51839 1194.10753,1341.30823 1197.70256,1344.41643 C1201.29758,1347.52463 1204.18105,1350.96981 1206.35304,1354.75208 C1208.52503,1358.53434 1209.61102,1362.7472 1209.61102,1367.39077 C1209.61102,1372.40883 1208.78717,1377.08978 1207.13945,1381.43377 C1205.49173,1385.77776 1202.81422,1389.55996 1199.10686,1392.78051 C1195.39949,1396.00105 1190.60619,1398.54749 1184.72683,1400.4199 C1178.84747,1402.2923 1171.7137,1403.2285 1163.3253,1403.2285 C1156.13526,1403.2285 1150.05002,1402.40465 1145.06941,1400.75693 C1140.0888,1399.10921 1135.87595,1396.99342 1132.43072,1394.40949 C1128.98548,1391.82557 1126.13947,1388.92338 1123.89258,1385.70284 C1121.64569,1382.48229 1119.66096,1379.29925 1117.93835,1376.1536 L1137.82323,1368.51421 Z" id="Mystikos" fill="#FFFFFF"></path>
        <g id="icon" transform="translate(415.000000, 240.215720)">
            <path d="M14.5824983,173.471277 C19.4779149,170.864769 115.593894,114.978501 302.930436,5.81247287 C307.824019,2.23945305 313.080663,0.452943137 318.700367,0.452943137 C324.320072,0.452943137 329.647679,2.23945305 334.683189,5.81247287 L623.833204,173.471277 C631.932462,179.348954 635.982091,187.980937 635.982091,199.367228 C635.982091,210.753519 635.982091,346.503307 635.982091,606.616592 C635.615681,616.350266 631.566052,623.381633 623.833204,627.71069 C612.233932,634.204277 337.116448,800.885033 332.126323,804.218769 C324.360077,809.823426 311.706127,809.823426 302.930436,804.218769 C297.079975,800.482331 200.963996,741.646305 14.5824983,627.71069 C4.92398461,623.477569 0.0947277825,616.446203 0.0947277825,606.616592 C0.0947277825,596.786981 0.0947277825,461.037193 0.0947277825,199.367228 C0.0947277825,189.041024 4.92398461,180.409041 14.5824983,173.471277 Z" id="Path-6" fill="#144A4E" fill-rule="nonzero"></path>
            <g id="Group" transform="translate(25.323901, 24.579081)">
                <mask id="mask-2" fill="white">
                    <use xlink:href="#path-1"></use>
                </mask>
                <use id="Path-6" fill="#FFFFFF" fill-rule="nonzero" xlink:href="#path-1"></use>
                <rect id="Rectangle" fill="url(#radialGradient-3)" fill-rule="nonzero" mask="url(#mask-2)" x="-22.9189015" y="141.380793" width="633.644779" height="628.370684"></rect>
                <path d="M45.1766171,678.593511 L45.1766171,350.502524 C44.8862019,342.578015 46.6928526,337.528827 50.5965692,335.354958 C56.4521441,332.094154 65.9783267,333.354068 69.9414258,335.354958 C72.5834918,336.688884 144.292775,382.0266 285.069277,471.368105 C289.800385,474.28263 294.761719,474.28263 299.953279,471.368105 C305.144839,468.453581 376.181637,423.588067 513.063673,336.771564 C519.753632,332.722636 525.522416,332.250434 530.370024,335.354958 C537.641435,340.011743 538.066306,348.318023 538.066306,350.502524 C538.066306,351.958858 538.066306,458.025581 538.066306,668.702692 L538.066306,691.092896 L291.60638,840.782204 L45.1766171,691.092896 L45.1766171,678.593511 Z" id="Path-7" fill="#144A4E" fill-rule="nonzero" mask="url(#mask-2)"></path>
                <g id="Group-2" mask="url(#mask-2)">
                    <g transform="translate(73.737242, 377.348163)">
                        <mask id="mask-5" fill="white">
                            <use xlink:href="#path-4"></use>
                        </mask>
                        <use id="Path-7" stroke="none" fill="#FFFFFF" fill-rule="nonzero" xlink:href="#path-4"></use>
                    </g>
                </g>
            </g>
            <path d="M32.6293939,188.662682 C37.236356,185.922921 127.688857,132.515785 303.986898,28.4412754 C308.592134,26.1837426 313.539039,25.0549762 318.827611,25.0549762 C324.116184,25.0549762 329.12987,26.6787126 333.868671,29.9261854 L605.980992,190.147592 C613.603014,216.5587 617.414025,232.247867 617.414025,237.215093 C617.414025,239.154863 616.896796,249.159948 605.980992,255.985508 C595.065188,262.811067 338.692761,425.209956 332.224781,428.557859 C322.711745,434.804265 312.278906,433.335582 303.986898,428.557859 C298.458893,425.372711 208.006391,367.848594 32.6293939,255.985508 C24.0349624,249.714031 19.7377467,242.323199 19.7377467,233.813011 C19.7377467,221.047729 16.6487004,198.599507 32.6293939,188.662682 Z" id="Path-6" fill="#144A4E" fill-rule="nonzero"></path>
            <path d="M39.6987129,188.794701 C44.1640344,186.11181 132.259833,134.096176 303.986108,32.7477974 C308.471357,29.5849362 313.289372,28.0035055 318.440153,28.0035055 C323.590934,28.0035055 328.473991,29.5849362 333.089324,32.7477974 C473.161287,114.089637 561.502135,166.105272 598.11187,188.794701 C605.635651,193.570263 609.359935,202.357637 609.24702,207.880784 C609.359935,213.142873 608.743267,219.51442 598.11187,226.162143 C587.480473,232.809865 337.787725,390.977517 331.488265,394.238193 C322.223087,400.321851 312.062071,398.891433 303.986108,394.238193 C298.602133,391.136032 210.506335,335.110682 39.6987129,226.162143 C30.6569519,220.487053 26.1360714,213.77228 26.1360714,206.017823 C26.1360714,197.012126 32.6446713,193.032968 39.6987129,188.794701 Z" id="Path-6" fill="#FFFFFF" fill-rule="nonzero"></path>
            <g id="beams-right" transform="translate(416.515675, 589.427244) scale(-1, 1) translate(-416.515675, -589.427244) translate(299.015675, 404.927244)" fill-rule="nonzero">
                <polygon id="Path-10" fill="#BAF3F2" transform="translate(101.767774, 184.458401) scale(-1, 1) translate(-101.767774, -184.458401) " points="202.950941 0.29023349 202.950941 245.8773 0.584607576 368.626568 0.584607576 123.26823"></polygon>
                <path d="M25.5357993,110.545684 L215.438161,111.410509 C220.679326,111.434378 225.527933,114.192181 228.227361,118.684783 L230.879997,123.099511 C233.045623,126.703718 231.879423,131.381092 228.275216,133.546718 C227.072073,134.269639 225.6925,134.645886 224.288925,134.633889 L25.535507,132.934923 C19.350049,132.882049 14.3636057,127.852799 14.3636057,121.667115 L14.3636057,121.667115 C14.3636057,115.524855 19.3428915,110.545569 25.4851518,110.545569 C25.5020344,110.545569 25.5189169,110.545607 25.5357993,110.545684 Z" id="Rectangle-8" fill="#144A4E" transform="translate(123.166099, 122.589868) rotate(31.000000) translate(-123.166099, -122.589868) "></path>
                <path d="M58.4269354,174.432073 L218.212908,172.725277 C223.535314,172.668425 228.489236,175.436398 231.230634,179.998851 L233.805446,184.284057 C236.005526,187.945605 234.820772,192.697394 231.159224,194.897475 C229.967364,195.613616 228.604491,195.995222 227.214045,196.002129 L58.4274349,196.84053 C52.2877876,196.871027 47.2858974,191.918583 47.2554004,185.778935 C47.255309,185.760529 47.2552632,185.742122 47.2552632,185.723716 L47.2552632,185.723716 C47.2552632,179.53421 52.2377826,174.498184 58.4269354,174.432073 Z" id="Rectangle-8" fill="#144A4E" transform="translate(141.083311, 184.782544) rotate(31.000000) translate(-141.083311, -184.782544) "></path>
                <path d="M94.209174,236.553207 L217.753488,235.862826 C223.048854,235.833235 227.96746,238.597935 230.694818,243.137021 L233.295722,247.465652 C235.480579,251.101864 234.304022,255.820773 230.66781,258.00563 C229.470879,258.724819 228.100538,259.104116 226.704159,259.102731 L94.2093429,258.971337 C88.0372584,258.965216 83.037039,253.960036 83.037039,247.787948 L83.037039,247.787948 C83.037039,241.607579 88.0289011,236.587743 94.209174,236.553207 Z" id="Rectangle-8" fill="#144A4E" transform="translate(158.715511, 247.482663) rotate(31.000000) translate(-158.715511, -247.482663) "></path>
                <path d="M127.09062,297.154053 L219.892594,296.10407 C225.218349,296.043813 230.176664,298.812184 232.919806,303.377539 L235.491373,307.657344 C237.685159,311.308417 236.503794,316.046611 232.852721,318.240397 C231.658748,318.957808 230.292771,319.338471 228.899846,319.341961 L127.0913,319.597074 C120.936466,319.612497 115.934484,314.63552 115.919061,308.480685 C115.919038,308.471377 115.919026,308.462068 115.919026,308.45276 L115.919026,308.45276 C115.919026,302.262123 120.900379,297.22409 127.09062,297.154053 Z" id="Rectangle-8" fill="#144A4E" transform="translate(176.256574, 307.850108) rotate(31.000000) translate(-176.256574, -307.850108) "></path>
            </g>
            <g id="beams-left" transform="translate(96.826682, 404.437602)" fill-rule="nonzero">
                <polygon id="Path-10" points="0.57852706 0 0.57852706 244.567564 208.960828 371.577302 208.960828 108.18456"></polygon>
                <path d="M147.795927,141.690715 L213.908384,140.643262 C219.258064,140.558504 224.247882,143.329662 227.003516,147.915808 L229.551812,152.156884 C231.768022,155.845276 230.574582,160.631902 226.886189,162.848112 C225.699849,163.560937 224.345041,163.944885 222.961104,163.960467 L156.79723,164.705416 C151.471767,164.765376 146.513834,161.99704 143.770844,157.431938 L141.319534,153.352273 C139.129901,149.708111 140.309029,144.978886 143.953191,142.789253 C145.115046,142.091139 146.440638,141.712187 147.795927,141.690715 Z" id="Rectangle-8" fill="#144A4E" transform="translate(185.442352, 152.673871) rotate(31.000000) translate(-185.442352, -152.673871) "></path>
                <path d="M61.8014621,141.247452 L144.448224,140.697297 C149.749273,140.66201 154.675279,143.427408 157.405582,147.971394 L160.001018,152.290925 C162.195589,155.943304 161.013802,160.683193 157.361423,162.877764 C156.167712,163.595018 154.80212,163.975799 153.409503,163.979716 L70.7179416,164.212317 C65.43736,164.22717 60.5379506,161.464307 57.8182393,156.937947 L55.323689,152.786318 C53.1572408,149.180743 54.3238838,144.501593 57.9294592,142.335145 C59.0993564,141.6322 60.4366512,141.256538 61.8014621,141.247452 Z" id="Rectangle-8" fill="#144A4E" transform="translate(107.669422, 152.459053) rotate(31.000000) translate(-107.669422, -152.459053) "></path>
                <path d="M55.5254013,224.106807 L170.692216,224.057448 C175.960067,224.05519 180.84301,226.816445 183.556154,231.331876 L186.183412,235.704368 C188.364436,239.334201 187.189944,244.044831 183.560111,246.225854 C182.361925,246.945797 180.989726,247.324499 179.591886,247.321011 L64.3890339,247.033544 C59.1368288,247.020438 54.2740479,244.261194 51.5689539,239.759162 L49.0473335,235.56248 C46.8965362,231.982953 48.0547511,227.337606 51.634279,225.186809 C52.8094257,224.48071 54.154436,224.107395 55.5254013,224.106807 Z" id="Rectangle-8" fill="#144A4E" transform="translate(117.622970, 235.689728) rotate(31.000000) translate(-117.622970, -235.689728) "></path>
                <path d="M36.5227353,150.227777 L58.4699008,150.593244 C63.645817,150.679434 68.4114993,153.428353 71.0776628,157.865594 L73.7916165,162.382371 C75.913886,165.914421 74.7710334,170.498152 71.2389839,172.620422 C70.0226391,173.351275 68.6230964,173.720102 67.2045365,173.683635 L45.1575717,173.116869 C40.03089,172.985076 35.3268517,170.24327 32.6855431,165.847394 L30.0465179,161.455319 C27.9383594,157.946754 29.0736131,153.3935 32.582178,151.285341 C33.7708853,150.571094 35.1361419,150.204687 36.5227353,150.227777 Z" id="Rectangle-8" fill="#144A4E" transform="translate(51.922614, 161.956425) rotate(31.000000) translate(-51.922614, -161.956425) "></path>
                <path d="M147.768462,304.781716 L207.763915,304.904058 C213.018563,304.914773 217.884487,307.674333 220.590837,312.178455 L223.230673,316.571881 C225.400429,320.182962 224.232005,324.869256 220.620924,327.039012 C219.419097,327.761143 218.041488,328.138057 216.63943,328.128352 L156.58823,327.712647 C151.359789,327.676453 146.527466,324.920334 143.834556,320.438578 L141.29042,316.204426 C139.145809,312.635193 140.300693,308.003208 143.869925,305.858597 C145.047107,305.151275 146.395125,304.778916 147.768462,304.781716 Z" id="Rectangle-8" fill="#144A4E" transform="translate(182.266867, 316.455118) rotate(31.000000) translate(-182.266867, -316.455118) "></path>
            </g>
            <path d="M152.467683,238.103544 L323.998424,347.569609 C329.45766,351.05354 331.009237,358.226838 327.463967,363.591621 C323.918698,368.956403 316.619103,370.481135 311.159866,366.997204 L139.629126,257.53114 C134.169889,254.047209 132.618313,246.87391 136.163582,241.509128 C139.708852,236.144346 147.008447,234.619614 152.467683,238.103544 Z" id="Rectangle-2" fill="#144A4E" fill-rule="nonzero"></path>
            <path d="M461.001246,252.62823 C466.460483,249.144299 473.760078,250.669031 477.305347,256.033813 C480.850617,261.398595 479.29904,268.571894 473.839804,272.055825 L325.567469,366.679033 C320.108232,370.162964 312.808637,368.638232 309.263368,363.27345 C305.718098,357.908667 307.269675,350.735368 312.728911,347.251438 L461.001246,252.62823 Z" id="Rectangle-2" fill="#144A4E" fill-rule="nonzero"></path>
            <rect id="Rectangle-7" fill="#144A4E" fill-rule="nonzero" x="303.514407" y="508.522831" width="29.0480046" height="278.050124"></rect>
            <path d="M218.955194,110.400596 L312.021156,57.5985889 C317.658456,54.4002042 324.866844,56.2982678 328.121541,61.8380327 C331.376237,67.3777975 329.444756,74.4614673 323.807456,77.659852 L230.741493,130.461859 C225.104193,133.660243 217.895805,131.76218 214.641109,126.222415 C211.386412,120.68265 213.317894,113.59898 218.955194,110.400596 Z" id="Rectangle-2" fill="#144A4E" fill-rule="nonzero"></path>
            <path d="M360.353984,77.7848942 C365.874262,81.1746655 367.552998,88.3202617 364.103545,93.7450298 C360.654092,99.1697979 353.382688,100.819489 347.862409,97.4297174 L315.524517,77.5723751 C310.004238,74.1826038 308.325502,67.0370077 311.774955,61.6122395 C315.224408,56.1874714 322.495812,54.5377805 328.016091,57.9275519 L360.353984,77.7848942 Z" id="Rectangle-2" fill="#144A4E" fill-rule="nonzero"></path>
        </g>
    </g>
</svg>