<?xml version="1.0" encoding="UTF-8"?>
<svg width="1325px" height="528px" viewBox="0 0 1325 528" version="1.1" xmlns="http://www.w3.org/2000/svg" xmlns:xlink="http://www.w3.org/1999/xlink">
    <!-- Generator: Sketch 51.3 (57544) - http://www.bohemiancoding.com/sketch -->
    <title>[dark] wordmark</title>
    <desc>Created with Sketch.</desc>
    <defs></defs>
    <g id="[dark]-wordmark" stroke="none" stroke-width="1" fill="none" fill-rule="evenodd">
        <path d="M176.542246,172.877955 L212.941688,172.877955 L265.631004,276.90846 L317.533913,172.877955 L353.146948,172.877955 L353.146948,325.216361 L315.848754,325.216361 L315.848754,225.904303 L266.08038,325.216361 L251.700354,325.216361 L200.246821,224.780863 L200.246821,325.216361 L176.542246,325.216361 L176.542246,172.877955 Z M386.566398,352.403599 C387.315362,352.778081 388.307724,353.2649 389.543513,353.864071 C390.779303,354.463241 392.127417,355.024956 393.587896,355.54923 C395.048375,356.073504 396.60245,356.522876 398.25017,356.897358 C399.89789,357.271839 401.545585,357.459077 403.193304,357.459077 C404.541438,357.459077 405.889552,356.672677 407.237687,355.099854 C408.585821,353.527031 409.85904,351.692098 411.057381,349.595 C412.255723,347.497903 413.32298,345.400836 414.259184,343.303739 C415.195388,341.206641 415.888169,339.671289 416.337547,338.697636 L426.336159,317.015252 L370.276525,210.176149 L407.125343,210.176149 L443.412441,279.042995 L475.542813,210.176149 L500.14614,210.176149 L436.55946,348.696249 C434.462362,353.190029 431.803582,357.271819 428.583039,360.94174 C425.362496,364.611661 421.84242,367.738537 418.022707,370.32246 C414.202993,372.906384 410.214822,374.909832 406.058075,376.332862 C401.901328,377.755893 397.800814,378.467397 393.756412,378.467397 C390.386076,378.467397 387.277924,378.074198 384.431863,377.287786 C381.585802,376.501374 379.11426,375.321774 377.017162,373.748951 L386.566398,352.403599 Z M525.364482,293.085989 C527.386683,299.377283 530.288873,304.264196 534.071138,307.746876 C537.853404,311.229556 542.590527,312.97087 548.282649,312.97087 C550.679332,312.97087 552.870017,312.671289 554.854771,312.072118 C556.839524,311.472948 558.562114,310.630376 560.022593,309.544379 C561.483071,308.458382 562.6065,307.203887 563.392911,305.780857 C564.179323,304.357826 564.572523,302.822474 564.572523,301.174754 C564.572523,298.478486 564.06698,296.063115 563.05588,293.928569 C562.044779,291.794023 560.640493,289.865471 558.842981,288.142855 C557.045469,286.420239 554.910955,284.828716 552.439376,283.368237 C549.967796,281.907758 547.309016,280.540921 544.462955,279.267683 C539.894277,277.245481 535.363116,275.054796 530.869336,272.695561 C526.375555,270.336326 522.331213,267.640098 518.736188,264.606796 C515.141164,261.573494 512.238974,258.10959 510.029531,254.21498 C507.820089,250.32037 506.715385,245.826657 506.715385,240.733705 C506.715385,235.865443 507.72647,231.427901 509.748672,227.420946 C511.770873,223.413992 514.616891,219.987535 518.286812,217.141474 C521.956733,214.295413 526.338104,212.086004 531.431055,210.51318 C536.524007,208.940357 542.141149,208.153957 548.282649,208.153957 C553.899875,208.153957 558.880407,208.678224 563.224396,209.726773 C567.568384,210.775322 571.38804,212.273226 574.683479,214.220531 C577.978918,216.167836 580.899832,218.545759 583.446308,221.354372 C585.992784,224.162985 588.277088,227.327309 590.299289,230.847437 L570.077377,237.812762 C569.028828,234.142841 567.755609,231.296823 566.257682,229.274621 C564.759755,227.25242 563.186956,225.735792 561.539236,224.724691 C559.891517,223.71359 558.281269,223.095705 556.708446,222.871016 C555.135623,222.646327 553.750061,222.533984 552.55172,222.533984 C550.379725,222.533984 548.320107,222.777393 546.372802,223.26422 C544.425497,223.751046 542.702907,224.443827 541.20498,225.342583 C539.707053,226.241339 538.508729,227.346044 537.609973,228.65673 C536.711217,229.967416 536.261846,231.484044 536.261846,233.20666 C536.261846,235.378654 536.82356,237.438273 537.947005,239.385578 C539.07045,241.332883 540.64325,243.149092 542.665451,244.83426 C544.687653,246.519427 547.065576,248.110951 549.799293,249.608878 C552.533009,251.106805 555.510094,252.529814 558.730637,253.877948 C563.5989,255.90015 568.336023,258.147006 572.942148,260.618586 C577.548273,263.090165 581.648787,265.880012 585.243811,268.988211 C588.838836,272.096409 591.722302,275.541589 593.894296,279.323855 C596.06629,283.10612 597.152271,287.318976 597.152271,291.96255 C597.152271,296.980605 596.328423,301.661557 594.680704,306.005545 C593.032984,310.349533 590.35548,314.131741 586.648111,317.352284 C582.940742,320.572827 578.147447,323.119265 572.268084,324.991673 C566.388721,326.864082 559.254951,327.800272 550.86656,327.800272 C543.676511,327.800272 537.591274,326.976425 532.610667,325.328705 C527.63006,323.680986 523.417204,321.565196 519.971972,318.981272 C516.52674,316.397348 513.680721,313.495158 511.433831,310.274615 C509.186941,307.054072 507.202217,303.871025 505.479601,300.725379 L525.364482,293.085989 Z M608.225292,224.556175 L608.225292,216.355066 L626.762045,210.176149 L626.762045,186.808605 L651.140684,174.001394 L661.588672,174.001394 L661.588672,210.176149 L689.787005,210.176149 L689.787005,224.556175 L661.588672,224.556175 L661.588672,298.590843 C661.588672,300.91263 662.187834,302.934801 663.386175,304.657417 C664.584517,306.380033 666.157317,307.241328 668.104622,307.241328 C669.302963,307.241328 670.632353,306.829404 672.092832,306.005545 C673.553311,305.181685 674.938872,304.226771 676.249558,303.140774 C677.560245,302.054777 678.72112,300.950072 679.732221,299.826627 C680.743322,298.703182 681.47355,297.841887 681.922928,297.242716 L693.831388,306.679608 C691.884083,309.675462 689.749569,312.465309 687.427782,315.049233 C685.105996,317.633157 682.447215,319.86129 679.451361,321.733699 C676.455507,323.606107 673.010327,325.085288 669.115717,326.171285 C665.221107,327.257282 660.727394,327.800272 655.634442,327.800272 C650.76618,327.800272 646.5346,327.107492 642.939575,325.721909 C639.34455,324.336327 636.348741,322.407775 633.952058,319.936195 C631.555375,317.464616 629.75789,314.506255 628.559548,311.061023 C627.361207,307.615791 626.762045,303.796134 626.762045,299.601939 L626.762045,224.556175 L608.225292,224.556175 Z M712.431454,220.624137 L736.922437,207.816925 L747.370425,207.816925 L747.370425,325.216361 L712.431454,325.216361 L712.431454,220.624137 Z M710.970983,170.069356 C710.970983,167.747569 711.457802,165.53816 712.431454,163.441062 C713.405107,161.343964 714.753221,159.546479 716.475837,158.048552 C718.198453,156.550625 720.183176,155.352302 722.430066,154.453545 C724.676957,153.554789 727.111052,153.105418 729.732424,153.105418 C732.353796,153.105418 734.806614,153.554789 737.090953,154.453545 C739.375292,155.352302 741.360015,156.550625 743.045183,158.048552 C744.730351,159.546479 746.059741,161.343964 747.033393,163.441062 C748.007046,165.53816 748.493865,167.747569 748.493865,170.069356 C748.493865,172.391142 748.007046,174.581828 747.033393,176.641477 C746.059741,178.701127 744.730351,180.479888 743.045183,181.977815 C741.360015,183.475742 739.375292,184.674066 737.090953,185.572822 C734.806614,186.471578 732.353796,186.920949 729.732424,186.920949 C727.111052,186.920949 724.676957,186.471578 722.430066,185.572822 C720.183176,184.674066 718.198453,183.475742 716.475837,181.977815 C714.753221,180.479888 713.405107,178.701127 712.431454,176.641477 C711.457802,174.581828 710.970983,172.391142 710.970983,170.069356 Z M811.245107,249.608878 L856.407378,210.176149 L881.572424,210.176149 L831.242331,254.21498 L892.357444,325.216361 L851.127212,325.216361 L811.245107,279.042995 L811.245107,325.216361 L776.193792,325.216361 L776.193792,164.339814 L800.797118,151.532603 L811.245107,151.532603 L811.245107,249.608878 Z M960.164164,327.350897 C951.02681,327.350897 942.582373,325.852992 934.830601,322.857138 C927.07883,319.861284 920.375707,315.742047 914.721033,310.499303 C909.066359,305.256559 904.647541,299.096427 901.464446,292.018722 C898.281351,284.941017 896.689828,277.282981 896.689828,269.044382 C896.689828,260.206614 898.281351,252.061758 901.464446,244.609572 C904.647541,237.157385 909.047635,230.73512 914.664861,225.342583 C920.282087,219.950046 926.966486,215.73719 934.718258,212.703888 C942.470029,209.670586 950.914466,208.153957 960.05182,208.153957 C969.189174,208.153957 977.652334,209.633138 985.441554,212.591544 C993.230775,215.549949 999.952621,219.613015 1005.60729,224.780863 C1011.26197,229.948711 1015.69951,236.033948 1018.92005,243.036756 C1022.1406,250.039565 1023.75084,257.585258 1023.75084,265.674064 C1023.75084,274.137351 1022.15932,282.113692 1018.97623,289.603327 C1015.79313,297.092961 1011.37431,303.62757 1005.71964,309.207347 C1000.06496,314.787125 993.343118,319.205943 985.553898,322.463934 C977.764678,325.721926 969.301518,327.350897 960.164164,327.350897 Z M964.208546,313.307902 C967.354193,313.307902 970.275107,312.278093 972.971375,310.218443 C975.667644,308.158794 978.008119,305.38767 979.992873,301.90499 C981.977626,298.42231 983.512978,294.396692 984.598975,289.828015 C985.684972,285.259338 986.227962,280.503491 986.227962,275.560332 C986.227962,268.22049 985.684972,261.311406 984.598975,254.832872 C983.512978,248.354338 981.734216,242.681025 979.262637,237.812762 C976.791057,232.9445 973.589287,229.087396 969.657228,226.241335 C965.72517,223.395273 960.913152,221.972264 955.22103,221.972264 C952.449865,221.972264 949.791085,222.98335 947.244609,225.005551 C944.698133,227.027752 942.451276,229.742704 940.503971,233.150488 C938.556666,236.558272 937.00259,240.490271 935.841697,244.946604 C934.680804,249.402936 934.100366,254.102611 934.100366,259.04577 C934.100366,266.460509 934.793147,273.463212 936.178729,280.05409 C937.564311,286.644969 939.549035,292.393177 942.132959,297.298888 C944.716883,302.204599 947.862482,306.09915 951.569851,308.982659 C955.27722,311.866169 959.490077,313.307902 964.208546,313.307902 Z M1058.86547,293.085989 C1060.88767,299.377283 1063.78986,304.264196 1067.57213,307.746876 C1071.35439,311.229556 1076.09152,312.97087 1081.78364,312.97087 C1084.18032,312.97087 1086.37101,312.671289 1088.35576,312.072118 C1090.34051,311.472948 1092.0631,310.630376 1093.52358,309.544379 C1094.98406,308.458382 1096.10749,307.203887 1096.8939,305.780857 C1097.68031,304.357826 1098.07351,302.822474 1098.07351,301.174754 C1098.07351,298.478486 1097.56797,296.063115 1096.55687,293.928569 C1095.54577,291.794023 1094.14148,289.865471 1092.34397,288.142855 C1090.54646,286.420239 1088.41195,284.828716 1085.94037,283.368237 C1083.46879,281.907758 1080.81001,280.540921 1077.96395,279.267683 C1073.39527,277.245481 1068.86411,275.054796 1064.37033,272.695561 C1059.87655,270.336326 1055.8322,267.640098 1052.23718,264.606796 C1048.64215,261.573494 1045.73996,258.10959 1043.53052,254.21498 C1041.32108,250.32037 1040.21638,245.826657 1040.21638,240.733705 C1040.21638,235.865443 1041.22746,231.427901 1043.24966,227.420946 C1045.27186,223.413992 1048.11788,219.987535 1051.7878,217.141474 C1055.45772,214.295413 1059.83909,212.086004 1064.93205,210.51318 C1070.025,208.940357 1075.64214,208.153957 1081.78364,208.153957 C1087.40087,208.153957 1092.3814,208.678224 1096.72539,209.726773 C1101.06937,210.775322 1104.88903,212.273226 1108.18447,214.220531 C1111.47991,216.167836 1114.40082,218.545759 1116.9473,221.354372 C1119.49377,224.162985 1121.77808,227.327309 1123.80028,230.847437 L1103.57837,237.812762 C1102.52982,234.142841 1101.2566,231.296823 1099.75867,229.274621 C1098.26075,227.25242 1096.68795,225.735792 1095.04023,224.724691 C1093.39251,223.71359 1091.78226,223.095705 1090.20944,222.871016 C1088.63661,222.646327 1087.25105,222.533984 1086.05271,222.533984 C1083.88072,222.533984 1081.8211,222.777393 1079.87379,223.26422 C1077.92649,223.751046 1076.2039,224.443827 1074.70597,225.342583 C1073.20804,226.241339 1072.00972,227.346044 1071.11096,228.65673 C1070.21221,229.967416 1069.76284,231.484044 1069.76284,233.20666 C1069.76284,235.378654 1070.32455,237.438273 1071.448,239.385578 C1072.57144,241.332883 1074.14424,243.149092 1076.16644,244.83426 C1078.18864,246.519427 1080.56657,248.110951 1083.30028,249.608878 C1086.034,251.106805 1089.01108,252.529814 1092.23163,253.877948 C1097.09989,255.90015 1101.83701,258.147006 1106.44314,260.618586 C1111.04926,263.090165 1115.14978,265.880012 1118.7448,268.988211 C1122.33983,272.096409 1125.22329,275.541589 1127.39529,279.323855 C1129.56728,283.10612 1130.65326,287.318976 1130.65326,291.96255 C1130.65326,296.980605 1129.82941,301.661557 1128.18169,306.005545 C1126.53397,310.349533 1123.85647,314.131741 1120.1491,317.352284 C1116.44173,320.572827 1111.64844,323.119265 1105.76907,324.991673 C1099.88971,326.864082 1092.75594,327.800272 1084.36755,327.800272 C1077.1775,327.800272 1071.09226,326.976425 1066.11166,325.328705 C1061.13105,323.680986 1056.91819,321.565196 1053.47296,318.981272 C1050.02773,316.397348 1047.18171,313.495158 1044.93482,310.274615 C1042.68793,307.054072 1040.70321,303.871025 1038.98059,300.725379 L1058.86547,293.085989 Z" id="Mystikos" fill="#FFFFFF"></path>
    </g>
</svg>